<?xml version="1.0" encoding="UTF-8" standalone="no"?>
<svg
   version="1.1"
   width="55mm"
   height="55mm"
   viewBox="0 0 141906.45 141906.4"
   id="svg1"
   sodipodi:docname="meerk40t_simple.svg"
   inkscape:version="1.3 (0e150ed6c4, 2023-07-21)"
   inkscape:export-filename="meerk40t_simple.png"
   inkscape:export-xdpi="96"
   inkscape:export-ydpi="96"
   xmlns:inkscape="http://www.inkscape.org/namespaces/inkscape"
   xmlns:sodipodi="http://sodipodi.sourceforge.net/DTD/sodipodi-0.dtd"
   xmlns="http://www.w3.org/2000/svg"
   xmlns:svg="http://www.w3.org/2000/svg">
  <defs
     id="defs1">
    <inkscape:path-effect
       effect="fill_between_many"
       method="originald"
       linkedpaths="#path1-9,0,1"
       id="path-effect3"
       is_visible="true"
       lpeversion="0"
       join="true"
       close="true"
       autoreverse="true" />
  </defs>
  <sodipodi:namedview
     id="namedview1"
     pagecolor="#ffffff"
     bordercolor="#000000"
     borderopacity="0.25"
     inkscape:showpageshadow="2"
     inkscape:pageopacity="0.0"
     inkscape:pagecheckerboard="0"
     inkscape:deskcolor="#d1d1d1"
     inkscape:document-units="mm"
     inkscape:zoom="4.6279204"
     inkscape:cx="75.087722"
     inkscape:cy="80.705796"
     inkscape:window-width="3840"
     inkscape:window-height="2054"
     inkscape:window-x="-11"
     inkscape:window-y="-11"
     inkscape:window-maximized="1"
     inkscape:current-layer="g1" />
  <g
     inkscape:label="Ebene 1"
     label_display="False"
     id="g1"
     transform="translate(-34492.979,-22456.853)">
    <path
       inkscape:original-d="M 0,0"
       inkscape:path-effect="#path-effect3"
       d="m 70816.782,-909.536 c -579.223,-240.99 5811.539,6935.83 8071.873,9359.85 5134.329,8704.78 20649.104,16472.57 20179.683,25275.6 -3232.272,4582.89 -937.502,8415.91 -9651.848,8665.2 -5800.761,1812.07 -4825.537,6689.63 -5537.078,11026.49 -171.991,5676 689.771,8374.58 2660.833,10141.66 -651.553,-381.06 2696.072,3884.25 5250.874,8271.39 -5095.828,-2207.92 3036.863,1245.48 2666.208,258.12 689.431,1199.74 1875.192,3135.04 2336.922,2330.93 2676.808,5227.104 5986.141,5702.15 8671.821,8757.71 207.64,4886.59 -117.88,7779.071 -809.53,12877.798 10494.66,379.199 27448.38,607.161 49590.81,204.313 1683.38,-3402.937 4680.99,-11310.475 8645.32,-13399.714 1485.66,-1053.443 5221.92,-6060.537 6694.56,-6718.557 397.1,-2917.86 960.04,-2024.15 3375.94,-4231.94 8379.71,-4895.09 5107.2,-6400.46 8646.54,-9918.51 1622.69,-4863.82 543.76,-11819.31 -601.33,-13885.11 1703.66,-3308.99 -9540.55,-5731.34 -13381.12,-8990.53 3084.54,1923.14 -958.68,-3785.57 -3199.95,-6375.9 10742.33,-10860.28 21532.78,-21707.78 31552.84,-33240.81 l -9446.52,6503.9 c -5058.37,3605.13 -13611.43,12153.29 -19550.36,18061.05 -4310.24,7067.44 -7654.29,2912.58 -9369.19,1169.31 -12417.98,-8942.7 -34256.34,-2519.56 -48747.23,-1922.63 1650.91,334.88 -5530.82,2095.67 -1278.65,1833.3 -6132.96,2520.4 -1003.73,866.56 -4015.93,3115.95 -8416.848,-8406.18 -16659.517,-17013.72 -25599.6,-24868.94 L 74131.397,2254.414 C 71978.456,74.844 71009.857,-829.206 70816.782,-909.536 Z"
       id="path3"
       transform="translate(-27584.029,37762.086)"
       style="fill:#ffffff" />
    <circle
       style="fill:#ffeeaa;stroke:none;stroke-width:3474.08"
       id="path2"
       cx="104559.3"
       cy="95177.586"
       r="64502.922" />
    <circle
       style="fill:none;stroke:#808080;stroke-width:3474.09"
       id="path2-4"
       cx="106477.71"
       cy="94892.305"
       r="64503.062" />
    <path
       id="path1-9"
       d="m 63592.332,-179065.18 c -579.223,-240.99 5811.539,6935.83 8071.873,9359.85 5134.329,8704.78 20649.104,16472.57 20179.683,25275.6 -3232.272,4582.89 -937.502,8415.91 -9651.848,8665.2 -5800.761,1812.07 -4825.537,6689.63 -5537.078,11026.49 -171.991,5676 689.771,8374.58 2660.833,10141.66 -651.553,-381.06 2696.072,3884.25 5250.874,8271.39 -5095.828,-2207.92 3036.863,1245.48 2666.208,258.12 689.431,1199.74 1875.192,3135.04 2336.922,2330.93 2676.808,5227.104 5986.137,5702.15 8671.818,8757.71 207.64,4886.59 -117.875,7779.071 -809.529,12877.798 10494.662,379.199 27448.382,607.161 49590.812,204.313 1683.38,-3402.937 4680.99,-11310.475 8645.32,-13399.714 1485.66,-1053.443 5221.92,-6060.537 6694.56,-6718.557 397.1,-2917.86 960.04,-2024.15 3375.94,-4231.94 8379.71,-4895.09 5107.2,-6400.46 8646.54,-9918.51 1622.69,-4863.82 543.76,-11819.31 -601.33,-13885.11 1703.66,-3308.99 -9540.55,-5731.34 -13381.12,-8990.53 3084.54,1923.14 -958.68,-3785.57 -3199.95,-6375.9 10742.33,-10860.28 21532.78,-21707.78 31552.84,-33240.81 l -9446.52,6503.9 c -5058.37,3605.13 -13611.43,12153.29 -19550.36,18061.05 -4310.24,7067.44 -7654.29,2912.58 -9369.19,1169.31 -12417.98,-8942.7 -34256.34,-2519.56 -48747.23,-1922.63 1650.91,334.88 -5530.818,2095.67 -1278.65,1833.3 -6132.959,2520.4 -1003.73,866.56 -4015.933,3115.95 -8416.845,-8406.18 -16659.514,-17013.72 -25599.597,-24868.94 l -3841.273,-1135.98 c -2152.941,-2179.57 -3121.54,-3083.62 -3314.615,-3163.95 z m 17457.059,70689.55 c -68363.691,138172.274 -68363.691,138172.274 0,0 z"
       style="fill:#ffffff;stroke:#ffffff"
       transform="translate(-20359.579,215917.73)"
       sodipodi:nodetypes="scccccccccccccccccccccccccccscc" />
    <path
       d="m 168965.61,37648.232 -6712.14,7322.332 -29027.82,29289.336 -3312.49,4707.217 -784.53,6189.116 -5230.25,1743.412 -4097.01,-2092.095 -1503.7,-1765.207 -849.91,-1983.131 893.5,-3377.864 4554.67,-3486.825 4162.4,-653.779 370.47,1678.034 12421.82,-11593.694 12683.33,-12661.537 6407.03,-6276.288 893.51,-828.12 9131.12,-6210.907"
       stroke_scale="True"
       mktablength="5160.23622047244"
       mktabpositions=""
       type="elem path"
       id="path26"
       lock="False"
       label_display="False"
       hidden="False"
       stroke-linecap="butt"
       stroke-linejoin="miter"
       fill-rule="evenodd"
       stroke="none"
       stroke-width="4128.19"
       fill="#ff0000" />
    <path
       d="m 44485.94,37038.036 7409.507,4532.873 33386.35,33473.528 -174.34,-1917.754 h 3138.14 l 5055.9,3573.997 516.86,2777.589 -123.28,955.406 -678.03,1725.891 -1571.79,2558.015 -2157.37,1017.045 -3051.13,-462.293 -4869.47,-4407.188 647.21,-2465.557 2034.08,554.752 L 65556.894,58675.124 44485.94,37038.036"
       stroke_scale="True"
       mktablength="5160.23622047244"
       mktabpositions=""
       type="elem path"
       id="path25"
       lock="False"
       label_display="False"
       hidden="False"
       stroke-linecap="butt"
       stroke-linejoin="miter"
       fill-rule="evenodd"
       stroke="none"
       stroke-width="4128.19"
       fill="#ff0000" />
    <path
       d="m 88044.777,83549.285 c 6927.67,-693.892 -514.32,-13215.222 4048.08,-4102.854 2469.28,3330.343 -7901.58,5289.761 -4048.08,4102.854 v 0"
       stroke_scale="True"
       mktablength="5160.23622047244"
       mktabpositions=""
       type="elem path"
       id="path20"
       lock="False"
       label_display="False"
       hidden="False"
       stroke-linecap="butt"
       stroke-linejoin="miter"
       fill-rule="evenodd"
       stroke="none"
       stroke-width="966.884"
       fill="#000000" />
    <path
       d="m 121685.65,83939.995 c -6139.4,-3028.887 3097.29,-12431.852 -1837.52,-3568.297 -657.97,3157.537 7745.26,4693.73 1837.52,3568.297 v 0"
       stroke_scale="True"
       mktablength="5160.23622047244"
       mktabpositions=""
       type="elem path"
       id="path19"
       lock="False"
       label_display="False"
       hidden="False"
       stroke-linecap="butt"
       stroke-linejoin="miter"
       fill-rule="evenodd"
       stroke="none"
       stroke-width="966.884"
       fill="#000000" />
    <path
       d="m 103917.15,95452.075 c 4633.28,-3149.627 -2019.97,2046.14 0,0 v 0"
       stroke_scale="True"
       mktablength="5160.23622047244"
       mktabpositions=""
       type="elem path"
       id="path12"
       lock="False"
       label_display="False"
       hidden="False"
       stroke-linecap="butt"
       stroke-linejoin="miter"
       fill-rule="evenodd"
       stroke="none"
       stroke-width="966.884"
       fill="#000000" />
    <path
       d="m 74475.848,134241.51 c 6087.449,-2063.06 1495.769,-15632.52 1548.889,-13061.37 -2685.679,-3055.56 -4225.933,-2797.1 -6902.738,-8024.2 -461.73,804.11 -865.944,-1027.03 -1555.376,-2226.77 370.655,987.36 -7449.406,-3561.05 -2353.585,-1353.13 -5622.72,-1909.19 -7768.146,-7336.2 -6971.142,-7072.62 -1971.059,-1767.09 -2989.935,-5664.315 -2817.945,-11340.298 711.541,-4336.868 1614.095,-9214.125 7414.849,-11026.189 8714.335,-249.292 6419.566,-4082.183 9651.834,-8665.066 469.422,-8803.019 -15045.161,-16571.682 -20179.483,-25276.445 -3013.776,-3232.026 -13369.65,-14913.891 -4757.898,-6195.636 12835.891,13162.751 26147.788,25972.37 37933.674,40083.764 -9315.58,-5127.977 3212.98,11918.209 7105.6,2033.49 5831.425,-6374.611 -12917.56,-12017.389 -5622.37,-5178.963 C 74321.59,65960.512 62794.994,53456.198 51395.1,41136.463 c 8940.073,7855.21 17182.084,16462.104 25598.917,24868.273 3012.2,-2249.4 -2116.917,-594.955 4016.04,-3115.348 -4252.17,262.368 2930.01,-1499.452 1279.11,-1834.338 3589.49,-1310.461 8981.2,-2498.492 10421.4,-3295.646 3448.095,15.997 2548.66,-1177.822 6193.915,-810.483 1786.168,-573.679 4238.998,945.937 5901.138,-153.852 1397.18,214.33 3289.77,791.366 6526.9,153.285 3582,-328.313 2009.36,125.987 4857.01,265.571 1016.3,1244.023 4034.44,1265.208 8566.19,2092.857 1868.51,1340.8 5039.89,1598.799 6280.35,3671.654 1714.9,1743.271 5059.22,5897.39 9369.45,-1170.045 5938.92,-5907.746 14491.97,-14455.773 19550.32,-18060.894 -11406.45,11752.777 -22658.57,23773.361 -35065.84,34463.836 9146.31,-10073.84 -15938.48,1207.738 -3459.95,6925.592 5857.39,3537.894 10553.11,-9127.763 5289.58,-4567.469 13395.92,-15212.199 28058.14,-29301.633 42683.21,-43325.418 -10020.05,11533.018 -20810.43,22380.921 -31552.75,33241.189 2241.27,2590.321 6283.61,8298.023 3199.07,6374.882 3840.57,3259.183 15085.49,5681.81 13381.83,8990.787 1145.09,2065.796 2224.12,9020.909 601.42,13884.739 -3539.33,3518.045 -267.38,5023.455 -8647.07,9918.535 -2415.9,2207.79 -2978.93,1314.62 -3376.03,4232.47 -1472.64,658.02 -5208.49,5664.44 -6694.16,6717.88 -1773.95,2037.09 -3494.1,1757.05 -4708.1,4403.78 -1493.26,3706.34 -1989.05,4228.82 846.87,10098.88 m -10349.94,-1005.55 c -3035.6,1890.02 8456.23,-6172.89 -315.7,-1376.5 -3237.81,899.68 5957.59,-3527.06 -1568.26,-544.23 3049.53,-2310.45 4668.13,-4316.65 -197.23,-1125.95 5113.06,-3554.19 6585.48,-4564.54 127.9,-1833.59 7866.08,-4380.33 -5785.56,1901.66 2647.45,-3440.58 -8639.94,4700.19 -3219.47,1739.02 1299.47,-2396.24 -7103.15,4278.33 -3806.79,1824.86 -2231.58,71.83 -2590.32,1127.62 -8479.16,5282.8 -3452.27,471.07 -3786.68,2048.62 -3322.54,1905.79 -4530.67,1857.93 37.52,-1205.33 -2142.53,909.3 -2852.09,1294.1 1388.18,-4177.72 -2839.71,4702.93 -990.57,-1631.08 -1707.94,3965.2 -1442.82,-1579.07 -3027.99,3790.51 -266.61,-3872.33 -1612.38,914.28 -2850.61,-1760.58 -446.84,1554.42 -1341.01,-217.37 -2467.59,-608.21 -1394.63,-1856.38 706.38,3726.22 -2290.168,-1591.26 2768.118,6805.04 -3504.09,-4296.78 -649.21,2209.34 -2508.32,-3423.77 -3615.115,-4248.73 -1093.78,-82.98 -5082.085,-5772.34 13.68,1434.01 -4974.375,-3236.97 5765.245,6215.83 -8097.18,-4880.08 -1132.41,1617.04 -5704.89,-3509.16 -2818.33,-1174.84 -1543.25,257.31 -1285.29,253.34 6711.605,4403.02 -1326.4,453.44 8434.455,6014.53 -7904.04,-3133.06 1150.33,3087.58 -4841.63,-1982.15 6705.715,5241.93 -1789.87,1447.31 8772.695,5352.8 -8322.74,-4156.37 1523.12,2692.99 m 15931.853,-1031.4 c 205.72,-1601.02 205.72,1601.02 0,0 v 0 m 25886.86,1420.15 v 0 m -51104.823,-64.68 c -3561.17,-8367.36 1874.77,1505.9 547.86,-2562.06 -1652.18,-12272.16 -4445.04,3342.5 -547.86,2562.06 v 0 m 8146.78,-8262.67 c -917.99,-973.94 -317.64,1008.53 0,0 v 0 m 16862.903,-6433.36 c -253.45,-3241.76 1320.17,2507.29 1423.43,-601.73 247.12,5982.21 1571.09,-5167.88 862.39,1326.53 2894.5,-4802.83 -260.27,3435.42 3126.26,-2733.53 -1288.24,4603.06 1452.7,-388.3 1968.6,355.6 2113.55,-3966.74 -1658.97,6665.55 1754.65,-854.97 585.78,-789.22 -304.63,3923.73 1855.51,-917.58 -1021.95,4684.54 4300.12,-5673.37 414.52,2569.68 5090.22,-6858.33 -1892.66,5222.93 3723.65,-2274 -4279.36,6664.54 5204.69,-4360.38 613.76,2784.05 3213.08,-3638.18 6071.68,-7668.24 1873.92,-482.64 4952.44,-6703.61 1298.17,444 3768.08,-1918.22 4891.48,-9522.95 -2651.06,8231.41 3054.85,-2005.68 -3201.64,7875.63 78.02,802 1444.35,1661 2014.77,-7058.6 2246.87,-5803.52 2138.59,-1080.81 1071.29,-6035.72 1972.95,-4355.91 878,836.46 2140.29,-4804.96 1631.4,-8334.9 1993.73,-875.36 888.79,-6501.6 1188.2,-9191.87 1335.5,-880.53 803.93,-999.95 429.26,-12647.42 1446.06,-1905.56 595.77,3518.12 103.78,-10544.89 1572.78,-1169.06 -1105.11,-8532.13 521.74,224.47 808.9,-2026.81 -2169.52,-6290.32 3121.54,2491.74 -459.76,-4305.14 4793.07,7738.02 -2161.46,-6395.705 3101.43,1653.41 -5373.8,-8671.965 863.71,-239.13 -2256.6,-5405.72 4641.92,3570.47 -2831.07,-4026.195 2583.56,979.18 -3535.67,-3535.895 -625.66,-1597.86 -1810.03,-3796.025 5026.16,5527.535 -2677.92,-3621.98 981.39,-808.57 -1279.94,-2085.33 -1456.57,-2605.82 -1840.26,-3552.91 3444.81,728.22 -1088.01,-2286.794 1525.45,-1627.476 -6755.2,-3955.173 -4779.43,116.183 -6715.33,561.346 -2471.04,345.47 -807.95,2026.84 319.77,2333.94 -5785.73,-1609.7 2301.67,2050.14 -4732.67,-481.7 8365.5,4001.7 -9910.3,-1747.68 -1413.05,1829.21 -3122.21,-760.74 -7792.09,-2847.87 -4787.29,-99.87 -8935.93,-2541.88 -10450.88,-14100.892 -19245.33,-17425.004 -8474.728,-29.233 -12275.513,11503.295 -16319.943,14857.664 -4602.13,3016.21 -5106.08,2207.26 -3747.33,704.7 -4449.77,1292.34 -7340.53,1648 -5631.74,603.09 -11244.024,2312.48 470.67,-790.3 -3601.09,-500.03 -2627.12,299.06 -704.79,-1213.31 -2064.84,-1273.1 -718.805,-1100.25 -1150.859,-1118.518 -1621.587,-2032.249 303.995,-2704.164 -8940.178,1826.869 -3378.362,1461.219 -4370.861,2553.61 3405.921,-368.985 -2247.813,2851.75 2101.57,-385.73 -18.577,1354.67 325.671,1819.07 -3884.081,4159.695 3855.583,-2689.59 -1447.151,3072.635 5621.859,-5853.365 1753.099,605.05 936.754,-119.04 -1600.412,3986.08 5137.379,-4622.275 35.941,2299.45 5599.613,-5463.985 -2581.249,5438.78 1999.43,322.27 -3856.355,5405.87 -1424.811,3070.29 1117.476,-191.42 -2325.415,3139.63 -3472.815,8107.75 -132.618,1495.98 -1418.945,2981.24 -568.958,10330.47 278.56,2852.99 720.152,7838.26 599.379,3483.64 1737.367,-255.82 -890.239,3386.18 248.982,9533.44 354.333,2055.45 853.929,6460.68 669.066,3704.7 1687.31,-549.11 11.869,11524.03 878.219,-972.51 1409.059,4457.54 1277.36,7788.84 -36.64,-8480.58 1555.09,1788.89 1182.52,3784.27 -492.47,-10235.53 924.45,-1362.52 2688.05,7595.81 -733.35,-5439.35 2044.8,2767.34 1856.73,3339.12 -1328.09,-7012.04 1571.08,1246.44 1040.62,962.29 -1744.76,-9285.19 730.26,-1239.24 1892.06,2889.26 -738.92,-4901.64 1964.71,542.08 763.46,-1093.62 4339.66,4900.94 568.97,-2543.72 1639.25,2332.02 5047.07,7364.2 1671.91,766.12 5268.02,6799.79 1855.77,1013.93 1663.38,144.23 2440.42,3564.62 4519.54,5196.23 1829.11,624.59 4959.88,5841.61 -1795.81,-4698.19 4977.79,3158.56 -2518.52,-6681.84 3527.005,4832.38 882.655,-2014.59 3778.028,7119.59 -631.15,-4573.08 3310.5,2921.1 638.088,159.87 -1142.04,-4076.76 1870.378,283.87 -2671.998,-6900.74 4111.63,6177.82 1065.81,-2278.59 1771.91,4044.2 951.44,-199.47 2454.62,3429.78 l -84.11,-1828.58 0.36,-0.31 m -11267.093,-2968.08 c -2585.29,-3877.58 2255.625,2718.33 0,0 v 0 m 37054.183,-1343.03 c 699.78,-5511.2 222.15,1863.84 0,0 v 0 m -27988.45,-1151.19 c -737.26,-385.17 -2396.1,-1043.09 -3293.558,-277.96 -1477.54,-1977.3 -1797.49,-2396.15 -4053.735,-4062.77 -2157.6,-2059.12 4168.955,-883.62 4837.663,-625.18 1455.71,681.26 3180.94,658.85 4775.46,858.34 1782.94,-466.45 3914.13,808.6 4407.04,-975.14 1181.97,202.82 3534.8,-609.91 5167.42,-562.93 3194.28,1169.47 -2489.79,2311.03 -1707.93,3346.24 -1231.96,-827.49 -1285.16,1722.82 -2132.7,956.57 -1851.55,1399.9 -2209.86,645.95 -2981.74,1215.14 -625.39,844.07 -1941.47,-1202.73 -2666.15,1136.81 -769.93,-1548.77 -1288.3,-706.57 -1786.93,-880.95 -20.64,1542.64 -263.08,987.08 -564.84,-128.16 v 0 m 26959.27,-255.82 c 278.88,-1214.92 149.85,1541 0,0 v 0 m -37472.193,-7263.25 c -3611.17,-2365.94 -7768.67,-2984.58 -8703.88,-3534.06 -4398.54,1559.01 -1181.38,-2767.69 755.12,-2502.95 2583.63,-1183.725 4325.95,851.6 5004.3,1296.09 -956.45,846.54 4438.73,911.18 1737.79,1387.74 3675.29,4252.12 19258.783,-3211.885 8022.965,433.63 7923.178,-3513.495 1899.548,-1390.57 730.388,-1456.46 6119.91,-2323.315 3801.48,-2042.115 -750.828,-866.03 7715.268,-2248.705 -718.97,-603.76 2637.578,-1865.985 -7394.353,-499.51 1089.49,-215.36 -3797.208,-1767.92 732.17,-373.04 -3022.565,-4513.21 1550.5,-23.74 1708.658,3448.575 -7795.575,-11555.738 2430.148,-11744.381 11243.85,-5607.147 13908.39,11935.851 9465.26,12821.731 -961.76,-1596.96 4529.58,-4408.08 -2251.73,-15.99 7407.57,1956.765 -4456.39,-772.19 2725.21,1872.235 -9204.5,-2584.955 1307.37,1106.28 -1872.08,431.65 -6888.44,-1907.335 6927.79,3000.86 -2405.01,243.74 7893.97,3170.51 -7684.37,-3029.545 1625.11,2370.1 6652.85,3145.42 10728.21,-1687.86 15553.23,-2846.75 -1696.76,-2074.605 5845.71,-582.54 4710.59,2414.37 -741.31,303.17 -3081.9,283.42 -5172.51,686.79 -132,825.08 -4888.29,2872.96 -7900.39,2779.16 -8409.72,-1660.98 -15688.58,-448.11 -24094.553,-112.96 v 0 m 9886.693,-11335.505 c -1649.24,-1802.17 -6053.538,514.98 0,0 v 0 m 8841.05,-98.97 c 2294.42,-2067.36 -7274.89,1541.59 0,0 v 0 M 100194.1,88599.724 c 5000.82,547.907 18782.35,1938.586 7662.67,-1987.804 -2909.79,-3521.858 -12877.103,5953.195 -7662.67,1987.804 v 0 m 39630.55,15632.676 c -1752.14,-1863.18 2166.21,1796.65 0,0 v 0 m -53314.413,-36.54 c 998.75,-834.14 1025.33,454.14 0,0 v 0 m 27756.603,-600.53 c 3093.76,-1611.89 463.67,828.61 0,0 v 0 m -18547.043,-357.7 c 1692.235,-753.3 1688.775,432.83 0,0 v 0 m 14837.633,-214.56 c -10254.34,-3175.335 8972.85,1378.01 0,0 v 0 m 7802.54,-261.64 c 309.38,-935.32 630.88,911.31 0,0 v 0 m 11863.05,-1726.8 c -887.78,-1090.325 1671.73,1319.2 0,0 v 0 m -31481.338,-750.36 c 1121.44,-366.355 110.77,492.21 0,0 v 0 M 69626.034,96621.705 c 1874.774,-1072.58 -634.325,1007.51 0,0 v 0 m 532.957,-5208.34 c 1003.23,-576.05 2394.503,-152.123 0,0 v 0 m -8463.422,16112.075 c -864.536,-1037.85 -1209.606,-706.49 0,0 v 0 m 82502.341,-8857.165 c -2354.98,-1881.51 1378.2,1758.545 0,0 v 0 m -12487.15,-7308.137 c 9955.41,142.138 8467.02,-19627.279 5174.49,-18683.941 4078.43,7124.868 -419.24,17068.048 -5174.49,18683.941 v 0 m 11208.05,-269.538 c -5785.86,-3712.054 852.93,1774.875 0,0 v 0 M 71583.044,89902.427 c -2096.192,-337.942 -567.245,-2609.025 -1701.179,-3822.646 -260.984,-406.276 478.473,-2399.186 -1958.339,-4690.58 -4913.448,-946.865 -6513.953,1326.337 -7046.347,3026.578 -3978.591,1426.639 8346.413,10.837 -1356.083,1703.617 4464.402,-2009.869 7466.079,2268.808 8171.264,4234.717 -464.212,1065.602 2278.824,683.463 3890.756,-452.316 l -0.07,0.63 m 9676.821,1001.226 c -9921.186,-1868.551 -8565.798,-14312.739 -6034.04,-19771.131 -8121.571,6780.35 115.15,22299.293 7440.15,20157.207 -468.71,-128.697 -937.41,-257.393 -1406.11,-386.076 v 0 m 62461.803,-293.739 c -198.66,-5865.1 11912.66,-3970.368 3717.45,-5462.1 5890.67,-126.762 468.11,-2370.462 2258.47,-3197.15 -3993.26,-2889.675 -8859.03,1781.696 -7866.15,3594.506 318.47,1215.683 -1531.71,1789.073 174.16,2959.934 -4300.71,-923.827 2181.58,3233.307 1716.08,2104.81 v 0 m -15070.19,-1447.367 c 9643.76,-333.633 2464.96,-21496.124 4843.59,-8015.536 -3864.82,16919.164 -27180.45,-2030.147 -11073.7,-8805.91 4110.19,-735.39 11496.14,854.17 2513.56,-1332.662 -16853.97,1023.461 -5213.21,26551.116 6441.18,15268.383 5105.89,-5856.223 -5008.58,7675.483 -9787.94,2384.103 -8648.78,-5038.145 3741.31,4288.25 7063.31,501.622 v 0 m -38303.933,-774.078 c 3898.01,-1343.679 -12590.16,3064.571 -12409.09,-5433.169 -1385.58,-4917.109 1265.4,-14879.941 -1768.47,-3857.343 -127.61,6854.549 7800.99,12376.955 14177.56,9290.512 v 0 m -187.19,-787.718 c 15378.273,-5852.214 -5272.59,-22357.563 -6350.73,-15932.042 17103.083,-3857.859 10092.73,24378.796 -3207.13,13647.106 -4457.97,-2701.772 89.24,-16315.684 -3047.65,-5794.259 399.18,6007.651 6745.26,11081.91 12605.51,8079.195 v 0 m 45235.873,-489.544 c 131.69,-1532.222 -1456.12,2446.214 0,0 v 0 M 94794.657,85364.843 c 3448.245,-4413.64 -3986.53,3760.79 0,0 v 0 m 40632.093,-3663.388 c 678.78,-6073.612 -3698.11,-10309.881 -735.8,-1502.93 178.26,3358.263 -836.69,6935.452 735.8,1502.93 v 0 m -20059.9,1553.598 c -3483.72,-9423.089 9515.14,-15288.911 14998.04,-12328.683 -9624.16,-6078.759 -18484.96,6352.525 -14998.04,12328.683 v 0 M 69550.753,80185.199 c -391.829,499.217 384.756,2552.182 0,0 v 0 m 1117.455,936.563 c 693.712,-6159.775 -1580.989,-2100.891 0.06,0 h -0.06 m 0.968,-2045.124 c 369.207,-681.302 114.196,1103.042 0,0 v 0 m 66660.344,-254.374 c -1444.39,-8282.362 438.35,6812.454 0,0 v 0 m 4433.84,819.985 c -785.52,-3326.886 -1099.88,-450.345 0.29,-0.04 l -0.29,0.04 m -37601.81,-2228.996 c 7795.93,1506.936 6805.25,-239.977 -411.67,-537.865 -5059.198,1566.125 -2849.29,1653.059 411.68,537.555 v 0.31 m -8461.783,-1484.33 c 796.785,-9510.112 -22833.993,-5572.808 -9072.61,-6288.5 4098.16,-3706.979 12227.195,13706.557 9072.61,6288.5 v 0 M 113832,76859.538 c 1663.55,-7573.631 -24596.783,-4241.056 -14489.858,781.784 -1376.27,-8816.518 424.57,4170.067 6399.528,-1322.234 1871.49,-1590.589 6684.8,-4477.284 6807.89,2104.496 l 455.79,-69.173 826.71,-1494.818 -0.1,-0.06 m -3786.55,64.013 c -4525.97,-1914.678 2528.73,1743.188 0,0 v 0 m 27884.52,255.819 c -630.94,-911.303 -309.37,935.314 0,0 v 0 m -26743.5,-1822.803 c -310.41,-2200.548 -906.81,906.788 0,0 v 0 m -8316.07,-5084.386 c 1428.38,1265.425 3119.88,-335.885 3914.49,971.128 1868.32,-1355.757 2076.86,-536.378 3357.37,-399.196 2680.85,-2005.986 1518.86,-359.962 3647.62,-1995.877 447.82,629.73 3060.96,-2912.756 2784.14,-1247.503 221.22,63.78 2689.55,-1108.577 2745.32,-865.932 -438.48,1249.356 3609.33,-879.927 3631.79,194.954 3979.91,-511.563 -574.35,3.096 4811.2,822.354 271.31,-1705.196 5266.52,4198.798 5115.1,-276.994 -4876.09,-3397.948 -5535.55,-3827.272 -9720.76,-4955.391 -1443.5,-1089.899 -6020.75,167.966 -6369.58,-678.796 -1955.27,-1214.392 -1082.97,-348.2 -3877.59,-501.301 -1996.25,-939.935 -3749.78,1304.425 -4322.44,-659.889 -1011.53,4234.969 -3677.9,-2308.99 -3435.99,1435.189 95.8,289.28 -2258.25,-696.408 -2910.8,-800.426 -551.61,735.03 -4726.128,-747.775 -4985.518,-14.964 -1232.74,580.052 -3932.385,572.5 -5938.385,597.063 -185.95,-12.385 -7652.67,827.544 -6468.94,1962.874 -7287.47,1373.674 1657.88,218.743 -6603.93,3426.577 3136.34,1901.252 13070.78,-1143.021 11602.29,-880.997 3261.16,2068.358 214.82,-3031.488 5775.68,2181.349 -1891.06,-3020.492 2252.665,622.348 1761.965,-254.503 1118.52,503.487 2612.5,3172.048 5486.968,1940.307 v -0.03 m 1726.46,-3165.799 c -1693.34,-1654.419 3953.13,-1386.241 856.31,231.592 l -310.45,86.64 -545.87,-318.183 v -0.05 m -3285.06,-607.569 c -2693.228,-3434.756 1895.73,1779.823 0,0 v 0 m 1314.82,-319.767 c -814.79,-2252.973 1362.46,1663.934 0,0 v 0 m 4621.98,255.819 c 416.96,-1909.506 1204.54,-654.019 0,0 v 0 m 3052.66,8.772 c 1670.19,-1914.253 5416.56,-2232.557 0,0 v 0 m -2046.56,-173.023 c 551.63,-1450.907 1009.01,-956.561 0,0 v 0 m -8570.018,-447.271 c -4748.755,-2915.943 3014.958,937.698 0,0 v 0 m 9829.758,-248.724 c 2207.63,-2463.668 -1213.27,2078.485 0,0 v 0 m -15998.213,1747.67 c -1609.86,-1968.118 769.7,2215.768 0,0 v 0 m -866.62,-375.748 c -631,-911.265 -309.28,935.288 0,0 v 0 m 22911.803,-9662.754 c -1501.93,634.947 -852.81,1109.885 0,0 v 0"
       stroke_scale="True"
       mktablength="5160.23622047244"
       mktabpositions=""
       type="elem path"
       id="path1"
       lock="False"
       label_display="False"
       hidden="False"
       stroke-linecap="butt"
       stroke-linejoin="miter"
       fill-rule="evenodd"
       stroke="none"
       stroke-width="966.884"
       fill="#000000"
       sodipodi:nodetypes="ccccccccccccccccccccccccccccccccccccccccccccccccccccccccccccccccccscccccsccscccccccccccccccccccccccccccccccccccccccccccccccccccccccccccccccccccccccccccsccscccccccccccccsccscccccccccccccccccccccccsccsccscccsccsccsccsccsccsccsccsccsccsccsccsccscccsccsccccccccccccsccccccscccccccsccccscccccsccsccscccscccsccscccccsccsccccccccccscccccccccsccsccscccccccccccccccccccccccscccccccsccsccscccccsccsccsccsccsccsc" />
  </g>
  <g
     type="op image"
     label="Image ({percent}, {speed}mm/s)"
     lock="False"
     speed="250"
     color="#00000000"
     frequency="30.0"
     dangerous="False"
     coolant="0"
     stopop="True"
     allowed_attributes="[]"
     id="I1"
     power="1000"
     hex_color="#00000000"
     output="True"
     dwell_time="50.0"
     transform="translate(-34492.979,-22456.853)" />
  <g
     type="op raster"
     lock="False"
     speed="150.0"
     dpi="500"
     color="#000000"
     frequency="30.0"
     dangerous="False"
     coolant="0"
     stopop="False"
     allowed_attributes="[]"
     id="meerk40t:3"
     output="True"
     power="1000"
     dwell_time="50.0"
     hex_color="#000000ff"
     references="path20 path19 path12 path1 path25 path26"
     transform="translate(-34492.979,-22456.853)" />
  <g
     type="op engrave"
     label="Engrave ({percent}, {speed}mm/s)"
     lock="False"
     speed="20"
     color="#0000ff00"
     frequency="30.0"
     dangerous="False"
     coolant="0"
     allowed_attributes="['stroke']"
     id="E1"
     power="1000"
     hex_color="#0000ff00"
     output="True"
     dwell_time="50.0"
     transform="translate(-34492.979,-22456.853)" />
  <g
     type="op engrave"
     lock="False"
     speed="35.0"
     color="#b3b3b3ff"
     frequency="30.0"
     dangerous="False"
     coolant="0"
     allowed_attributes="['stroke']"
     id="meerk40t:8"
     output="True"
     power="1000"
     dwell_time="50.0"
     hex_color="#b3b3b3ff"
     references="path24"
     transform="translate(-34492.979,-22456.853)" />
  <g
     type="op cut"
     label="Cut ({percent}, {speed}mm/s)"
     lock="False"
     speed="1"
     color="#ff000000"
     frequency="30.0"
     dangerous="False"
     kerf="0.0"
     coolant="0"
     allowed_attributes="['stroke']"
     id="C1"
     power="1000"
     hex_color="#ff000000"
     dwell_time="50.0"
     transform="translate(-34492.979,-22456.853)" />
</svg>
