<?xml version="1.0" encoding="UTF-8" standalone="no"?>
<svg
   version="1.1"
   width="96mm"
   height="96mm"
   viewBox="0 0 247691.27 247691.17"
   id="svg1"
   sodipodi:docname="meerk40t.svg"
   inkscape:version="1.3 (0e150ed6c4, 2023-07-21)"
   inkscape:export-filename="meerk40t.png"
   inkscape:export-xdpi="270.93332"
   inkscape:export-ydpi="270.93332"
   xmlns:inkscape="http://www.inkscape.org/namespaces/inkscape"
   xmlns:sodipodi="http://sodipodi.sourceforge.net/DTD/sodipodi-0.dtd"
   xmlns="http://www.w3.org/2000/svg"
   xmlns:svg="http://www.w3.org/2000/svg">
  <sodipodi:namedview
     id="namedview1"
     pagecolor="#ffffff"
     bordercolor="#000000"
     borderopacity="0.25"
     inkscape:showpageshadow="2"
     inkscape:pageopacity="0.0"
     inkscape:pagecheckerboard="0"
     inkscape:deskcolor="#d1d1d1"
     inkscape:document-units="mm"
     inkscape:zoom="4.6279203"
     inkscape:cx="230.98928"
     inkscape:cy="203.43911"
     inkscape:window-width="3840"
     inkscape:window-height="2054"
     inkscape:window-x="-11"
     inkscape:window-y="-11"
     inkscape:window-maximized="1"
     inkscape:current-layer="g1"
     showgrid="false" />
  <defs
     id="defs1">
    <inkscape:path-effect
       effect="fill_between_many"
       method="originald"
       linkedpaths="#path1-9,0,1"
       id="path-effect3"
       is_visible="true"
       lpeversion="0"
       join="true"
       close="true"
       autoreverse="true" />
    <inkscape:path-effect
       effect="fill_between_many"
       method="originald"
       linkedpaths="#path1-9,0,1"
       id="path-effect4"
       is_visible="true"
       lpeversion="0"
       join="true"
       close="true"
       autoreverse="true" />
  </defs>
  <g
     inkscape:label="Ebene 1"
     label_display="False"
     id="g1">
    <path
       id="circle_yellow-1"
       style="fill:#999999;stroke-width:6044.92"
       d="M 243146.39,109490.94 A 112235.34,112235.34 0 0 1 130911.05,221726.28 112235.34,112235.34 0 0 1 18675.708,109490.94 112235.34,112235.34 0 0 1 130911.05,-2744.4077 112235.34,112235.34 0 0 1 243146.39,109490.94 Z" />
    <path
       id="circle_yellow"
       style="fill:#ffeeaa;stroke-width:5905.95"
       d="M 240693.07,109699.68 A 109654.96,109654.96 0 0 1 131038.11,219354.63 109654.96,109654.96 0 0 1 21383.148,109699.68 109654.96,109654.96 0 0 1 131038.11,44.722008 109654.96,109654.96 0 0 1 240693.07,109699.68 Z" />
    <path
       id="mk_background_white"
       d="M 69563 -393 C 69086.9 -801.61 76038.3 7796.65 78298.6 10220.7 C 83432.9 18925.5 98947.7 26693.2 98478.3 35496.3 C 95246 40079.2 97540.8 43912.2 88826.5 44161.5 C 83025.7 45973.5 82123.4 50851.1 81411.9 55188 C 81239.9 60864 82258.1 64762 84229.2 66529.1 C 83432.2 66265.5 85578.4 71691.8 91201.1 73601 C 86105.3 71393.1 93925 75941.7 93554.4 74954.3 C 94243.8 76154.1 94647.3 77985.1 95109 77181 C 97785.8 82408.1 99327.2 82149.3 102013 85204.8 C 101960 82633.7 108533 91666.3 101350 89870.1 C 94838 96436.8 85241.2 96878.3 77929.3 103955 C 73187.1 111173 68944.8 117334 59916.2 119046 C 55197.8 121764 50417.9 124079 44816.5 123191 C 36639.2 126664 23596.1 138706 35084.6 145939 C 27663.2 157688 18333.7 168187 11483.7 180299 C 7237.17 188531 12108.6 184618 16332.6 180861 C 28346.4 171658 45881.4 164976 59374.9 175423 C 63776.1 189103 73510.7 179947 79616.1 174785 C 86614.2 178554 88037.9 188511 97787.6 189123 C 106930 192122 105278 198468 105829 206599 C 111630 222118 128836 209487 123483 197995 C 119164 186438 126892 193853 133413 192640 C 151602 183577 133710 210072 147606 214337 C 165714 213361 154931 196297 166147 190032 C 176687 191988 182731 172178 191049 179090 C 197373 192806 202541 175585 209139 172307 C 225090 165044 245753 174497 256513 187100 C 254942 175071 242355 162838 234891 152029 C 227522 146311 232252 143649 235384 138237 C 231851 126913 218835 120975 208105 120046 C 195564 117549 191577 107452 182483 100406 C 175683 94092.5 167637 91702.2 159796 88439.2 C 161012 85782.7 161192 87036 163335 85294 C 164821 84240.5 168778 79380.9 170251 78722.9 C 170648 75805 170916 76698.8 173332 74491 C 181712 69595.9 178882 67795.5 182421 64277.4 C 184044 59413.6 181563 51941.9 180418 49876.1 C 182122 46567.1 172442 44144.7 168602 40885.5 C 171686 42808.7 167643 37099.9 165402 34509.6 C 170773 29079.5 176080 23404.3 181540 17880.7 C 187427 11926.4 192518 6174.82 197528 408.3 L 188186 6103.85 C 183128 9708.98 172332 19926 166393 25833.8 C 162083 32901.2 158739 26477.7 157024 24734.5 C 150294 21488.7 141545 20138.8 132293 20505.4 C 122552 20891.4 120425 20961.8 108199 24819.7 C 109849 25154.6 102590 27358.6 106842 27096.3 C 100709 29616.7 106658 26379 103646 28628.4 C 95229.2 20222.2 87072.9 11905.9 78132.8 4050.73 C 75415.1 2500.65 73479.6 1374.78 71048.7 219.34 C 68895.7 -1960.23 69990.7 -25.83 69563 -393 Z M 87683.8 71550.4 L 87683.8 71550.4 Z"
       style="fill:#ffffff;stroke:#ffffff"
       inkscape:label="White background meerk40t" />
    <path
       d="M 195960 1656.3 L 189248 8978.63 L 160220 38268 L 156907 42975.2 L 156123 49164.3 L 150892 50907.7 L 146795 48815.6 L 145292 47050.4 L 144442 45067.3 L 145335 41689.4 L 149890 38202.6 L 154052 37548.8 L 154423 39226.9 L 166845 27633.2 L 179528 14971.6 L 185935 8695.33 L 186829 7867.21 Z"
       stroke_scale="True"
       mktablength="5160.23622047244"
       mktabpositions=""
       type="elem path"
       id="Right_Laserbeam_red"
       lock="False"
       label_display="False"
       hidden="False"
       stroke-linecap="butt"
       stroke-linejoin="miter"
       fill-rule="evenodd"
       stroke="none"
       stroke-width="1.6"
       fill="#ff0000"
       inkscape:label="r_beam_red" />
    <path
       d="M 71480 1046.1 L 78889.5 5578.98 L 112276 39052.5 L 112101 37134.8 L 115240 37134.8 L 120296 40708.8 L 120812 43486.3 L 120689 44441.8 L 120011 46167.6 L 118439 48725.7 L 116282 49742.7 L 113231 49280.4 L 108361 44873.2 L 109009 42407.7 L 111043 42962.4 L 92550.9 22683.2 Z"
       stroke_scale="True"
       mktablength="5160.23622047244"
       mktabpositions=""
       type="elem path"
       id="red_beam_l"
       lock="False"
       label_display="False"
       hidden="False"
       stroke-linecap="butt"
       stroke-linejoin="miter"
       fill-rule="evenodd"
       stroke="none"
       stroke-width="1.6"
       fill="#ff0000"
       inkscape:label="Left Laserbeam red" />
    <path
       d="M 28446 153081 C 22801.6 139736 19680.4 125064 19680.4 109663 C 19680.4 94262.5 22827.1 79616.1 28484.2 66284 C 34141.3 52951.9 42308.8 40934.3 52350.4 30791 C 57313 25778.2 62749.6 21249.6 68606.5 17271.4 C 71534.9 15282.4 72999.4 14128.3 76131.3 12422.8 M 85815.7 7752.18 C 99103.9 2130.44 115428 -1721.6 131223 -1879.01 C 146623 -2032.47 161295 1242.19 174640 6886.54 C 177976 8297.63 178004 8558.85 181165 10276 M 187492 13397.6 C 189026 14329.2 192104 16168.4 193587 17170.7 C 199521 21179.7 205049 25744.7 210095 30791 C 230280 50976.2 242765 78861.7 242765 109663 C 242765 125064 240877 137517 235232 150862 M 223715 172028 C 219706 177962 215141 183489 210095 188536 C 189910 208721 162024 221206 131223 221206 C 100421 221206 72535.6 208721 52350.4 188536 C 47304.1 183489 42739.1 177962 38730.1 172028"
       stroke_scale="True"
       mktablength="5160.23622047244"
       mktabpositions=""
       type="elem path"
       id="path24"
       lock="False"
       label_display="False"
       hidden="False"
       stroke-linecap="butt"
       stroke-linejoin="miter"
       fill-rule="evenodd"
       stroke="#b3b3b3"
       stroke-width="1.53712"
       fill="none" />
    <path
       d="M 115039 47557.4 C 121966 46863.5 114524 34342.1 119087 43454.5 C 121556 46784.9 111185 48744.3 115039 47557.4 Z"
       stroke_scale="True"
       mktablength="5160.23622047244"
       mktabpositions=""
       type="elem path"
       id="path20"
       lock="False"
       label_display="False"
       hidden="False"
       stroke-linecap="butt"
       stroke-linejoin="miter"
       fill-rule="evenodd"
       stroke="none"
       stroke-width="0.374744"
       fill="#000000"
       inkscape:label="Left Eye black" />
    <path
       d="M 148680 47948.1 C 142540 44919.2 151777 35516.2 146842 44379.8 C 146184 47537.3 154587 49073.5 148680 47948.1 Z"
       stroke_scale="True"
       mktablength="5160.23622047244"
       mktabpositions=""
       type="elem path"
       id="r_eye_black"
       lock="False"
       label_display="False"
       hidden="False"
       stroke-linecap="butt"
       stroke-linejoin="miter"
       fill-rule="evenodd"
       stroke="none"
       stroke-width="0.374744"
       fill="#000000"
       inkscape:label="Right Eye Black" />
    <path
       d="M 148612 213878 C 134716 209613 152681 181937 134271 191959 C 127750 193172 118105 185020 122424 196577 C 127408 207921 112636 222101 106835 206581 C 106284 198451 107937 192104 98794.5 189106 C 89044.8 188493 86883.7 177356 79885.7 173587 C 73411.5 178307 64783.3 189085 60382 175406 C 47626.1 164295 28246.7 170608 16232.8 179812 C 12008.8 183569 8243.38 188513 12489.9 180282 C 19339.9 168169 28669.4 157671 36090.8 145921 C 24602.3 138689 37645.8 126646 45823.1 123174 C 51424.5 124061 56204.7 121747 60923.1 119029 C 69951.7 117317 74193.3 111157 78935.5 103939 C 86247.4 96861.9 95844.2 96419.8 102356 89853.1 C 109539 91649.3 102966 82617.1 103019 85188.2 C 100333 82132.7 98792.8 82391.1 96116 77164 C 95654.3 77968.1 95250.1 76137 94560.6 74937.3 C 94931.3 75924.6 87111.2 71376.2 92207.1 73584.1 C 86584.3 71674.9 84438.9 66247.9 85235.9 66511.5 C 83264.9 64744.4 82246 60847.2 82418 55171.2 C 83129.5 50834.3 84032.1 45957.1 89832.8 44145 C 98547.2 43895.7 96252.4 40062.8 99484.7 35479.9 C 99954.1 26676.9 84439.5 18908.3 79305.2 10203.5 C 76291.4 6971.47 65935.5 -4710.4 74547.3 4007.85 C 87383.2 17170.6 100695 29980.2 112481 44091.6 C 103165 38963.6 115694 56009.8 119587 46125.1 C 125418 39750.5 106669 34107.7 113964 40946.2 C 101316 29968.6 89789 17464.3 78389.1 5144.53 C 87329.2 12999.7 95571.2 21606.6 103988 30012.8 C 107000 27763.4 101871 29417.9 108004 26897.5 C 103752 27159.8 110934 25398 109283 25063.1 C 112873 23752.7 118264 22564.6 119705 21767.5 C 123153 21783.5 122253 20589.7 125899 20957 C 127685 20383.3 130138 21902.9 131800 20803.1 C 133197 21017.5 135089 21594.5 138327 20956.4 C 141909 20628.1 140336 21082.4 143184 21222 C 144200 22466 147218 22487.2 151750 23314.9 C 153618 24655.7 156790 24913.7 158030 26986.5 C 159745 28729.8 163089 32883.9 167400 25816.5 C 173338 19908.7 181892 11360.7 186950 7755.57 C 175543 19508.3 164291 31528.9 151884 42219.4 C 161030 32145.6 135946 43427.1 148424 49145 C 154281 52682.9 158977 40017.2 153714 44577.5 C 167110 29365.3 181772 15275.9 196397 1252.11 C 186377 12785.1 175586 23633 164844 34493.3 C 167085 37083.6 171128 42791.3 168043 40868.2 C 171884 44127.4 183129 46550 181425 49859 C 182570 51924.8 183649 58879.9 182026 63743.7 C 178487 67261.8 181759 68767.2 173379 73662.2 C 170963 75870 170400 74976.9 170003 77894.7 C 168531 78552.7 164795 83559.2 163309 84612.6 C 161535 86649.7 159215 85691.7 159253 88938.2 C 167095 92201.2 175878 95256.1 182678 101569 C 191772 108615 196571 118785 209111 121283 C 219841 122212 230350 126895 234547 137998 C 231415 143410 227274 147179 234643 152897 C 242107 163705 251524 173505 256192 185977 C 245432 173374 226097 165027 210146 172290 C 203547 175568 198380 192789 192056 179073 C 182853 168768 177545 191085 167006 189130 C 151217 192297 166720 212902 148612 213878 Z M 110663 208111 C 110754 203670 109303 186156 107693 199897 C 107356 207296 109172 206968 109176 200568 C 108929 198027 111151 216012 110663 208111 Z M 154809 209036 C 155844 202832 156497 197319 156516 207323 C 159726 203497 155806 187109 155162 199451 C 156412 199968 152411 215254 154809 209036 Z M 154767 197750 C 154239 191315 154277 208461 154767 197750 Z M 110957 195566 C 110460 200559 111593 203280 110957 195566 Z M 112147 199610 C 111722 199937 112525 201296 112147 199610 Z M 160363 191634 C 176300 184223 178394 162835 171258 148504 C 166603 158874 166774 170658 161138 180655 C 165042 178042 167627 161296 167861 165034 C 168609 170183 162179 182070 162369 182148 C 166754 179141 169186 163887 169406 164423 C 169890 170547 163791 183503 162347 184575 C 166560 179900 171656 174316 165569 182890 C 158548 192999 176417 169562 167826 182255 C 162858 189154 166757 185131 169757 180867 C 169206 186298 153759 193874 164541 188262 C 161414 193678 144638 190919 158141 192346 L 160363 191634 Z M 166255 182412 C 167366 180802 165710 184122 166255 182412 Z M 165950 179710 C 168925 174562 172036 159341 168866 173668 C 168216 175803 167508 178039 165950 179710 Z M 168053 161679 C 168259 160078 168259 163280 168053 161679 Z M 111469 192123 C 116292 192481 96755.9 189066 103275 189348 C 107050 191758 92137.3 181081 94573.4 176240 C 95348.8 182192 106299 191948 97671 181485 C 93527.1 170323 97358.3 181852 101674 184857 C 96454.5 182019 93413.7 157984 96575.9 172690 C 96520.1 178238 106995 189950 99485.1 178707 C 97043.6 172658 94458.9 157949 97984.9 171904 C 98475.1 177149 107968 188604 101107 178000 C 98252 174220 95957.1 155016 98870.5 168394 C 99620.5 173611 107886 187002 101688 174907 C 98697.2 167878 97585.2 151605 93591.2 149606 C 87234.2 163654 89895.6 183247 104361 191138 C 106483 192407 109092 192569 111469 192123 Z M 95656.1 162702 C 95861.8 161101 95861.8 164304 95656.1 162702 Z M 157948 191200 C 156934 190662 157710 191776 157948 191200 Z M 107237 190843 C 104629 189714 107936 191894 107237 190843 Z M 158971 190944 C 157958 190406 158733 191520 158971 190944 Z M 141773 183306 C 152563 179754 163022 171002 164657 159249 C 159590 168995 150009 175588 139889 179418 C 146796 178412 153877 172500 157782 169054 C 154375 174355 142952 179419 141161 180732 C 146135 179366 158188 172345 147547 178892 C 142276 181462 136166 184041 145455 180730 C 151498 178607 134514 185797 141773 183306 Z M 123976 183082 C 118125 180239 115495 177822 122859 181670 C 128429 184414 103222 170118 117269 177691 C 121102 179949 131336 182880 121760 179176 C 116962 178535 101616 163922 112135 172817 C 116058 176832 131564 181688 118664 176203 C 111630 174683 102505 160241 100958 161382 C 104487 172236 114350 180314 125016 183657 L 123976 183082 Z M 135889 172279 C 147256 163474 158147 153674 166281 141718 C 161020 136333 155793 130914 150521 125540 C 138721 126803 126771 126872 114971 125575 C 110427 132797 93053.4 140146 104105 148421 C 112660 158043 122147 167052 132689 174468 L 133788 173824 L 135889 172279 Z M 128995 170302 C 123445 167606 121350 163034 122458 157237 C 122693 150950 120929 135398 125457 149729 C 126945 153929 130700 166561 135720 159572 C 138370 154932 144095 134897 142996 149449 C 142544 154696 143679 160693 142406 165571 C 138132 167758 133359 176334 128995 170302 Z M 110138 153180 C 103031 147521 97952.7 140389 107786 134759 C 111909 129607 116099 124794 123204 127590 C 132124 127913 141081 127871 149959 126862 C 154684 132048 160530 136596 164380 142310 C 161610 145070 152327 159931 151637 154265 C 151632 146737 151626 139210 151621 131683 C 142824 130619 136533 133408 134835 142917 C 130765 154584 129664 133619 124274 132116 C 121078 133062 113756 129811 113754 134006 C 113713 141615 113672 149224 113632 156833 C 112467 155615 111303 154398 110138 153180 Z M 22943.5 171078 C 31178 164967 39296.6 158644 46607 151434 C 38253.9 157983 30441.5 165291 21634 171209 C 29906.2 162146 40796.4 155862 48909.4 146621 C 44987.1 150520 25605.8 165025 38627.3 154171 C 42342.4 151329 55509.6 138031 45336.6 147166 C 42007.9 150187 30455.5 159404 40382.4 150751 C 46295.8 147000 54333.1 137255 41774 140097 C 35066.9 152002 26267.9 162558 18914.8 174049 C 20273.5 173080 21605.1 172074 22943.5 171078 Z M 44816.2 145331 C 47755.6 142345 47134.6 143998 44651.4 145611 Z M 246914 173263 C 239274 162063 230788 151303 223502 139950 C 213526 137618 215804 144132 221910 147590 C 225125 150309 238728 161922 227616 153074 C 223339 149701 210228 138571 221013 148610 C 225044 152200 239594 164658 227417 155141 C 223832 152293 210715 141364 220807 150639 C 226660 156388 242715 167720 242591 170092 C 236033 165534 223141 153916 221122 153220 C 228568 159898 240401 169921 246914 173263 Z M 221816 146447 C 215662 141346 216584 141002 222096 146266 L 223406 147560 Z M 150788 165430 C 156950 162502 167087 148589 167094 149293 C 163516 154885 159126 159259 157887 161296 C 149905 170384 170678 148055 160367 160725 C 154953 166990 159652 162878 162305 159486 C 159556 163474 154184 168913 161261 162476 C 167309 158318 172073 142675 169093 140224 C 168339 145968 159109 154402 159033 155801 C 163585 153661 173119 134605 166214 148641 C 164889 153474 147667 167531 150788 165430 Z M 163901 155945 C 167500 150539 167596 152311 163901 155945 Z M 117229 166053 C 113350 162555 101552 153332 111882 162082 C 113364 163374 116042 165477 117229 166053 Z M 156738 164464 C 155319 164884 155148 166321 156738 164464 Z M 106611 163044 C 103303 160098 100671 155237 105503 161324 C 102675 157489 93859.8 145672 101744 155628 C 105326 160853 114960 168659 105745 159419 C 102401 155870 93894.3 142702 101358 152981 C 104343 157931 117359 169201 107044 158690 C 101848 155515 93122.9 133656 96515.5 149295 C 97275.4 155407 105654 163724 108246 164606 Z M 107365 162878 C 105824 161175 104758 160684 107365 162878 Z M 107217 156243 C 103363 151785 95973.1 143778 103582 152973 C 103403 152769 108936 158536 107217 156243 Z M 36502 143600 C 34896.1 140114 35265.9 144581 36502 143600 Z M 230010 143283 C 232838 137865 222730 135776 228747 142436 C 232122 141131 227140 144615 230010 143283 Z M 37319.1 142045 C 42954 133105 30418.5 142142 36782.5 142706 L 37319.1 142045 Z M 39149.2 142045 C 41281.1 137459 36916.6 145177 39149.2 142045 Z M 97715.9 142301 C 94285.6 135705 96651.4 142004 97715.9 142301 Z M 226613 141416 C 224765 139056 228199 144654 226613 141416 Z M 231015 140563 C 230195 139556 231294 141831 231015 140563 Z M 169061 138925 C 171638 134193 164771 144215 169061 138925 Z M 34127.9 137159 C 33847.5 127036 31418.4 147936 34127.9 137159 Z M 32920.5 138670 C 33368.9 137325 33318.2 139610 32920.5 138670 Z M 232793 140029 C 234172 137820 228553 128776 231528 138047 C 231183 137644 231901 140932 232793 140029 Z M 99434.1 139730 C 98084.4 137012 98563.9 140722 99434.1 139730 Z M 54025.8 139178 C 52631.3 137836 40312.1 136643 50425.6 139106 L 51843.4 139353 L 54025.8 139178 Z M 217383 138402 C 225410 135533 203696 140306 214905 139155 Z M 59160.2 138478 C 63183.3 132809 61625.5 130288 63874.9 132549 C 64067.2 130867 65403.7 133125 65241.5 130725 C 66992.8 133143 65622.1 129499 67443.8 131973 C 65710.8 126422 69616.7 135114 68075.5 129173 C 70950.4 136165 67891 124484 70588.5 131403 C 72474.2 131574 68981.6 123779 72246.1 130149 C 67783 118537 76707.7 135510 77950.3 132483 C 72573.4 130904 70472.8 117813 74706.4 128258 C 81146.6 138555 68926.3 114781 75828.4 126907 C 77106.9 128482 71568.8 115674 76704.6 125197 C 80748.9 130789 71881.5 114661 77065.7 122266 C 74024.5 114616 83806.2 133832 78371.2 122238 C 74252 111487 84236 131560 79006.7 120141 C 77156.9 114901 85341.3 130445 80201.1 119589 C 79610.3 117607 87368.5 129797 82939.7 121694 C 77164.9 109794 88676.8 129921 84140.9 120770 C 79744.7 112138 91798.8 132230 85483 120108 C 80253.2 109115 93723.2 132184 87303.3 119679 C 82363.6 109399 97371 134483 90476.6 121354 C 87178.8 115150 87122.1 113766 90797.4 120236 C 96538.6 127134 102750 143418 109944 128886 C 112848 123268 118116 124375 123398 125046 C 132577 125484 141783 125222 150921 124258 C 154758 128106 158595 131954 162432 135802 C 167422 130408 175926 118018 177407 116379 C 174812 121641 170853 129372 177331 119980 C 184074 108343 170795 133784 179748 119815 C 186287 107553 174058 132091 181623 120747 C 188096 110609 176784 130349 183457 121771 C 189124 110831 179328 130873 185965 120049 C 189035 114957 181790 129738 187030 120594 C 191080 114193 181306 133325 187892 122328 C 192398 114928 182427 133439 188924 122986 C 192783 115549 185390 131994 191404 122538 C 188200 129174 187428 132871 191530 124378 C 192759 127572 181299 138383 190812 129096 C 194233 122599 192577 125632 191852 130119 C 193243 125384 192536 135109 193502 128820 C 194015 132112 194271 128150 194848 130968 C 196011 127923 196339 134610 198320 129957 C 197731 133030 199061 130615 199147 131634 C 199906 129542 199393 134158 200418 131263 C 200927 133340 201341 129007 201774 132564 C 201563 128023 206016 141568 202294 135053 C 206708 143557 202290 128373 205166 137069 C 211777 142923 199754 129674 207862 127180 C 215235 121099 196177 119581 192175 116069 C 185961 111894 178565 101182 170316 106674 C 159215 112521 147824 118189 135663 121349 C 147763 119743 116361 118739 128982 121491 C 115053 117384 102743 109359 89266.8 104231 C 79605.7 108515 72837.2 118044 62086.2 120654 C 55023.8 123049 53907.1 125141 59445 130341 C 66203 134312 52475.5 140794 59160.2 138478 Z M 101408 132196 C 97351.5 129726 88219.8 111008 95137.6 122521 C 95669.7 124351 107740 138232 101408 132196 Z M 162917 132492 C 166280 129116 177241 111365 170426 123679 C 169685 125579 160305 136688 162917 132492 Z M 101216 128651 C 97464.1 124897 92240.8 114111 98254.5 123920 C 99289.6 125657 105959 133834 101216 128651 Z M 163290 129446 C 166637 124632 173476 115296 166428 125736 C 165372 126955 164577 128434 163290 129446 Z M 193087 128039 C 193879 124756 193218 129669 193087 128039 Z M 57811.9 126559 C 53919 123249 59524.2 127114 57811.9 126559 Z M 208357 125263 C 206949 124473 212670 124250 208357 125263 Z M 206602 125004 C 209139 122795 207521 124936 206602 125004 Z M 55177 124579 C 57511.2 123205 58959.5 125618 55177 124579 Z M 58454.7 123643 C 59576.2 123277 58565.5 124135 58454.7 123643 Z M 129045 123649 C 130454 123233 129301 124096 129045 123649 Z M 135574 123641 C 137260 123262 135901 124065 135574 123641 Z M 136976 123393 C 138385 122978 137232 123841 136976 123393 Z M 129829 121597 C 130950 121230 129940 122089 129829 121597 Z M 147758 120981 C 151917 119410 144230 122713 147758 120981 Z M 119573 119993 C 114461 118639 101995 110706 113656 116859 C 115070 117538 127856 122742 119573 119993 Z M 141645 120921 C 146958 118922 165420 110746 151496 117664 C 148337 119057 145062 120360 141645 120921 Z M 149865 120117 C 154160 117898 150922 120260 149865 120117 Z M 70462.3 117509 C 71871.1 117094 70718 117957 70462.3 117509 Z M 193768 117509 C 195177 117094 194024 117957 193768 117509 Z M 66305.2 137853 C 72248.2 136690 74375.4 133072 69941.8 135478 C 69368.9 134881 67493.3 134586 66033.5 136240 C 65240.4 134393 63112.2 137675 62826.2 136045 C 55882 141214 61811.6 138165 66305.2 137853 Z M 100969 138701 C 98242 134533 97817.3 137648 100969 138701 Z M 167310 136545 C 173167 128721 165875 135597 165439 138911 L 166082 138216 Z M 204983 138508 C 198344 133512 200988 137332 196441 134562 C 197336 136857 193474 132177 195075 135771 C 182470 130482 207882 142608 204983 138508 Z M 57522.4 136147 C 61221.5 129025 51973.2 133732 55569.7 137632 C 54844.8 134985 52971.4 135523 55500.4 137838 L 56377.6 137449 L 57522.4 136147 Z M 61579.4 136801 C 63240.1 130699 59356.5 140779 61579.4 136801 Z M 210770 137440 C 213920 134051 203772 138582 210770 137440 Z M 100548 134878 C 95049.1 128645 95612.4 130874 100316 136105 C 101952 139396 103819 135506 100548 134878 Z M 165423 135346 C 172876 125377 158649 140928 165423 135346 Z M 209693 136775 C 214198 131418 203076 130729 207772 136353 C 206035 132575 209484 138334 209693 136775 Z M 37299.3 136380 C 40523.3 130516 37981.6 126944 35909.1 134917 C 38080.1 133937 34431.3 137921 37299.3 136380 Z M 229199 135948 C 229782 136347 228291 128363 226701 130661 C 225621 132718 230501 139075 229199 135948 Z M 42003.9 135440 C 44004.5 132052 50394.5 119670 42846 126962 C 47856.6 125180 34131.3 135364 42130.1 134385 C 41212.6 134756 39925 136601 42003.9 135440 Z M 224957 135401 C 225274 134175 224420 128420 221717 126504 C 223034 124445 213792 123152 220498 128510 C 222177 130308 221464 135979 224957 135401 Z M 48200.5 134125 C 49494.1 126891 50874.5 131824 51862.4 131010 C 52340.7 130594 52069.1 131762 55069.1 130569 C 61277 127657 45251 122124 47944 127177 C 42173.1 132782 48394.4 133144 46730.9 134983 L 48200.5 134125 Z M 71500.2 134172 C 70776.2 134666 71196.2 135284 71500.2 134172 Z M 218997 134449 C 218508 132937 221791 130995 218037 127011 C 213070 119827 205914 132041 212134 131109 C 213022 131646 214211 130974 215176 130452 C 214853 127192 219805 137620 218997 134449 Z M 213295 131066 C 212549 129408 213700 130265 213295 131066 Z M 57434.1 131422 C 61214.3 130447 51788.5 131233 57434.1 131422 Z M 208776 131188 C 211451 127578 203850 133048 208776 131188 Z M 40634.3 129957 C 41295.7 127489 38793 132595 40634.3 129957 Z M 89712.9 130469 C 83696.4 128990 82152.9 130571 89712.9 130469 Z M 180233 130113 C 181014 128809 169927 131675 179014 130452 L 180233 130113 Z M 225074 129889 C 224288 129266 225836 131263 225074 129889 Z M 40680.7 127926 C 39087.3 128810 40663.3 130169 40680.7 127926 Z M 225810 128729 C 224740 126740 223900 128769 225810 128729 Z M 137424 116644 C 152657 115177 165493 105512 179429 100500 C 175576 99783.9 171690 101293 177587 99003 C 165525 100353 156748 111253 144788 113719 C 130938 118093 115167 115247 104670 104903 C 101308 101885 92046 94930 101065 100854 C 104199 103164 119799 114743 109808 105910 C 119822 114606 134158 117644 146384 111726 C 155185 108787 162310 102663 170066 98082.6 C 164461 102881 180232 95544.2 169711 95329.2 C 160713 99619.4 153762 108598 143789 111883 C 130338 118149 116563 110503 106446 101803 C 104374 96375.6 86638.1 94323.6 96965.7 99284.4 C 101383 102644 110782 111318 99839.8 104327 C 96175.7 101912 89007.1 99643.3 91144.5 99404.9 C 79423.6 100121 102267 104424 105479 108393 C 93242.9 103859 113577 112758 117454 114110 C 123866 116115 130696 117299 137424 116644 Z M 158397 108219 C 162982 105038 173878 102277 163235 107019 C 162010 107273 159200 108868 158397 108219 Z M 139022 112035 C 144359 109704 142233 108722 145482 107050 C 138030 108979 152207 103749 143819 105649 C 152965 102576 139179 106067 146635 103118 C 149220 101468 144500 102369 150320 99384.5 C 144348 101418 147376 100374 150350 97692.5 C 146297 99113.1 157554 91936.8 148782 96733.2 C 145545 97632.9 154740 93206.2 147214 96189 C 150264 93878.5 151882 91872.3 147017 95063 C 152130 91508.8 153602 90498.5 147145 93229.4 C 155011 88849.1 141359 95131.1 149792 89788.9 C 141152 94489 146573 91527.9 151092 87392.6 C 143988 91671 147285 89217.5 148860 87464.5 C 146270 88592.1 140381 92747.3 145408 87935.5 C 141621 89984.1 142085 89841.3 140877 89793.5 C 140915 88588.1 138735 90702.8 138025 91087.6 C 139413 86909.8 135185 95790.5 137034 89456.5 C 135327 93421.7 135592 87877.4 134006 93247 C 133740 89374.7 132394 94161.3 131156 91486.4 C 130709 93040.8 129815 91269 128688 90878.2 C 127294 89021.8 129395 94604.4 126398 89286.9 C 129166 96092 122894 84990.2 125749 91496.3 C 123241 88072.5 122134 87247.5 124655 91413.3 C 119573 85641 124669 92847.3 119681 88176.3 C 125446 94392.2 111584 83296.2 118548 89793.4 C 112843 86284.2 115730 88618.5 117005 90050.7 C 115720 90304 123717 94453.7 115679 90504.1 C 124113 96518.6 107775 87371 116829 93591.7 C 111987 91609.5 123535 98833.6 115039 95039 C 123812 100392 106664 90674 116510 97523.4 C 121050 100268 110499 95390.7 117198 99205.4 C 124075 102845 109529 96917.2 118211 101292 C 122095 103261 112959 100707 120283 103351 C 114344 102690 127927 106009 118446 104464 C 125305 107265 115273 103976 121818 107431 C 120133 107282 119899 107523 124450 109747 C 119011 108417 126230 111473 126978 112052 C 130929 112776 135054 112485 139022 112035 Z M 132500 111154 C 132743 109484 132658 113143 132500 111154 Z M 132504 107189 C 132700 105136 132700 109242 132504 107189 Z M 145418 102415 C 146826 102000 145673 102863 145418 102415 Z M 132494 100282 C 132700 98681.1 132700 101883 132494 100282 Z M 132494 96700.6 C 132700 95099.6 132700 98301.6 132494 96700.6 Z M 76858.1 109153 C 82081.9 106146 88054.7 100699 78856.6 106560 C 78418.1 106497 73916.5 111688 76858.1 109153 Z M 152645 106058 C 157640 102647 162905 95413.1 162656 97945 C 169758 93437.3 160898 88215.1 160349 96826.3 C 160002 99503.7 143439 112826 152645 106058 Z M 187089 107227 C 176120 99933.9 184905 108002 187089 107227 Z M 180018 102058 C 178852 101593 175119 102984 180018 102058 Z M 94317.7 100666 C 91462.2 99232 95925 102033 94317.7 100666 Z M 158381 98120.7 C 162403 91972.6 156712 87745.3 157352 96584.4 C 160655 91750.1 153991 104834 158381 98120.7 Z M 107276 98056.1 C 103715 89688.7 109151 99562 107824 95494 C 106172 83221.8 103379 98836.5 107276 98056.1 Z M 101488 95568.2 C 103971 91179.3 99674.5 89973.6 100744 95460.4 L 101597 96326.4 L 101488 95568.2 Z M 115423 89793.4 C 114505 88819.4 115105 90801.9 115423 89793.4 Z M 132286 83360 C 132032 80118.3 133606 85867.3 133709 82758.3 C 133956 88740.5 135280 77590.4 134572 84084.8 C 137466 79282 134311 87520.2 137698 81351.3 C 136410 85954.4 139151 80963 139667 81706.9 C 141780 77740.2 138008 88372.5 141421 80851.9 C 142007 80062.7 141117 84775.7 143277 79934.4 C 142255 84618.9 147577 74261 143691 82504 C 148781 75645.7 141799 87727 147415 80230 C 143135 86894.6 152620 75869.7 148029 83014.1 C 151242 79375.9 154100 75345.8 149903 82531.4 C 154855 75827.8 151201 82975.4 153671 80613.2 C 158562 71090.3 151020 88844.6 156725 78607.5 C 153524 86483.2 156803 79409.5 158170 80268.5 C 160185 73209.9 160417 74465 160308 79187.7 C 161380 73152 162281 74831.8 161186 80024.2 C 163327 75219.2 162818 71689.3 163180 79148.8 C 164069 72647.2 164368 69957 164516 78268.3 C 165320 77268.3 164945 65620.9 165962 76362.7 C 166557 79880.9 166065 65817.8 167534 75193.7 C 166429 66661.5 168056 75418.2 168343 73166.9 C 166174 66876.6 171465 75658.6 167884 68861.7 C 172677 76599.7 165722 62466 170985 70515.1 C 165611 61843.2 171849 70276 168728 65109.4 C 173370 68679.9 165897 61083.2 171312 66088.6 C 167776 62552.7 170686 64490.8 169502 62292.6 C 174528 67820.1 166824 58670.6 170483 61484 C 169203 59398.7 169027 58878.2 168643 57931.1 C 172088 58659.3 167555 55644.3 170169 56303.6 C 163413 52348.4 165389 56419.8 163453 56865 C 160982 57210.4 162645 58891.8 163773 59198.9 C 157987 57589.2 166075 61249 159040 58717.2 C 167406 62718.9 149130 56969.5 157627 60546.4 C 154505 59785.7 149835 57698.5 152840 60446.5 C 143904 57904.7 142389 46345.7 133595 43021.5 C 125120 42992.3 121319 54524.8 117275 57879.2 C 112673 60895.4 112169 60086.5 113527 58583.9 C 109078 59876.2 106187 60231.9 107896 59187 C 96651.6 61499.5 108366 58396.7 104295 58687 C 101667 58986 103590 57473.7 102230 57413.9 C 101511 56313.6 101079 56295.3 100608 55381.6 C 100912 52677.5 91667.9 57208.5 97229.7 56842.8 C 92858.9 59396.4 100636 56473.8 94981.9 59694.6 C 97083.5 59308.9 94963.3 61049.3 95307.6 61513.7 C 91423.5 65673.4 99163.2 58824.1 93860.4 64586.3 C 99482.3 58732.9 95613.5 65191.3 94797.2 64467.3 C 93196.8 68453.3 99934.6 59845 94833.1 66766.7 C 100433 61302.7 92251.9 72205.5 96832.6 67089 C 92976.2 72494.8 95407.8 70159.3 97950 66897.5 C 95624.6 70037.2 94477.2 75005.3 97817.4 68393.5 C 96398.5 71374.8 97248.5 78724 98096 71246.5 C 98816.1 79084.8 98695.4 74730.2 99833.4 70990.7 C 98943.1 74376.9 100082 80524.1 100188 73046.1 C 101042 79506.8 100857 76750.9 101875 72497 C 101887 84021.1 102753 71524.5 103284 76954.6 C 104561 84743.4 103247 68474 104839 78743.5 C 106022 82527.7 104347 68507.9 105764 77380.9 C 108452 84976.8 105030 71941.6 107808 80148.3 C 109665 83487.4 106480 73136.2 109379 81394.7 C 110420 82357 107635 72109.5 110110 80155.5 C 112002 83044.7 109371 75253.8 112074 80697.6 C 112838 79604 116414 85598.5 112643 78153.9 C 114283 80485.9 117690 85518 114315 78920 C 119583 85719.8 116171 79933.9 115979 79064.2 C 118419 82628.8 120498 84260.4 117808 79688.8 C 122768 85530.4 116012 74990.6 122786 82847.4 C 120267 76165.5 126313 87679.7 123668 80832.8 C 127446 87952.4 123037 76259.7 126979 83753.9 C 127617 83913.7 125837 79677.1 128849 84037.7 C 126177 77137 132961 90215.6 129915 81759.1 C 131687 85803.3 130866 81559.7 132370 85188.9 L 132285 83360.3 Z M 121019 80392 C 118433 76514.4 123274 83110.3 121019 80392 Z M 158073 79048.9 C 158773 73537.7 158295 80912.8 158073 79048.9 Z M 130084 77897.7 C 129347 77512.6 127688 76854.6 126791 77619.8 C 125313 75642.5 124993 75223.6 122737 73557 C 120580 71497.9 126906 72673.4 127575 72931.8 C 129031 73613.1 130756 73590.7 132350 73790.2 C 134133 73323.7 136264 74598.8 136757 72815 C 137939 73017.8 140292 72205.1 141925 72252.1 C 145119 73421.6 139435 74563.1 140217 75598.3 C 138985 74770.8 138932 77321.2 138084 76554.9 C 136233 77954.8 135874 77200.8 135102 77770 C 134477 78614.1 133161 76567.3 132436 78906.8 C 131666 77358.1 131148 78200.3 130649 78025.9 C 130629 79568.5 130386 79013 130084 77897.7 Z M 157044 77641.9 C 157323 76427 157194 79182.9 157044 77641.9 Z M 119572 70378.7 C 115960 68012.7 111803 67394.1 110868 66844.6 C 106469 68403.6 109686 64076.9 111623 64341.7 C 114206 63157.9 115949 65193.2 116627 65637.7 C 115671 66484.3 121066 66548.9 118365 67025.5 C 122040 71277.6 137624 63813.6 126388 67459.1 C 134311 63945.6 128287 66068.5 127118 66002.6 C 133238 63679.3 130920 63960.5 126367 65136.6 C 134083 62887.9 125648 64532.9 129005 63270.6 C 121611 62771.1 130094 63055.3 125208 61502.7 C 125940 61129.7 122185 56989.5 126758 61479 C 128467 64927.6 118963 49923.2 129188 49734.6 C 140432 44127.4 143097 61670.5 138654 62556.3 C 137692 60959.4 143183 58148.2 136402 62540.3 C 143810 64497.1 131946 61768.1 139127 64412.6 C 129923 61827.6 140435 65518.8 137255 64844.2 C 130367 62936.9 144183 67845.1 134850 65088 C 142744 68258.5 127166 62058.4 136475 67458.1 C 143128 70603.5 147203 65770.2 152028 64611.3 C 150332 62536.7 157874 64028.8 156739 67025.7 C 155998 67328.9 153657 67309.1 151566 67712.5 C 151434 68537.6 146678 70585.4 143666 70491.6 C 135256 68830.6 127978 70043.5 119572 70378.7 Z M 129458 59043.2 C 127809 57241 123405 59558.2 129458 59043.2 Z M 138299 58944.2 C 140594 56876.8 131024 60485.8 138299 58944.2 Z M 127188 52607.8 C 132189 53155.7 145970 54546.4 134851 50620 C 131941 47098.1 121974 56573.2 127188 52607.8 Z M 166819 68240.5 C 165067 66377.3 168985 70037.1 166819 68240.5 Z M 113504 68203.9 C 114503 67369.8 114530 68658.1 113504 68203.9 Z M 141261 67603.4 C 144355 65991.5 141725 68432 141261 67603.4 Z M 122714 67245.7 C 124406 66492.4 124403 67678.5 122714 67245.7 Z M 137551 67031.1 C 127297 63855.8 146524 68409.2 137551 67031.1 Z M 145354 66769.5 C 145663 65834.2 145985 67680.8 145354 66769.5 Z M 157217 65042.7 C 156329 63952.4 158889 66361.9 157217 65042.7 Z M 125736 64292.4 C 126857 63926 125846 64784.6 125736 64292.4 Z M 96620 60629.8 C 98494.8 59557.2 95985.7 61637.3 96620 60629.8 Z M 97153 55421.4 C 98156.2 54845.4 99547.5 55269.3 97153 55421.4 Z M 88689.6 71533.5 C 87825 70495.7 87480 70827 88689.6 71533.5 Z M 171192 62676.4 C 168837 60794.8 172570 64434.9 171192 62676.4 Z M 158705 55368.2 C 168660 55510.4 167172 35740.9 163879 36684.3 C 167958 43809.1 163460 53752.3 158705 55368.2 Z M 169913 55098.7 C 164127 51386.6 170766 56873.6 169913 55098.7 Z M 98577.1 53910.5 C 96480.9 53572.6 98009.8 51301.5 96875.9 50087.9 C 96614.9 49681.6 97354.4 47688.7 94917.5 45397.3 C 90004.1 44450.4 88403.6 46723.6 87871.2 48423.9 C 83892.6 49850.5 96217.6 48434.7 86515.1 50127.5 C 90979.5 48117.6 93981.2 52396.3 94686.4 54362.2 C 94222.2 55427.8 96965.2 55045.7 98577.1 53909.9 Z M 108254 54911.7 C 98332.7 53043.2 99688.1 40599 102220 35140.6 C 94098.3 41920.9 102335 57439.9 109660 55297.8 C 109191 55169.1 108723 55040.4 108254 54911.7 Z M 170716 54618 C 170517 48752.9 182628 50647.6 174433 49155.9 C 180324 49029.1 174901 46785.4 176692 45958.7 C 172698 43069.1 167833 47740.4 168825 49553.2 C 169144 50768.9 167294 51342.3 169000 52513.2 C 164699 51589.4 171181 55746.5 170716 54618 Z M 155646 53170.6 C 165289 52837 158110 31674.5 160489 45155.1 C 156624 62074.3 133309 43124.9 149415 36349.2 C 153526 35613.8 160912 37203.3 151929 35016.5 C 135075 36040 146716 61567.6 158370 50284.9 C 163476 44428.7 153362 57960.4 148582 52669 C 139933 47630.9 152324 56957.3 155646 53170.6 Z M 117342 52396.5 C 121240 51052.9 104751 55461.1 104932 46963.4 C 103547 42046.3 106198 32083.4 103164 43106 C 103036 49960.6 110965 55483 117342 52396.5 Z M 117154 51608.8 C 132533 45756.6 111882 29251.3 110804 35676.8 C 127907 31818.9 120896 60055.6 107597 49323.9 C 103139 46622.1 107686 33008.2 104549 43529.6 C 104948 49537.3 111294 54611.5 117154 51608.8 Z M 162390 51119.3 C 162522 49587.1 160934 53565.5 162390 51119.3 Z M 121789 49372.9 C 125237 44959.3 117802 53133.7 121789 49372.9 Z M 162421 45709.5 C 163100 39635.9 158723 35399.6 161685 44206.6 C 161863 47564.9 160848 51142.1 162421 45709.5 Z M 142361 47263.1 C 138877 37840 151876 31974.2 157359 34934.4 C 147735 28855.7 138874 41287 142361 47263.1 Z M 96544.8 44193.3 C 96152.9 44692.5 96929.5 46745.5 96544.8 44193.3 Z M 97662.2 45129.8 C 98355.9 38970.1 96081.2 43028.9 97662.3 45129.8 Z M 97663.2 43084.7 C 98032.4 42403.4 97777.4 44187.8 97663.2 43084.7 Z M 164324 42830.3 C 162879 34548 164762 49642.8 164324 42830.3 Z M 168757 43650.3 C 167972 40323.4 167658 43200 168758 43650.3 Z M 131156 41421.3 C 138952 42928.3 137961 41181.4 130744 40883.5 C 125685 42449.6 127895 42536.5 131156 41421 Z M 122694 39937 C 123491 30426.9 99859.8 34364.2 113621 33648.5 C 117719 29941.5 125848 47355.1 122694 39937 Z M 140826 40867.6 C 142490 33294 116229 36626.6 126336 41649.4 C 124960 32832.9 126761 45819.5 132736 40327.2 C 134607 38736.6 139420 35849.9 139544 42431.7 L 139999 42362.5 L 140826 40867.7 Z M 137039 40931.6 C 132514 39016.9 139568 42674.8 137039 40931.6 Z M 164924 41187.4 C 164293 40276.1 164615 42122.8 164924 41187.4 Z M 138181 39364.6 C 137870 37164.1 137274 40271.4 138181 39364.6 Z M 129864 34280.3 C 131293 35545.7 132984 33944.4 133779 35251.4 C 135647 33895.6 135856 34715 137136 34852.2 C 139817 32846.2 138655 34492.2 140784 32856.3 C 141232 33486 143845 29943.5 143568 31608.8 C 143789 31672.6 146258 30500.2 146313 30742.9 C 145875 31992.2 149923 29862.9 149945 30937.8 C 153925 30426.3 149371 30940.9 154756 31760.2 C 155028 30055 160023 35959 159871 31483.2 C 154995 28085.2 154336 27655.9 150151 26527.8 C 148707 25437.9 144130 26695.8 143781 25849 C 141826 24634.6 142698 25500.8 139904 25347.7 C 137907 24407.8 136154 26652.1 135581 24687.8 C 134570 28922.8 131903 22378.8 132145 26123 C 132241 26412.3 129887 25426.6 129234 25322.6 C 128683 26057.6 124508 24574.8 124249 25307.6 C 123016 25887.7 120316 25880.1 118310 25904.7 C 118124 25892.3 110658 26732.2 111841 27867.5 C 104554 29241.2 113499 28086.3 105238 31294.1 C 108374 33195.4 118308 30151.1 116840 30413.1 C 120101 32481.5 117055 27381.6 122615 32594.5 C 120724 29574 124868 33216.8 124377 32340 C 125496 32843.5 126990 35512 129864 34280.3 Z M 131591 31114.5 C 129898 29460 135544 29728.2 132447 31346 L 132137 31432.7 L 131591 31114.5 Z M 128306 30506.9 C 125613 27072.1 130202 32286.7 128306 30506.9 Z M 129621 30187.1 C 128806 27934.1 130983 31851 129621 30187.1 Z M 134243 30442.9 C 134660 28533.4 135447 29788.9 134243 30442.9 Z M 137295 30451.7 C 138965 28537.5 142712 28219.1 137295 30451.7 Z M 135249 30278.7 C 135800 28827.8 136258 29322.1 135249 30278.7 Z M 126679 29831.4 C 121930 26915.5 129694 30769.1 126679 29831.4 Z M 136508 29582.7 C 138716 27119 135295 31661.2 136508 29582.7 Z M 120510 31330.4 C 118900 29362.2 121280 33546.1 120510 31330.4 Z M 119644 30954.6 C 119013 30043.3 119334 31889.9 119644 30954.6 Z M 142555 21291.9 C 141054 21926.8 141703 22401.7 142555 21291.9 Z"
       stroke_scale="True"
       mktablength="5160.23622047244"
       mktabpositions=""
       type="elem path"
       id="meerk40tshape"
       lock="False"
       label_display="False"
       hidden="False"
       stroke-linecap="butt"
       stroke-linejoin="miter"
       fill-rule="evenodd"
       stroke="none"
       stroke-width="0.374744"
       fill="#000000" />
  </g>
</svg>
