<?xml version="1.0" encoding="UTF-8" standalone="no"?>
<svg
   version="1.1"
   width="95.603134mm"
   height="87.000206mm"
   viewBox="0 0 246667.31 224470.65"
   id="svg1"
   sodipodi:docname="meerk40t_vector_icon.svg"
   inkscape:version="1.4.3 (0d15f75042, 2025-12-25)"
   inkscape:export-filename="meerk40t.png"
   inkscape:export-xdpi="270.93332"
   inkscape:export-ydpi="270.93332"
   xmlns:inkscape="http://www.inkscape.org/namespaces/inkscape"
   xmlns:sodipodi="http://sodipodi.sourceforge.net/DTD/sodipodi-0.dtd"
   xmlns="http://www.w3.org/2000/svg"
   xmlns:svg="http://www.w3.org/2000/svg">
  <sodipodi:namedview
     id="namedview1"
     pagecolor="#ffffff"
     bordercolor="#000000"
     borderopacity="0.25"
     inkscape:showpageshadow="2"
     inkscape:pageopacity="0.0"
     inkscape:pagecheckerboard="0"
     inkscape:deskcolor="#d1d1d1"
     inkscape:document-units="mm"
     inkscape:zoom="1.6362169"
     inkscape:cx="216.65832"
     inkscape:cy="246.60544"
     inkscape:window-width="2560"
     inkscape:window-height="1356"
     inkscape:window-x="0"
     inkscape:window-y="0"
     inkscape:window-maximized="1"
     inkscape:current-layer="g1"
     showgrid="false" />
  <defs
     id="defs1">
    <inkscape:path-effect
       effect="fill_between_many"
       method="originald"
       linkedpaths="#path1-9,0,1"
       id="path-effect3"
       is_visible="true"
       lpeversion="0"
       join="true"
       close="true"
       autoreverse="true" />
    <inkscape:path-effect
       effect="fill_between_many"
       method="originald"
       linkedpaths="#path1-9,0,1"
       id="path-effect4"
       is_visible="true"
       lpeversion="0"
       join="true"
       close="true"
       autoreverse="true" />
  </defs>
  <g
     inkscape:label="Ebene 1"
     label_display="False"
     id="g1"
     transform="translate(-9845.7566,2744.4077)">
    <path
       id="circle_yellow-1"
       style="fill:#999999;stroke-width:6044.92"
       d="M 243146.39,109490.94 A 112235.34,112235.34 0 0 1 130911.05,221726.28 112235.34,112235.34 0 0 1 18675.708,109490.94 112235.34,112235.34 0 0 1 130911.05,-2744.4077 112235.34,112235.34 0 0 1 243146.39,109490.94 Z" />
    <path
       id="circle_yellow"
       style="fill:#ffeeaa;stroke-width:5905.95"
       d="M 240693.07,109699.68 A 109654.96,109654.96 0 0 1 131038.11,219354.63 109654.96,109654.96 0 0 1 21383.148,109699.68 109654.96,109654.96 0 0 1 131038.11,44.722008 109654.96,109654.96 0 0 1 240693.07,109699.68 Z" />
    <path
       id="mk_background_white"
       d="m 69563,-393 c -476.1,-408.61 6475.3,8189.65 8735.6,10613.7 5134.3,8704.8 20649.1,16472.5 20179.7,25275.6 -3232.3,4582.9 -937.5,8415.9 -9651.8,8665.2 -5800.8,1812 -6703.1,6689.6 -7414.6,11026.5 -172,5676 846.2,9574 2817.3,11341.1 -797,-263.6 1349.2,5162.7 6971.9,7071.9 -5095.8,-2207.9 2723.9,2340.7 2353.3,1353.3 689.4,1199.8 1092.9,3030.8 1554.6,2226.7 2676.8,5227.1 4218.2,4968.3 6904,8023.8 -53,-2571.1 6520,6461.5 -663,4665.3 -6512,6566.7 -16108.8,7008.2 -23420.7,14084.9 -4742.2,7218 -8984.5,13379 -18013.1,15091 -4718.4,2718 -9498.3,5033 -15099.7,4145 -8177.3,3473 -21220.4,15515 -9731.9,22748 -7421.4,11749 -16750.9,22248 -23600.9,34360 -4246.53,8232 624.9,4319 4848.9,562 12013.8,-9203 29548.8,-15885 43042.3,-5438 4401.2,13680 14135.8,4524 20241.2,-638 6998.1,3769 8421.8,13726 18171.5,14338 9142.4,2999 7490.4,9345 8041.4,17476 5801,15519 23007,2888 17654,-8604 -4319,-11557 3409,-4142 9930,-5355 18189,-9063 297,17432 14193,21697 18108,-976 7325,-18040 18541,-24305 10540,1956 16584,-17854 24902,-10942 6324,13716 11492,-3505 18090,-6783 15951,-7263 36614,2190 47374,14793 -1571,-12029 -14158,-24262 -21622,-35071 -7369,-5718 -2639,-8380 493,-13792 -3533,-11324 -16549,-17262 -27279,-18191 -12541,-2497 -16528,-12594 -25622,-19640 -6800,-6313.5 -14846,-8703.8 -22687,-11966.8 1216,-2656.5 1396,-1403.2 3539,-3145.2 1486,-1053.5 5443,-5913.1 6916,-6571.1 397,-2917.9 665,-2024.1 3081,-4231.9 8380,-4895.1 5550,-6695.5 9089,-10213.6 1623,-4863.8 -858,-12335.5 -2003,-14401.3 1704,-3309 -7976,-5731.4 -11816,-8990.6 3084,1923.2 -959,-3785.6 -3200,-6375.9 5371,-5430.1 10678,-11105.3 16138,-16628.9 5887,-5954.3 10978,-11705.88 15988,-17472.4 l -9342,5695.55 C 183128,9708.98 172332,19926 166393,25833.8 c -4310,7067.4 -7654,643.9 -9369,-1099.3 -6730,-3245.8 -15479,-4595.7 -24731,-4229.1 -9741,386 -11868,456.4 -24094,4314.3 1650,334.9 -5609,2538.9 -1357,2276.6 -6133,2520.4 -184,-717.3 -3196,1532.1 C 95229.2,20222.2 87072.9,11905.9 78132.8,4050.73 75415.1,2500.65 73479.6,1374.78 71048.7,219.34 68895.7,-1960.23 69990.7,-25.83 69563,-393 Z m 18120.8,71943.4 z"
       style="fill:#ffffff;stroke:#ffffff"
       inkscape:label="White background meerk40t" />
    <path
       d="m 195960,1656.3 -6712,7322.33 -29028,29289.37 -3313,4707.2 -784,6189.1 -5231,1743.4 -4097,-2092.1 -1503,-1765.2 -850,-1983.1 893,-3377.9 4555,-3486.8 4162,-653.8 371,1678.1 12422,-11593.7 12683,-12661.6 6407,-6276.27 894,-828.12 z"
       stroke_scale="True"
       mktablength="5160.23622047244"
       mktabpositions=""
       type="elem path"
       id="Right_Laserbeam_red"
       lock="False"
       label_display="False"
       hidden="False"
       stroke-linecap="butt"
       stroke-linejoin="miter"
       fill-rule="evenodd"
       stroke="none"
       stroke-width="1.6"
       fill="#ff0000"
       inkscape:label="r_beam_red" />
    <path
       d="m 71480,1046.1 7409.5,4532.88 33386.5,33473.52 -175,-1917.7 h 3139 l 5056,3574 516,2777.5 -123,955.5 -678,1725.8 -1572,2558.1 -2157,1017 -3051,-462.3 -4870,-4407.2 648,-2465.5 2034,554.7 -18492.1,-20279.2 z"
       stroke_scale="True"
       mktablength="5160.23622047244"
       mktabpositions=""
       type="elem path"
       id="red_beam_l"
       lock="False"
       label_display="False"
       hidden="False"
       stroke-linecap="butt"
       stroke-linejoin="miter"
       fill-rule="evenodd"
       stroke="none"
       stroke-width="1.6"
       fill="#ff0000"
       inkscape:label="Left Laserbeam red" />
    <path
       d="m 28446,153081 c -5644.4,-13345 -8765.6,-28017 -8765.6,-43418 0,-15400.5 3146.7,-30046.9 8803.8,-43379 5657.1,-13332.1 13824.6,-25349.7 23866.2,-35493 4962.6,-5012.8 10399.2,-9541.4 16256.1,-13519.6 2928.4,-1989 4392.9,-3143.1 7524.8,-4848.6 M 85815.7,7752.18 C 99103.9,2130.44 115428,-1721.6 131223,-1879.01 c 15400,-153.46 30072,3121.2 43417,8765.55 3336,1411.09 3364,1672.31 6525,3389.46 m 6327,3121.6 c 1534,931.6 4612,2770.8 6095,3773.1 5934,4009 11462,8574 16508,13620.3 20185,20185.2 32670,48070.7 32670,78872 0,15401 -1888,27854 -7533,41199 m -11517,21166 c -4009,5934 -8574,11461 -13620,16508 -20185,20185 -48071,32670 -78872,32670 -30802,0 -58687.4,-12485 -78872.6,-32670 -5046.3,-5047 -9611.3,-10574 -13620.3,-16508"
       stroke_scale="True"
       mktablength="5160.23622047244"
       mktabpositions=""
       type="elem path"
       id="path24"
       lock="False"
       label_display="False"
       hidden="False"
       stroke-linecap="butt"
       stroke-linejoin="miter"
       fill-rule="evenodd"
       stroke="#b3b3b3"
       stroke-width="1.53712"
       fill="none" />
    <path
       d="m 115039,47557.4 c 6927,-693.9 -515,-13215.3 4048,-4102.9 2469,3330.4 -7902,5289.8 -4048,4102.9 z"
       stroke_scale="True"
       mktablength="5160.23622047244"
       mktabpositions=""
       type="elem path"
       id="path20"
       lock="False"
       label_display="False"
       hidden="False"
       stroke-linecap="butt"
       stroke-linejoin="miter"
       fill-rule="evenodd"
       stroke="none"
       stroke-width="0.374744"
       fill="#000000"
       inkscape:label="Left Eye black" />
    <path
       d="m 148680,47948.1 c -6140,-3028.9 3097,-12431.9 -1838,-3568.3 -658,3157.5 7745,4693.7 1838,3568.3 z"
       stroke_scale="True"
       mktablength="5160.23622047244"
       mktabpositions=""
       type="elem path"
       id="r_eye_black"
       lock="False"
       label_display="False"
       hidden="False"
       stroke-linecap="butt"
       stroke-linejoin="miter"
       fill-rule="evenodd"
       stroke="none"
       stroke-width="0.374744"
       fill="#000000"
       inkscape:label="Right Eye Black" />
    <path
       d="m 148612,213878 c -13896,-4265 4069,-31941 -14341,-21919 -6521,1213 -16166,-6939 -11847,4618 4984,11344 -9788,25524 -15589,10004 -551,-8130 1102,-14477 -8040.5,-17475 -9749.7,-613 -11910.8,-11750 -18908.8,-15519 -6474.2,4720 -15102.4,15498 -19503.7,1819 -12755.9,-11111 -32135.3,-4798 -44149.2,4406 -4224,3757 -7989.42,8701 -3742.9,470 6850,-12113 16179.5,-22611 23600.9,-34361 -11488.5,-7232 1555,-19275 9732.3,-22747 5601.4,887 10381.6,-1427 15100,-4145 9028.6,-1712 13270.2,-7872 18012.4,-15090 7311.9,-7077.1 16908.7,-7519.2 23420.5,-14085.9 7183,1796.2 610,-7236 663,-4664.9 -2686,-3055.5 -4226.2,-2797.1 -6903,-8024.2 -461.7,804.1 -865.9,-1027 -1555.4,-2226.7 370.7,987.3 -7449.4,-3561.1 -2353.5,-1353.2 -5622.8,-1909.2 -7768.2,-7336.2 -6971.2,-7072.6 -1971,-1767.1 -2989.9,-5664.3 -2817.9,-11340.3 711.5,-4336.9 1614.1,-9214.1 7414.8,-11026.2 8714.4,-249.3 6419.6,-4082.2 9651.9,-8665.1 C 99954.1,26676.9 84439.5,18908.3 79305.2,10203.5 76291.4,6971.47 65935.5,-4710.4 74547.3,4007.85 87383.2,17170.6 100695,29980.2 112481,44091.6 c -9316,-5128 3213,11918.2 7106,2033.5 5831,-6374.6 -12918,-12017.4 -5623,-5178.9 C 101316,29968.6 89789,17464.3 78389.1,5144.53 87329.2,12999.7 95571.2,21606.6 103988,30012.8 c 3012,-2249.4 -2117,-594.9 4016,-3115.3 -4252,262.3 2930,-1499.5 1279,-1834.4 3590,-1310.4 8981,-2498.5 10422,-3295.6 3448,16 2548,-1177.8 6194,-810.5 1786,-573.7 4239,945.9 5901,-153.9 1397,214.4 3289,791.4 6527,153.3 3582,-328.3 2009,126 4857,265.6 1016,1244 4034,1265.2 8566,2092.9 1868,1340.8 5040,1598.8 6280,3671.6 1715,1743.3 5059,5897.4 9370,-1170 5938,-5907.8 14492,-14455.8 19550,-18060.93 -11407,11752.73 -22659,23773.33 -35066,34463.83 9146,-10073.8 -15938,1207.7 -3460,6925.6 5857,3537.9 10553,-9127.8 5290,-4567.5 C 167110,29365.3 181772,15275.9 196397,1252.11 186377,12785.1 175586,23633 164844,34493.3 c 2241,2590.3 6284,8298 3199,6374.9 3841,3259.2 15086,5681.8 13382,8990.8 1145,2065.8 2224,9020.9 601,13884.7 -3539,3518.1 -267,5023.5 -8647,9918.5 -2416,2207.8 -2979,1314.7 -3376,4232.5 -1472,658 -5208,5664.5 -6694,6717.9 -1774,2037.1 -4094,1079.1 -4056,4325.6 7842,3263 16625,6317.9 23425,12630.8 9094,7046 13893,17216 26433,19714 10730,929 21239,5612 25436,16715 -3132,5412 -7273,9181 96,14899 7464,10808 16881,20608 21549,33080 -10760,-12603 -30095,-20950 -46046,-13687 -6599,3278 -11766,20499 -18090,6783 -9203,-10305 -14511,12012 -25050,10057 -15789,3167 -286,23772 -18394,24748 z m -37949,-5767 c 91,-4441 -1360,-21955 -2970,-8214 -337,7399 1479,7071 1483,671 -247,-2541 1975,15444 1487,7543 z m 44146,925 c 1035,-6204 1688,-11717 1707,-1713 3210,-3826 -710,-20214 -1354,-7872 1250,517 -2751,15803 -353,9585 z m -42,-11286 c -528,-6435 -490,10711 0,0 z m -43810,-2184 c -497,4993 636,7714 0,0 z m 1190,4044 c -425,327 378,1686 0,0 z m 48216,-7976 c 15937,-7411 18031,-28799 10895,-43130 -4655,10370 -4484,22154 -10120,32151 3904,-2613 6489,-19359 6723,-15621 748,5149 -5682,17036 -5492,17114 4385,-3007 6817,-18261 7037,-17725 484,6124 -5615,19080 -7059,20152 4213,-4675 9309,-10259 3222,-1685 -7021,10109 10848,-13328 2257,-635 -4968,6899 -1069,2876 1931,-1388 -551,5431 -15998,13007 -5216,7395 -3127,5416 -19903,2657 -6400,4084 z m 5892,-9222 c 1111,-1610 -545,1710 0,0 z m -305,-2702 c 2975,-5148 6086,-20369 2916,-6042 -650,2135 -1358,4371 -2916,6042 z m 2103,-18031 c 206,-1601 206,1601 0,0 z m -56584,30444 c 4823,358 -14713.1,-3057 -8194,-2775 3775,2410 -11137.7,-8267 -8701.6,-13108 775.4,5952 11725.6,15708 3097.6,5245 -4143.9,-11162 -312.7,367 4003,3372 -5219.5,-2838 -8260.3,-26873 -5098.1,-12167 -55.8,5548 10419.1,17260 2909.2,6017 -2441.5,-6049 -5026.2,-20758 -1500.2,-6803 490.2,5245 9983.1,16700 3122.1,6096 -2855,-3780 -5149.9,-22984 -2236.5,-9606 750,5217 9015.5,18608 2817.5,6513 -2990.8,-7029 -4102.8,-23302 -8096.8,-25301 -6357,14048 -3695.6,33641 10769.8,41532 2122,1269 4731,1431 7108,985 z M 95656.1,162702 c 205.7,-1601 205.7,1602 0,0 z m 62291.9,28498 c -1014,-538 -238,576 0,0 z m -50711,-357 c -2608,-1129 699,1051 0,0 z m 51734,101 c -1013,-538 -238,576 0,0 z m -17198,-7638 c 10790,-3552 21249,-12304 22884,-24057 -5067,9746 -14648,16339 -24768,20169 6907,-1006 13988,-6918 17893,-10364 -3407,5301 -14830,10365 -16621,11678 4974,-1366 17027,-8387 6386,-1840 -5271,2570 -11381,5149 -2092,1838 6043,-2123 -10941,5067 -3682,2576 z m -17797,-224 c -5851,-2843 -8481,-5260 -1117,-1412 5570,2744 -19637,-11552 -5590,-3979 3833,2258 14067,5189 4491,1485 -4798,-641 -20144,-15254 -9625,-6359 3923,4015 19429,8871 6529,3386 -7034,-1520 -16159,-15962 -17706,-14821 3529,10854 13392,18932 24058,22275 z m 11913,-10803 c 11367,-8805 22258,-18605 30392,-30561 -5261,-5385 -10488,-10804 -15760,-16178 -11800,1263 -23750,1332 -35550,35 -4544,7222 -21917.6,14571 -10866,22846 8555,9622 18042,18631 28584,26047 l 1099,-644 z m -6894,-1977 c -5550,-2696 -7645,-7268 -6537,-13065 235,-6287 -1529,-21839 2999,-7508 1488,4200 5243,16832 10263,9843 2650,-4640 8375,-24675 7276,-10123 -452,5247 683,11244 -590,16122 -4274,2187 -9047,10763 -13411,4731 z m -18857,-17122 c -7107,-5659 -12185.3,-12791 -2352,-18421 4123,-5152 8313,-9965 15418,-7169 8920,323 17877,281 26755,-728 4725,5186 10571,9734 14421,15448 -2770,2760 -12053,17621 -12743,11955 -5,-7528 -11,-15055 -16,-22582 -8797,-1064 -15088,1725 -16786,11234 -4070,11667 -5171,-9298 -10561,-10801 -3196,946 -10518,-2305 -10520,1890 -41,7609 -82,15218 -122,22827 -1165,-1218 -2329,-2435 -3494,-3653 z m -87194.5,17898 c 8234.5,-6111 16353.1,-12434 23663.5,-19644 -8353.1,6549 -16165.5,13857 -24973,19775 8272.2,-9063 19162.4,-15347 27275.4,-24588 -3922.3,3899 -23303.6,18404 -10282.1,7550 3715.1,-2842 16882.3,-16140 6709.3,-7005 -3328.7,3021 -14881.1,12238 -4954.2,3585 5913.4,-3751 13950.7,-13496 1391.6,-10654 -6707.1,11905 -15506.1,22461 -22859.2,33952 1358.7,-969 2690.3,-1975 4028.7,-2971 z m 21872.7,-25747 c 2939.4,-2986 2318.4,-1333 -164.8,280 z M 246914,173263 c -7640,-11200 -16126,-21960 -23412,-33313 -9976,-2332 -7698,4182 -1592,7640 3215,2719 16818,14332 5706,5484 -4277,-3373 -17388,-14503 -6603,-4464 4031,3590 18581,16048 6404,6531 -3585,-2848 -16702,-13777 -6610,-4502 5853,5749 21908,17081 21784,19453 -6558,-4558 -19450,-16176 -21469,-16872 7446,6678 19279,16701 25792,20043 z m -25098,-26816 c -6154,-5101 -5232,-5445 280,-181 l 1310,1294 z m -71028,18983 c 6162,-2928 16299,-16841 16306,-16137 -3578,5592 -7968,9966 -9207,12003 -7982,9088 12791,-13241 2480,-571 -5414,6265 -715,2153 1938,-1239 -2749,3988 -8121,9427 -1044,2990 6048,-4158 10812,-19801 7832,-22252 -754,5744 -9984,14178 -10060,15577 4552,-2140 14086,-21196 7181,-7160 -1325,4833 -18547,18890 -15426,16789 z m 13113,-9485 c 3599,-5406 3695,-3634 0,0 z m -46672,10108 c -3879,-3498 -15677,-12721 -5347,-3971 1482,1292 4160,3395 5347,3971 z m 39509,-1589 c -1419,420 -1590,1857 0,0 z m -50127,-1420 c -3308,-2946 -5940,-7807 -1108,-1720 -2828,-3835 -11643.2,-15652 -3759,-5696 3582,5225 13216,13031 4001,3791 -3344,-3549 -11850.7,-16717 -4387,-6438 2985,4950 16001,16220 5686,5709 -5196,-3175 -13921.1,-25034 -10528.5,-9395 759.9,6112 9138.5,14429 11730.5,15311 z m 754,-166 c -1541,-1703 -2607,-2194 0,0 z m -148,-6635 c -3854,-4458 -11243.9,-12465 -3635,-3270 -179,-204 5354,5563 3635,3270 z M 36502,143600 c -1605.9,-3486 -1236.1,981 0,0 z m 193508,-317 c 2828,-5418 -7280,-7507 -1263,-847 3375,-1305 -1607,2179 1263,847 z M 37319.1,142045 c 5634.9,-8940 -6900.6,97 -536.6,661 z m 1830.1,0 c 2131.9,-4586 -2232.6,3132 0,0 z m 58566.7,256 c -3430.3,-6596 -1064.5,-297 0,0 z m 128897.1,-885 c -1848,-2360 1586,3238 0,0 z m 4402,-853 c -820,-1007 279,1268 0,0 z m -61954,-1638 c 2577,-4732 -4290,5290 0,0 z M 34127.9,137159 c -280.4,-10123 -2709.5,10777 0,0 z m -1207.4,1511 c 448.4,-1345 397.7,940 0,0 z m 199872.5,1359 c 1379,-2209 -4240,-11253 -1265,-1982 -345,-403 373,2885 1265,1982 z m -133358.9,-299 c -1349.7,-2718 -870.2,992 0,0 z m -45408.3,-552 c -1394.5,-1342 -13713.7,-2535 -3600.2,-72 l 1417.8,247 z m 163357.2,-776 c 8027,-2869 -13687,1904 -2478,753 z m -158222.8,76 c 4023.1,-5669 2465.3,-8190 4714.7,-5929 192.3,-1682 1528.8,576 1366.6,-1824 1751.3,2418 380.6,-1226 2202.3,1248 -1733,-5551 2172.9,3141 631.7,-2800 2874.9,6992 -184.5,-4689 2513,2230 1885.7,171 -1606.9,-7624 1657.6,-1254 -4463.1,-11612 4461.6,5361 5704.2,2334 -5376.9,-1579 -7477.5,-14670 -3243.9,-4225 6440.2,10297 -5780.1,-13477 1122,-1351 1278.5,1575 -4259.6,-11233 876.2,-1710 4044.3,5592 -4823.1,-10536 361.1,-2931 -3041.2,-7650 6740.5,11566 1305.5,-28 -4119.2,-10751 5864.8,9322 635.5,-2097 -1849.8,-5240 6334.6,10304 1194.4,-552 -590.8,-1982 7167.4,10208 2738.6,2105 -5774.8,-11900 5737.1,8227 1201.2,-924 -4396.2,-8632 7657.9,11460 1342.1,-662 -5229.8,-10993 8240.2,12076 1820.3,-429 -4939.7,-10280 10067.7,14804 3173.3,1675 -3297.8,-6204 -3354.5,-7588 320.8,-1118 5741.2,6898 11952.6,23182 19146.6,8650 2904,-5618 8172,-4511 13454,-3840 9179,438 18385,176 27523,-788 3837,3848 7674,7696 11511,11544 4990,-5394 13494,-17784 14975,-19423 -2595,5262 -6554,12993 -76,3601 6743,-11637 -6536,13804 2417,-165 6539,-12262 -5690,12276 1875,932 6473,-10138 -4839,9602 1834,1024 5667,-10940 -4129,9102 2508,-1722 3070,-5092 -4175,9689 1065,545 4050,-6401 -5724,12731 862,1734 4506,-7400 -5465,11111 1032,658 3859,-7437 -3534,9008 2480,-448 -3204,6636 -3976,10333 126,1840 1229,3194 -10231,14005 -718,4718 3421,-6497 1765,-3464 1040,1023 1391,-4735 684,4990 1650,-1299 513,3292 769,-670 1346,2148 1163,-3045 1491,3642 3472,-1011 -589,3073 741,658 827,1677 759,-2092 246,2524 1271,-371 509,2077 923,-2256 1356,1301 -211,-4541 4242,9004 520,2489 4414,8504 -4,-6680 2872,2016 6611,5854 -5412,-7395 2696,-9889 7373,-6081 -11685,-7599 -15687,-11111 -6214,-4175 -13610,-14887 -21859,-9395 -11101,5847 -22492,11515 -34653,14675 12100,-1606 -19302,-2610 -6681,142 -13929,-4107 -26239,-12132 -39715.2,-17260 -9661.1,4284 -16429.6,13813 -27180.6,16423 -7062.4,2395 -8179.1,4487 -2641.2,9687 6758,3971 -6969.5,10453 -284.8,8137 z m 42247.8,-6282 c -4056.5,-2470 -13188.2,-21188 -6270.4,-9675 532.1,1830 12602.4,15711 6270.4,9675 z m 61509,296 c 3363,-3376 14324,-21127 7509,-8813 -741,1900 -10121,13009 -7509,8813 z m -61701,-3841 c -3751.9,-3754 -8975.2,-14540 -2961.5,-4731 1035.1,1737 7704.5,9914 2961.5,4731 z m 62074,795 c 3347,-4814 10186,-14150 3138,-3710 -1056,1219 -1851,2698 -3138,3710 z m 29797,-1407 c 792,-3283 131,1630 0,0 z M 57811.9,126559 c -3892.9,-3310 1712.3,555 0,0 z M 208357,125263 c -1408,-790 4313,-1013 0,0 z m -1755,-259 c 2537,-2209 919,-68 0,0 z m -151425,-425 c 2334.2,-1374 3782.5,1039 0,0 z m 3277.7,-936 c 1121.5,-366 110.8,492 0,0 z m 70590.3,6 c 1409,-416 256,447 0,0 z m 6529,-8 c 1686,-379 327,424 0,0 z m 1402,-248 c 1409,-415 256,448 0,0 z m -7147,-1796 c 1121,-367 111,492 0,0 z m 17929,-616 c 4159,-1571 -3528,1732 0,0 z m -28185,-988 c -5112,-1354 -17578,-9287 -5917,-3134 1414,679 14200,5883 5917,3134 z m 22072,928 c 5313,-1999 23775,-10175 9851,-3257 -3159,1393 -6434,2696 -9851,3257 z m 8220,-804 c 4295,-2219 1057,143 0,0 z m -79402.7,-2608 c 1408.8,-415 255.7,448 0,0 z m 123305.7,0 c 1409,-415 256,448 0,0 z M 66305.2,137853 c 5943,-1163 8070.2,-4781 3636.6,-2375 -572.9,-597 -2448.5,-892 -3908.3,762 -793.1,-1847 -2921.3,1435 -3207.3,-195 -6944.2,5169 -1014.6,2120 3479,1808 z m 34663.8,848 c -2727,-4168 -3151.7,-1053 0,0 z m 66341,-2156 c 5857,-7824 -1435,-948 -1871,2366 l 643,-695 z m 37673,1963 c -6639,-4996 -3995,-1176 -8542,-3946 895,2295 -2967,-2385 -1366,1209 -12605,-5289 12807,6837 9908,2737 z M 57522.4,136147 c 3699.1,-7122 -5549.2,-2415 -1952.7,1485 -724.9,-2647 -2598.3,-2109 -69.3,206 l 877.2,-389 z m 4057,654 c 1660.7,-6102 -2222.9,3978 0,0 z m 149190.6,639 c 3150,-3389 -6998,1142 0,0 z m -110222,-2562 c -5498.9,-6233 -4935.6,-4004 -232,1227 1636,3291 3503,-599 232,-1227 z m 64875,468 c 7453,-9969 -6774,5582 0,0 z m 44270,1429 c 4505,-5357 -6617,-6046 -1921,-422 -1737,-3778 1712,1981 1921,422 z m -172393.7,-395 c 3224,-5864 682.3,-9436 -1390.2,-1463 2171,-980 -1477.8,3004 1390.2,1463 z m 191899.7,-432 c 583,399 -908,-7585 -2498,-5287 -1080,2057 3800,8414 2498,5287 z m -187195.1,-508 c 2000.6,-3388 8390.6,-15770 842.1,-8478 5010.6,-1782 -8714.7,8402 -715.9,7423 -917.5,371 -2205.1,2216 -126.2,1055 z m 182953.1,-39 c 317,-1226 -537,-6981 -3240,-8897 1317,-2059 -7925,-3352 -1219,2006 1679,1798 966,7469 4459,6891 z M 48200.5,134125 c 1293.6,-7234 2674,-2301 3661.9,-3115 478.3,-416 206.7,752 3206.7,-441 6207.9,-2912 -9818.1,-8445 -7125.1,-3392 -5770.9,5605 450.4,5967 -1213.1,7806 z m 23299.7,47 c -724,494 -304,1112 0,0 z m 147496.8,277 c -489,-1512 2794,-3454 -960,-7438 -4967,-7184 -12123,5030 -5903,4098 888,537 2077,-135 3042,-657 -323,-3260 4629,7168 3821,3997 z m -5702,-3383 c -746,-1658 405,-801 0,0 z m -155860.9,356 c 3780.2,-975 -5645.6,-189 0,0 z m 151341.9,-234 c 2675,-3610 -4926,1860 0,0 z M 40634.3,129957 c 661.4,-2468 -1841.3,2638 0,0 z m 49078.6,512 c -6016.5,-1479 -7560,102 0,0 z m 90520.1,-356 c 781,-1304 -10306,1562 -1219,339 z m 44841,-224 c -786,-623 762,1374 0,0 z M 40680.7,127926 c -1593.4,884 -17.4,2243 0,0 z m 185129.3,803 c -1070,-1989 -1910,40 0,0 z m -88386,-12085 c 15233,-1467 28069,-11132 42005,-16144 -3853,-716.1 -7739,793 -1842,-1497 -12062,1350 -20839,12250 -32799,14716 -13850,4374 -29621,1528 -40118,-8816 -3362,-3018 -12624,-9973 -3605,-4049 3134,2310 18734,13889 8743,5056 10014,8696 24350,11734 36576,5816 8801,-2939 15926,-9063 23682,-13643.4 -5605,4798.4 10166,-2538.4 -355,-2753.4 -8998,4290.2 -15949,13268.8 -25922,16553.8 -13451,6266 -27226,-1380 -37343,-10080 -2072,-5427.4 -19807.9,-7479.4 -9480.3,-2518.6 4417.3,3359.6 13816.3,12033.6 2874.1,5042.6 -3664.1,-2415 -10832.7,-4683.7 -8695.3,-4922.1 -11720.9,716.1 11122.5,5019.1 14334.5,8988.1 -12236.1,-4534 8098,4365 11975,5717 6412,2005 13242,3189 19970,2534 z m 20973,-8425 c 4585,-3181 15481,-5942 4838,-1200 -1225,254 -4035,1849 -4838,1200 z m -19375,3816 c 5337,-2331 3211,-3313 6460,-4985 -7452,1929 6725,-3301 -1663,-1401 9146,-3073 -4640,418 2816,-2531 2585,-1650 -2135,-749 3685,-3733.5 -5972,2033.5 -2944,989.5 30,-1692 -4053,1420.6 7204,-5755.7 -1568,-959.3 -3237,899.7 5958,-3527 -1568,-544.2 3050,-2310.5 4668,-4316.7 -197,-1126 5113,-3554.2 6585,-4564.5 128,-1833.6 7866,-4380.3 -5786,1901.7 2647,-3440.5 -8640,4700.1 -3219,1739 1300,-2396.3 -7104,4278.4 -3807,1824.9 -2232,71.9 -2590,1127.6 -8479,5282.8 -3452,471 -3787,2048.6 -3323,1905.8 -4531,1858 38,-1205.4 -2142,909.3 -2852,1294.1 1388,-4177.8 -2840,4702.9 -991,-1631.1 -1707,3965.2 -1442,-1579.1 -3028,3790.5 -266,-3872.3 -1612,914.3 -2850,-1760.6 -447,1554.4 -1341,-217.4 -2468,-608.2 -1394,-1856.4 707,3726.2 -2290,-1591.3 2768,6805.1 -3504,-4296.7 -649,2209.4 -2508,-3423.8 -3615,-4248.8 -1094,-83 -5082,-5772.3 14,1434 -4974,-3237 5765,6215.9 -8097,-4880.1 -1133,1617.1 -5705,-3509.2 -2818,-1174.9 -1543,257.3 -1285,253.3 6712,4403 -1326,453.4 8434,6014.5 -7904,-3133.1 1150,3087.6 -4842,-1982.2 6706,5241.9 -1790,1447.3 8773,5353 -8375,-4365 1471,2484.4 4540,2744.6 -6011,-2132.7 688,1682 6877,3639.6 -7669,-2288.2 1013,2086.6 3884,1969 -5252,-585 2072,2059 -5939,-661 7644,2658 -1837,1113 6859,2801 -3173,-488 3372,2967 -1685,-149 -1919,92 2632,2316 -5439,-1330 1780,1726 2528,2305 3951,724 8076,433 12044,-17 z m -6522,-881 c 243,-1670 158,1989 0,0 z m 4,-3965 c 196,-2053 196,2053 0,0 z m 12914,-4774 c 1408,-415 255,448 0,0 z m -12924,-2133 c 206,-1600.9 206,1601 0,0 z m 0,-3581.4 c 206,-1601 206,1601 0,0 z M 76858.1,109153 c 5223.8,-3007 11196.6,-8454 1998.5,-2593 -438.5,-63 -4940.1,5128 -1998.5,2593 z m 75786.9,-3095 c 4995,-3411 10260,-10644.9 10011,-8113 7102,-4507.7 -1758,-9729.9 -2307,-1118.7 -347,2677.4 -16910,15999.7 -7704,9231.7 z m 34444,1169 c -10969,-7293.1 -2184,775 0,0 z m -7071,-5169 c -1166,-465 -4899,926 0,0 z m -85700.3,-1392 c -2855.5,-1434 1607.3,1367 0,0 z M 158381,98120.7 c 4022,-6148.1 -1669,-10375.4 -1029,-1536.3 3303,-4834.3 -3361,8249.6 1029,1536.3 z m -51105,-64.6 c -3561,-8367.4 1875,1505.9 548,-2562.1 -1652,-12272.2 -4445,3342.5 -548,2562.1 z m -5788,-2487.9 c 2483,-4388.9 -1813.5,-5594.6 -744,-107.8 l 853,866 z m 13935,-5774.8 c -918,-974 -318,1008.5 0,0 z M 132286,83360 c -254,-3241.7 1320,2507.3 1423,-601.7 247,5982.2 1571,-5167.9 863,1326.5 2894,-4802.8 -261,3435.4 3126,-2733.5 -1288,4603.1 1453,-388.3 1969,355.6 2113,-3966.7 -1659,6665.6 1754,-855 586,-789.2 -304,3923.8 1856,-917.5 -1022,4684.5 4300,-5673.4 414,2569.6 5090,-6858.3 -1892,5223 3724,-2274 -4280,6664.6 5205,-4360.3 614,2784.1 3213,-3638.2 6071,-7668.3 1874,-482.7 4952,-6703.6 1298,444 3768,-1918.2 4891,-9522.9 -2651,8231.4 3054,-2005.7 -3201,7875.7 78,802 1445,1661 2015,-7058.6 2247,-5803.5 2138,-1080.8 1072,-6035.7 1973,-4355.9 878,836.5 2141,-4805 1632,-8334.9 1994,-875.4 889,-6501.6 1188,-9191.8 1336,-880.5 804,-1000 429,-12647.4 1446,-1905.6 595,3518.2 103,-10544.9 1572,-1169 -1105,-8532.2 522,224.5 809,-2026.8 -2169,-6290.3 3122,2491.7 -459,-4305.2 4793,7738 -2162,-6395.7 3101,1653.4 -5374,-8671.9 864,-239.1 -2257,-5405.7 4642,3570.5 -2831,-4026.2 2584,979.2 -3536,-3535.9 -626,-1597.8 -1810,-3796 5026,5527.5 -2678,-3622 981,-808.6 -1280,-2085.3 -1456,-2605.8 -1840,-3552.9 3445,728.2 -1088,-2286.8 1526,-1627.5 -6756,-3955.2 -4780,116.2 -6716,561.4 -2471,345.4 -808,2026.8 320,2333.9 -5786,-1609.7 2302,2050.1 -4733,-481.7 8366,4001.7 -9910,-1747.7 -1413,1829.2 -3122,-760.7 -7792,-2847.9 -4787,-99.9 -8936,-2541.8 -10451,-14100.8 -19245,-17425 -8475,-29.2 -12276,11503.3 -16320,14857.7 -4602,3016.2 -5106,2207.3 -3748,704.7 -4449,1292.3 -7340,1648 -5631,603.1 -11244.4,2312.5 470,-790.3 -3601,-500 -2628,299 -705,-1213.3 -2065,-1273.1 -719,-1100.3 -1151,-1118.6 -1622,-2032.3 304,-2704.1 -8940.1,1826.9 -3378.3,1461.2 -4370.8,2553.6 3406.3,-369 -2247.8,2851.8 2101.6,-385.7 -18.6,1354.7 325.7,1819.1 -3884.1,4159.7 3855.6,-2689.6 -1447.2,3072.6 5621.9,-5853.4 1753.1,605 936.8,-119 -1600.4,3986 5137.4,-4622.3 35.9,2299.4 5599.9,-5464 -2581.2,5438.8 1999.5,322.3 -3856.4,5405.8 -1424.8,3070.3 1117.4,-191.5 -2325.4,3139.7 -3472.8,8107.8 -132.6,1496 -1418.9,2981.3 -568.9,10330.5 278.6,2853 720.1,7838.3 599.4,3483.7 1737.4,-255.8 -890.3,3386.2 248.6,9533.4 354.6,2055.4 854,6460.7 669,3704.8 1687,-549.1 12,11524.1 878,-972.5 1409,4457.6 1277,7788.8 -37,-8480.6 1555,1788.9 1183,3784.2 -492,-10235.6 925,-1362.6 2688,7595.9 -734,-5439.3 2044,2767.4 1857,3339.1 -1328,-7012.1 1571,1246.4 1041,962.3 -1744,-9285.2 731,-1239.2 1892,2889.2 -739,-4901.7 1964,542.1 764,-1093.6 4340,4900.9 569,-2543.7 1640,2332 5047,7364.1 1672,766.1 5268,6799.8 1856,1013.9 1664,144.2 2440,3564.6 4519,5196.2 1829,624.6 4960,5841.6 -1796,-4698.2 4978,3158.6 -2519,-6681.9 3527,4832.3 882,-2014.6 3778,7119.6 -631,-4573.1 3311,2921.1 638,159.8 -1142,-4076.8 1870,283.8 -2672,-6900.7 4112,6177.9 1066,-2278.6 1772,4044.2 951,-199.4 2455,3429.8 l -85,-1828.6 z m -11267,-2968 c -2586,-3877.6 2255,2718.3 0,0 z m 37054,-1343.1 c 700,-5511.2 222,1863.9 0,0 z m -27989,-1151.2 c -737,-385.1 -2396,-1043.1 -3293,-277.9 -1478,-1977.3 -1798,-2396.2 -4054,-4062.8 -2157,-2059.1 4169,-883.6 4838,-625.2 1456,681.3 3181,658.9 4775,858.4 1783,-466.5 3914,808.6 4407,-975.2 1182,202.8 3535,-609.9 5168,-562.9 3194,1169.5 -2490,2311 -1708,3346.2 -1232,-827.5 -1285,1722.9 -2133,956.6 -1851,1399.9 -2210,645.9 -2982,1215.1 -625,844.1 -1941,-1202.7 -2666,1136.8 -770,-1548.7 -1288,-706.5 -1787,-880.9 -20,1542.6 -263,987.1 -565,-128.2 z m 26960,-255.8 c 279,-1214.9 150,1541 0,0 z m -37472,-7263.2 c -3612,-2366 -7769,-2984.6 -8704,-3534.1 -4399,1559 -1182,-2767.7 755,-2502.9 2583,-1183.8 4326,851.5 5004,1296 -956,846.6 4439,911.2 1738,1387.8 3675,4252.1 19259,-3211.9 8023,433.6 7923,-3513.5 1899,-1390.6 730,-1456.5 6120,-2323.3 3802,-2042.1 -751,-866 7716,-2248.7 -719,-603.7 2638,-1866 -7394,-499.5 1089,-215.3 -3797,-1767.9 732,-373 -3023,-4513.2 1550,-23.7 1709,3448.6 -7795,-11555.8 2430,-11744.4 11244,-5607.2 13909,11935.9 9466,12821.7 -962,-1596.9 4529,-4408.1 -2252,-16 7408,1956.8 -4456,-772.2 2725,1872.3 -9204,-2585 1308,1106.2 -1872,431.6 -6888,-1907.3 6928,3000.9 -2405,243.8 7894,3170.5 -7684,-3029.6 1625,2370.1 6653,3145.4 10728,-1687.9 15553,-2846.8 -1696,-2074.6 5846,-582.5 4711,2414.4 -741,303.2 -3082,283.4 -5173,686.8 -132,825.1 -4888,2872.9 -7900,2779.1 -8410,-1661 -15688,-448.1 -24094,-112.9 z m 9886,-11335.5 c -1649,-1802.2 -6053,515 0,0 z m 8841,-99 c 2295,-2067.4 -7275,1541.6 0,0 z m -11111,-6336.4 c 5001,547.9 18782,1938.6 7663,-1987.8 -2910,-3521.9 -12877,5953.2 -7663,1987.8 z m 39631,15632.7 c -1752,-1863.2 2166,1796.6 0,0 z m -53315,-36.6 c 999,-834.1 1026,454.2 0,0 z m 27757,-600.5 c 3094,-1611.9 464,828.6 0,0 z m -18547,-357.7 c 1692,-753.3 1689,432.8 0,0 z m 14837,-214.6 c -10254,-3175.3 8973,1378.1 0,0 z m 7803,-261.6 c 309,-935.3 631,911.3 0,0 z m 11863,-1726.8 c -888,-1090.3 1672,1319.2 0,0 z m -31481,-750.3 c 1121,-366.4 110,492.2 0,0 z M 96620,60629.8 c 1874.8,-1072.6 -634.3,1007.5 0,0 z m 533,-5208.4 c 1003.2,-576 2394.5,-152.1 0,0 z m -8463.4,16112.1 c -864.6,-1037.8 -1209.6,-706.5 0,0 z M 171192,62676.4 c -2355,-1881.6 1378,1758.5 0,0 z m -12487,-7308.2 c 9955,142.2 8467,-19627.3 5174,-18683.9 4079,7124.8 -419,17068 -5174,18683.9 z m 11208,-269.5 c -5786,-3712.1 853,1774.9 0,0 z M 98577.1,53910.5 c -2096.2,-337.9 -567.3,-2609 -1701.2,-3822.6 -261,-406.3 478.5,-2399.2 -1958.4,-4690.6 -4913.4,-946.9 -6513.9,1326.3 -7046.3,3026.6 -3978.6,1426.6 8346.4,10.8 -1356.1,1703.6 4464.4,-2009.9 7466.1,2268.8 8171.3,4234.7 -464.2,1065.6 2278.8,683.5 3890.7,-452.3 z m 9676.9,1001.2 C 98332.7,53043.2 99688.1,40599 102220,35140.6 c -8121.7,6780.3 115,22299.3 7440,20157.2 -469,-128.7 -937,-257.4 -1406,-386.1 z m 62462,-293.7 c -199,-5865.1 11912,-3970.4 3717,-5462.1 5891,-126.8 468,-2370.5 2259,-3197.2 -3994,-2889.6 -8859,1781.7 -7867,3594.5 319,1215.7 -1531,1789.1 175,2960 -4301,-923.8 2181,3233.3 1716,2104.8 z m -15070,-1447.4 c 9643,-333.6 2464,-21496.1 4843,-8015.5 -3865,16919.2 -27180,-2030.2 -11074,-8805.9 4111,-735.4 11497,854.1 2514,-1332.7 -16854,1023.5 -5213,26551.1 6441,15268.4 5106,-5856.2 -5008,7675.5 -9788,2384.1 -8649,-5038.1 3742,4288.3 7064,501.6 z m -38304,-774.1 c 3898,-1343.6 -12591,3064.6 -12410,-5433.1 -1385,-4917.1 1266,-14880 -1768,-3857.4 -128,6854.6 7801,12377 14178,9290.5 z m -188,-787.7 c 15379,-5852.2 -5272,-22357.5 -6350,-15932 17103,-3857.9 10092,24378.8 -3207,13647.1 -4458,-2701.8 89,-16315.7 -3048,-5794.3 399,6007.7 6745,11081.9 12605,8079.2 z m 45236,-489.5 c 132,-1532.2 -1456,2446.2 0,0 z m -40601,-1746.4 c 3448,-4413.6 -3987,3760.8 0,0 z m 40632,-3663.4 c 679,-6073.6 -3698,-10309.9 -736,-1502.9 178,3358.3 -837,6935.5 736,1502.9 z m -20060,1553.6 C 138877,37840 151876,31974.2 157359,34934.4 147735,28855.7 138874,41287 142361,47263.1 Z M 96544.8,44193.3 c -391.9,499.2 384.7,2552.2 0,0 z m 1117.4,936.5 c 693.7,-6159.7 -1581,-2100.9 0.1,0 z m 1,-2045.1 c 369.2,-681.3 114.2,1103.1 0,0 z m 66660.8,-254.4 c -1445,-8282.3 438,6812.5 0,0 z m 4433,820 c -785,-3326.9 -1099,-450.3 1,0 z m -37601,-2229 c 7796,1507 6805,-239.9 -412,-537.8 -5059,1566.1 -2849,1653 412,537.5 z M 122694,39937 c 797,-9510.1 -22834.2,-5572.8 -9073,-6288.5 4098,-3707 12227,13706.6 9073,6288.5 z m 18132,930.6 c 1664,-7573.6 -24597,-4241 -14490,781.8 -1376,-8816.5 425,4170.1 6400,-1322.2 1871,-1590.6 6684,-4477.3 6808,2104.5 l 455,-69.2 827,-1494.8 z m -3787,64 c -4525,-1914.7 2529,1743.2 0,0 z m 27885,255.8 c -631,-911.3 -309,935.4 0,0 z m -26743,-1822.8 c -311,-2200.5 -907,906.8 0,0 z m -8317,-5084.3 c 1429,1265.4 3120,-335.9 3915,971.1 1868,-1355.8 2077,-536.4 3357,-399.2 2681,-2006 1519,-360 3648,-1995.9 448,629.7 3061,-2912.8 2784,-1247.5 221,63.8 2690,-1108.6 2745,-865.9 -438,1249.3 3610,-880 3632,194.9 3980,-511.5 -574,3.1 4811,822.4 272,-1705.2 5267,4198.8 5115,-277 -4876,-3398 -5535,-3827.3 -9720,-4955.4 -1444,-1089.9 -6021,168 -6370,-678.8 -1955,-1214.4 -1083,-348.2 -3877,-501.3 -1997,-939.9 -3750,1304.4 -4323,-659.9 -1011,4235 -3678,-2309 -3436,1435.2 96,289.3 -2258,-696.4 -2911,-800.4 -551,735 -4726,-747.8 -4985,-15 -1233,580.1 -3933,572.5 -5939,597.1 -186,-12.4 -7652,827.5 -6469,1962.8 -7287,1373.7 1658,218.8 -6603,3426.6 3136,1901.3 13070,-1143 11602,-881 3261,2068.4 215,-3031.5 5775,2181.4 -1891,-3020.5 2253,622.3 1762,-254.5 1119,503.5 2613,3172 5487,1940.3 z m 1727,-3165.8 c -1693,-1654.5 3953,-1386.3 856,231.5 l -310,86.7 z m -3285,-607.6 c -2693,-3434.8 1896,1779.8 0,0 z m 1315,-319.8 c -815,-2253 1362,1663.9 0,0 z m 4622,255.8 c 417,-1909.5 1204,-654 0,0 z m 3052,8.8 c 1670,-1914.2 5417,-2232.6 0,0 z m -2046,-173 c 551,-1450.9 1009,-956.6 0,0 z m -8570,-447.3 c -4749,-2915.9 3015,937.7 0,0 z m 9829,-248.7 c 2208,-2463.7 -1213,2078.5 0,0 z m -15998,1747.7 c -1610,-1968.2 770,2215.7 0,0 z m -866,-375.8 c -631,-911.3 -310,935.3 0,0 z m 22911,-9662.7 c -1501,634.9 -852,1109.8 0,0 z"
       stroke_scale="True"
       mktablength="5160.23622047244"
       mktabpositions=""
       type="elem path"
       id="meerk40tshape"
       lock="False"
       label_display="False"
       hidden="False"
       stroke-linecap="butt"
       stroke-linejoin="miter"
       fill-rule="evenodd"
       stroke="none"
       stroke-width="0.374744"
       fill="#000000" />
  </g>
</svg>
