<?xml version="1.0" encoding="UTF-8" standalone="no"?>
<svg
   version="1.1"
   width="96mm"
   height="96mm"
   viewBox="0 0 247691.27 247691.17"
   id="svg1"
   sodipodi:docname="meerk40t.svg"
   inkscape:version="1.3 (0e150ed6c4, 2023-07-21)"
   inkscape:export-filename="meerk40t.png"
   inkscape:export-xdpi="270.93332"
   inkscape:export-ydpi="270.93332"
   xmlns:inkscape="http://www.inkscape.org/namespaces/inkscape"
   xmlns:sodipodi="http://sodipodi.sourceforge.net/DTD/sodipodi-0.dtd"
   xmlns="http://www.w3.org/2000/svg"
   xmlns:svg="http://www.w3.org/2000/svg">
  <defs
     id="defs1">
    <inkscape:path-effect
       effect="fill_between_many"
       method="originald"
       linkedpaths="#path1-9,0,1"
       id="path-effect3"
       is_visible="true"
       lpeversion="0"
       join="true"
       close="true"
       autoreverse="true" />
    <inkscape:path-effect
       effect="fill_between_many"
       method="originald"
       linkedpaths="#path1-9,0,1"
       id="path-effect4"
       is_visible="true"
       lpeversion="0"
       join="true"
       close="true"
       autoreverse="true" />
  </defs>
  <sodipodi:namedview
     id="namedview1"
     pagecolor="#ffffff"
     bordercolor="#000000"
     borderopacity="0.25"
     inkscape:showpageshadow="2"
     inkscape:pageopacity="0.0"
     inkscape:pagecheckerboard="0"
     inkscape:deskcolor="#d1d1d1"
     inkscape:document-units="mm"
     inkscape:zoom="26.179471"
     inkscape:cx="247.67498"
     inkscape:cy="37.605802"
     inkscape:window-width="3840"
     inkscape:window-height="2089"
     inkscape:window-x="-8"
     inkscape:window-y="-8"
     inkscape:window-maximized="1"
     inkscape:current-layer="g1"
     showgrid="false" />
  <g
     inkscape:label="Ebene 1"
     label_display="False"
     id="g1"
     transform="translate(-9618.6602,14494.678)">
    <rect
       style="fill:#00ff00;stroke:none;stroke-width:1048.89;stroke-dasharray:524.443, 524.443"
       id="rect1"
       width="247691.22"
       height="247691.22"
       x="9618.6602"
       y="-14494.678" />
    <path
       inkscape:original-d="M 0,0"
       inkscape:path-effect="#path-effect3"
       d="m 70152.995,-2163.3688 c -476.04,-408.61 6475.326,8189.65 8735.66,10613.67 5134.329,8704.7798 20649.104,16472.5698 20179.683,25275.5998 -3232.272,4582.89 -937.502,8415.91 -9651.848,8665.2 -5800.761,1812.07 -6703.009,6689.63 -7414.55,11026.49 -171.991,5676 846.227,9574.08 2817.289,11341.16 -797.006,-263.58 1349.162,5162.69 6971.89,7071.89 -5095.828,-2207.92 2723.951,2340.67 2353.296,1353.31 689.431,1199.74 1092.912,3030.74 1554.642,2226.63 2676.808,5227.102 4218.211,4968.314 6903.893,8023.874 -53.12,-2571.146 6519.99,6461.453 -662.66,4665.26 -6512.245,6566.73 -16109.014,7008.226 -23420.962,14085.115 -4742.213,7218.22 -8984.451,13378.41 -18013.05,15090.43 -4718.438,2718.12 -9498.316,5033.05 -15099.762,4145.26 -8177.278,3472.69 -21220.346,15515.57 -9731.847,22747.65 -7421.424,11749.26 -16750.979,22248.14 -23600.962,34360.79 -4246.5004,8231.5 624.899,4318.87 4848.919,561.9 12013.849,-9203.69 29548.813,-15885 43042.327,-5437.82 4401.226,13679.23 14135.793,4523.83 20241.234,-638.58 6998.025,3769.23 8421.748,13726.2 18171.495,14338.36 9141.998,2998.78 7490.378,9345.24 8041.208,17475.72 5801.06,15519.45 23007.17,2888.12 17654.2,-8603.84 -4319.11,-11556.77 3408.85,-4142.35 9930.21,-5354.8 18188.37,-9063.31 296.27,17431.95 14192.26,21697.05 18108.25,-975.93 7325.56,-18040.41 18541.89,-24305.08 10539.36,1955.5 16583.94,-17854.73 24901.43,-10942.23 6324.52,13716.38 11491.72,-3505.34 18090.38,-6782.56 15950.91,-7263.67 36613.43,2189.78 47373.51,14792.77 -1570.23,-12029.55 -14157.75,-24262.45 -21621.41,-35070.84 -7369.75,-5718.19 -2639.73,-8380.18 492.7,-13792.12 -3533.43,-11324.63 -16549.38,-17261.85 -27279.45,-18190.82 -12540.64,-2497.83 -16527.89,-12594.62 -25621.63,-19640.604 -6799.48,-6313.354 -14845.45,-8703.631 -22687.41,-11966.681 1216.17,-2656.449 1396.94,-1403.13 3539.66,-3145.2 1485.66,-1053.443 5443.18,-5913.034 6915.82,-6571.054 397.1,-2917.86 665.02,-2024.15 3080.92,-4231.94 8379.71,-4895.09 5549.73,-6695.47 9089.07,-10213.52 1622.69,-4863.82 -857.57,-12335.59 -2002.66,-14401.39 1703.66,-3308.99 -7975.99,-5731.34 -11816.56,-8990.53 3084.54,1923.14 -958.68,-3785.57 -3199.95,-6375.9 5371.17,-5430.14 10678.19,-11105.28 16138.54,-16628.88 5886.14,-5954.33 10977.94,-11705.9198 15987.97,-17472.4398 l -9342.21,5695.55 c -5058.37,3605.13 -15853.97,13822.1498 -21792.9,19729.9098 -4310.24,7067.44 -7654.29,643.97 -9369.19,-1099.3 -6730.51,-3245.78 -15478.64,-4595.62 -24730.58,-4229.03 -9741.14,385.98 -11868.92,456.41 -24094.88,4314.25 1650.91,334.88 -5609.04,2538.96 -1356.88,2276.59 -6132.95,2520.4 -183.48,-717.3 -3195.69,1532.09 -8416.841,-8406.18 -16573.102,-16722.41 -25513.185,-24577.6298 -2717.755,-1550.08 -4653.23,-2675.95 -7084.149,-3831.39 -2152.941,-2179.57 -1057.962,-245.17 -1485.721,-612.34 z"
       id="path3"
       transform="translate(-590.03744,1770.0988)"
       style="fill:#ffffff" />
    <circle
       style="fill:#ffeeaa;stroke:none;stroke-width:6044.91"
       id="path2"
       cx="130592.6"
       cy="109845.47"
       r="112235.09" />
    <path
       id="path1-9"
       d="m 62928.545,-180319 c -476.04,-408.61 6475.326,8189.65 8735.66,10613.67 5134.329,8704.78 20649.104,16472.57 20179.683,25275.6 -3232.272,4582.89 -937.502,8415.91 -9651.848,8665.2 -5800.761,1812.07 -6703.009,6689.63 -7414.55,11026.49 -171.991,5676 846.227,9574.08 2817.289,11341.16 -797.006,-263.58 1349.162,5162.69 6971.89,7071.89 -5095.828,-2207.92 2723.951,2340.67 2353.296,1353.31 689.431,1199.74 1092.912,3030.74 1554.642,2226.63 2676.808,5227.102 4218.211,4968.314 6903.892,8023.874 -53.12,-2571.146 6519.991,6461.453 -662.657,4665.26 -6512.247,6566.73 -16109.016,7008.226 -23420.964,14085.112 -4742.213,7218.219 -8984.451,13378.409 -18013.05,15090.429 -4718.438,2718.125 -9498.316,5033.052 -15099.762,4145.268 -8177.278,3472.685 -21220.346,15515.568 -9731.847,22747.642 C 21028.795,-22238.201 11699.24,-11739.326 4849.257,373.32746 602.75656,8604.8262 5474.1564,4692.1953 9698.1758,935.22514 21712.025,-8268.4647 39246.989,-14949.771 52740.503,-4502.5958 57141.729,9176.6415 66876.296,21.23588 72981.737,-5141.1687 c 6998.025,3769.2262 8421.748,13726.1979 18171.495,14338.3573 9141.998,2998.7774 7490.382,9345.2434 8041.207,17475.7244 5801.061,15519.445 23007.171,2888.118 17654.201,-8603.848 -4319.11,-11556.7689 3408.85,-4142.342 9930.21,-5354.801 18188.37,-9063.3069 296.27,17431.953 14192.26,21697.059 18108.25,-975.939 7325.56,-18040.418 18541.89,-24305.086 10539.36,1955.499 16583.94,-17854.7239 24901.43,-10942.22384 6324.52,13716.37084 11491.72,-3505.34516 18090.38,-6782.55986 15950.91,-7263.6743 36613.43,2189.7778 47373.51,14792.7622 -1570.23,-12029.5471 -14157.75,-24262.4435 -21621.41,-35070.8395 -7369.75,-5718.187 -2639.73,-8380.176 492.7,-13792.121 -3533.43,-11324.631 -16549.38,-17261.847 -27279.45,-18190.818 -12540.64,-2497.826 -16527.89,-12594.615 -25621.63,-19640.602 -6799.48,-6313.354 -14845.45,-8703.631 -22687.41,-11966.681 1216.17,-2656.449 1396.94,-1403.13 3539.66,-3145.2 1485.66,-1053.443 5443.18,-5913.034 6915.82,-6571.054 397.1,-2917.86 665.02,-2024.15 3080.92,-4231.94 8379.71,-4895.09 5549.73,-6695.47 9089.07,-10213.52 1622.69,-4863.82 -857.57,-12335.59 -2002.66,-14401.39 1703.66,-3308.99 -7975.99,-5731.34 -11816.56,-8990.53 3084.54,1923.14 -958.68,-3785.57 -3199.95,-6375.9 5371.17,-5430.14 10678.19,-11105.28 16138.54,-16628.88 5886.14,-5954.33 10977.94,-11705.92 15987.97,-17472.44 l -9342.21,5695.55 c -5058.37,3605.13 -15853.97,13822.15 -21792.9,19729.91 -4310.24,7067.44 -7654.29,643.97 -9369.19,-1099.3 -6730.51,-3245.78 -15478.64,-4595.62 -24730.58,-4229.03 -9741.14,385.98 -11868.92,456.41 -24094.88,4314.25 1650.91,334.88 -5609.044,2538.96 -1356.88,2276.59 -6132.955,2520.4 -183.48,-717.3 -3195.686,1532.09 -8416.845,-8406.18 -16573.106,-16722.41 -25513.189,-24577.63 -2717.755,-1550.08 -4653.23,-2675.95 -7084.149,-3831.39 -2152.941,-2179.57 -1057.962,-245.17 -1485.721,-612.34 z m 18120.846,71943.37 c -68363.691,138172.274 -68363.691,138172.274 0,0 z"
       style="fill:#ffffff;stroke:#ffffff"
       transform="translate(6634.4126,179925.73)"
       sodipodi:nodetypes="scccccccccccccccccccccccccccccccccccccccsccccscccccscc" />
    <path
       d="m 68.571755,28.607274 -2.601484,2.837982 -11.250575,11.35193 -1.283848,1.824418 -0.30407,2.398771 -2.027132,0.67571 -1.587918,-0.810852 -0.5828,-0.684157 -0.329409,-0.76862 0.346303,-1.309189 1.765292,-1.35142 1.61326,-0.253391 0.143586,0.650371 4.814435,-4.493472 4.915792,-4.907345 2.483233,-2.432557 0.346303,-0.320962 3.539032,-2.407217"
       transform="matrix(2580.1195,0,0,2580.1195,19036.288,-72153.941)"
       stroke_scale="True"
       mktablength="5160.23622047244"
       mktabpositions=""
       type="elem path"
       id="path26"
       lock="False"
       label_display="False"
       hidden="False"
       stroke-linecap="butt"
       stroke-linejoin="miter"
       fill-rule="evenodd"
       stroke="none"
       stroke-width="1.6"
       fill="#ff0000" />
    <path
       d="m 20.326051,28.370775 2.871769,1.756846 12.939847,12.973635 -0.06757,-0.743281 h 1.216277 l 1.959559,1.385206 0.200324,1.076535 -0.04778,0.370295 -0.26279,0.668919 -0.609195,0.991433 -0.836149,0.394185 -1.182553,-0.179175 -1.887307,-1.708133 0.250846,-0.955598 0.788368,0.21501 -7.166988,-7.859797 -8.166658,-8.38608"
       transform="matrix(2580.1195,0,0,2580.1195,19036.288,-72153.941)"
       stroke_scale="True"
       mktablength="5160.23622047244"
       mktabpositions=""
       type="elem path"
       id="path25"
       lock="False"
       label_display="False"
       hidden="False"
       stroke-linecap="butt"
       stroke-linejoin="miter"
       fill-rule="evenodd"
       stroke="none"
       stroke-width="1.6"
       fill="#ff0000" />
    <path
       d="M 3.6469929,87.296135 C 1.4593631,82.123996 0.24965244,76.437523 0.24965286,70.468506 0.24965328,64.49949 1.4692349,58.822837 3.6618002,53.655609 5.8543654,48.488382 9.0199143,43.830578 12.911849,39.899261 c 1.9234,-1.942863 4.030486,-3.698056 6.3005,-5.239891 1.135007,-0.770918 1.702607,-1.218212 2.916484,-1.87924 m 3.753447,-1.810222 c 5.150228,-2.178866 11.477279,-3.671836 17.598814,-3.732844 5.96872,-0.05948 11.65549,1.209711 16.827628,3.397341 1.293034,0.546907 1.303859,0.648152 2.52898,1.313678 m 2.452328,1.209886 c 0.594223,0.36106 1.787192,1.073896 2.362174,1.462346 2.299927,1.5538 4.442297,3.323107 6.398135,5.278945 7.823352,7.823352 12.662196,18.631213 12.662197,30.569246 10e-7,5.969017 -0.731911,10.795451 -2.919541,15.96759 m -4.463709,8.203521 c -1.553801,2.299927 -3.323107,4.442297 -5.278945,6.398133 -7.82336,7.82335 -18.631213,12.6622 -30.569247,12.6622 -11.938033,0 -22.745894,-4.83884 -30.569246,-12.6622 C 10.95601,99.081915 9.1867035,96.939545 7.632903,94.639617"
       transform="matrix(2580.1195,0,0,2580.1195,19036.288,-72153.941)"
       stroke_scale="True"
       mktablength="5160.23622047244"
       mktabpositions=""
       type="elem path"
       id="path24"
       lock="False"
       label_display="False"
       hidden="False"
       stroke-linecap="butt"
       stroke-linejoin="miter"
       fill-rule="evenodd"
       stroke="#b3b3b3"
       stroke-width="1.53712"
       fill="none" />
    <path
       d="m 37.20854,46.397556 c 2.68502,-0.268938 -0.19934,-5.121942 1.568951,-1.59018 0.957039,1.290771 -3.062486,2.0502 -1.568951,1.59018 v 0"
       transform="matrix(2580.1195,0,0,2580.1195,19036.288,-72153.941)"
       stroke_scale="True"
       mktablength="5160.23622047244"
       mktabpositions=""
       type="elem path"
       id="path20"
       lock="False"
       label_display="False"
       hidden="False"
       stroke-linecap="butt"
       stroke-linejoin="miter"
       fill-rule="evenodd"
       stroke="none"
       stroke-width="0.374744"
       fill="#000000" />
    <path
       d="m 50.247035,46.548987 c -2.3795,-1.173933 1.200445,-4.818324 -0.712184,-1.382997 -0.255012,1.223795 3.001903,1.819191 0.712184,1.382997 v 0"
       transform="matrix(2580.1195,0,0,2580.1195,19036.288,-72153.941)"
       stroke_scale="True"
       mktablength="5160.23622047244"
       mktabpositions=""
       type="elem path"
       id="path19"
       lock="False"
       label_display="False"
       hidden="False"
       stroke-linecap="butt"
       stroke-linejoin="miter"
       fill-rule="evenodd"
       stroke="none"
       stroke-width="0.374744"
       fill="#000000" />
    <path
       d="m 60.310473,56.469843 c 1.795761,-1.220731 -0.782898,0.793043 0,0 v 0"
       transform="matrix(2580.1195,0,0,2580.1195,19036.288,-72153.941)"
       stroke_scale="True"
       mktablength="5160.23622047244"
       mktabpositions=""
       type="elem path"
       id="path12"
       lock="False"
       label_display="False"
       hidden="False"
       stroke-linecap="butt"
       stroke-linejoin="miter"
       fill-rule="evenodd"
       stroke="none"
       stroke-width="0.374744"
       fill="#000000" />
    <path
       d="m 50.220818,110.85977 c -5.38579,-1.65306 1.577084,-12.379475 -5.558092,-8.49512 -2.527541,0.46992 -6.265765,-2.689462 -4.591772,1.78969 1.93177,4.39687 -3.793653,9.89257 -6.042023,3.87757 -0.213488,-3.1512 0.42692,-5.61101 -3.11632,-6.77327 -3.778792,-0.23726 -4.616387,-4.55371 -7.328671,-6.014581 -2.509265,1.829324 -5.853387,6.006761 -7.559207,0.704982 -4.943941,-4.30637 -12.4549846,-1.85948 -17.1112937,1.707672 -1.637139,1.456119 -3.0965453,3.372307 -1.4506931,0.181955 2.65490596,-4.694604 6.270847,-8.763553 9.1472311,-13.317315 -4.4526946,-2.802996 0.6026829,-7.470607 3.7720197,-8.816545 2.171,0.344086 4.023683,-0.552841 5.852448,-1.606328 3.499291,-0.663542 5.143226,-3.051065 6.981206,-5.848691 2.833954,-2.742849 6.553471,-2.914168 9.077478,-5.459291 2.783842,0.696166 0.236107,-2.804538 0.256695,-1.808017 -1.040912,-1.184269 -1.637882,-1.084097 -2.675355,-3.11001 -0.178957,0.311656 -0.335622,-0.398055 -0.602831,-0.863048 0.143658,0.38268 -2.887233,-1.380188 -0.9122,-0.524445 -2.179248,-0.739964 -3.01077,-2.843358 -2.701868,-2.741201 -0.763941,-0.684882 -1.158836,-2.195365 -1.092176,-4.395258 0.275778,-1.680879 0.625589,-3.571201 2.873839,-4.273519 3.377493,-0.09662 2.488089,-1.582168 3.740848,-3.358397 0.181938,-3.411865 -5.831188,-6.422835 -7.821143,-9.796618 -1.168076,-1.252665 -5.181795,-5.78031 -1.844061,-2.401298 4.974921,5.101605 10.134332,10.066344 14.702292,15.535623 -3.610522,-1.987496 1.245286,4.619247 2.753982,0.788138 2.26014,-2.470665 -5.006575,-4.657687 -2.179112,-2.007257 -4.902318,-4.254673 -9.369784,-9.101082 -13.788143,-13.875952 3.464984,3.044514 6.659414,6.380365 9.921602,9.638419 1.167465,-0.87182 -0.820473,-0.230592 1.556532,-1.207443 -1.648051,0.101688 1.13561,-0.581156 0.495756,-0.710951 1.391211,-0.507907 3.480925,-0.968363 4.039115,-1.277323 1.33641,0.0062 0.987809,-0.456499 2.400634,-0.314126 0.692282,-0.222346 1.642948,0.366625 2.287156,-0.05963 0.541519,0.08307 1.275046,0.306717 2.529689,0.05941 1.388307,-0.127247 0.778785,0.04883 1.882476,0.10293 0.393897,0.482157 1.563664,0.490368 3.320074,0.811147 0.724197,0.519666 1.953357,0.619661 2.434133,1.423056 0.664657,0.675655 1.960846,2.285704 3.6314,-0.453485 2.301802,-2.289718 5.616782,-5.602753 7.577294,-7.000022 -4.420899,4.555129 -8.781986,9.214054 -13.590781,13.357457 3.544916,-3.904408 -6.177422,0.468094 -1.341004,2.684214 2.270202,1.371213 4.090163,-3.537729 2.050129,-1.770255 5.191978,-5.895928 10.874744,-11.356696 16.543116,-16.79202 -3.883562,4.469955 -8.065687,8.674374 -12.229183,12.883585 0.868667,1.003954 2.435393,3.216139 1.239892,2.47077 1.488525,1.263191 5.846819,2.20215 5.186516,3.48464 0.443813,0.800659 0.862022,3.496315 0.233097,5.381432 -1.371769,1.363518 -0.10363,1.946983 -3.351422,3.844214 -0.936353,0.855692 -1.154572,0.509519 -1.308477,1.640418 -0.570765,0.255033 -2.018704,2.195417 -2.594518,2.603709 -0.687543,0.789531 -1.586688,0.418227 -1.572097,1.676493 3.039374,1.264688 6.443647,2.448697 9.078979,4.895617 3.524537,2.730873 5.384586,6.672509 10.245065,7.640613 4.158746,0.360049 8.231548,2.175028 9.858303,6.478455 -1.214064,2.097553 -2.818958,3.558179 0.0374,5.774425 2.892753,4.189102 6.54252,7.987115 8.351698,12.821022 -4.170376,-4.884646 -11.664288,-8.119814 -17.846517,-5.30457 -2.557499,1.270178 -4.560097,7.94502 -7.011347,2.628849 -3.566706,-3.994069 -5.624001,4.655721 -9.708831,3.897811 -6.119509,1.22746 -0.110599,9.21342 -7.128961,9.59167 h 4e-6 m -14.708221,-2.2351 c 0.03529,-1.72102 -0.52711,-8.50903 -1.151167,-3.18367 -0.130647,2.86799 0.57317,2.7406 0.574643,0.26007 -0.09558,-0.98465 0.765621,5.98612 0.576524,2.9236 v 0 m 17.110159,0.35877 c 0.401007,-2.40485 0.654275,-4.54139 0.661293,-0.66423 1.244362,-1.48286 -0.27504,-7.8344 -0.524735,-3.05088 0.484602,0.20037 -1.065937,6.12473 -0.136558,3.71511 v 0 m -0.01653,-4.37439 c -0.204373,-2.49401 -0.18984,4.15118 0,0 v 0 m -16.97964,-0.84661 c -0.192658,1.93519 0.246596,2.99003 0,0 v 0 m 0.460983,1.56734 c -0.16442,0.12692 0.146769,0.65351 0,0 v 0 m 18.687644,-3.09133 c 6.176976,-2.872124 6.988406,-11.161585 4.222608,-16.715954 -1.803953,4.019121 -1.737888,8.586094 -3.922017,12.460748 1.512778,-1.012669 2.514834,-7.503046 2.605529,-6.054112 0.289925,1.995493 -2.202067,6.602815 -2.128658,6.632864 1.699721,-1.165563 2.642287,-7.077645 2.727429,-6.86969 0.187688,2.373452 -2.176187,7.394879 -2.735858,7.810473 1.633004,-1.812069 3.60784,-3.976179 1.24884,-0.653123 -2.721234,3.917884 4.20421,-5.165804 0.874584,-0.246172 -1.92552,2.673866 -0.414217,1.114734 0.748453,-0.537989 -0.213674,2.104995 -6.200544,5.041235 -2.021744,2.866275 -1.211791,2.09924 -7.713836,1.0296 -2.480464,1.58271 l 0.861302,-0.27595 -4e-6,-8e-5 m 2.283838,-3.573944 c 0.430257,-0.623959 -0.211582,0.662811 0,0 v 0 m -0.118404,-1.047367 c 1.152883,-1.995419 2.358842,-7.894466 1.13023,-2.34189 -0.252073,0.827522 -0.526565,1.694209 -1.13023,2.34189 v 0 m 0.81527,-6.98837 c 0.07973,-0.620522 0.07973,0.620522 0,0 v 0 M 35.82514,102.4281 c 1.868991,0.13873 -5.702649,-1.18461 -3.17583,-1.07558 1.463043,0.93409 -4.316903,-3.204001 -3.372711,-5.080438 0.300511,2.306822 4.544464,6.088148 1.200535,2.033068 -1.606092,-4.326127 -0.121199,0.142094 1.551314,1.30695 -2.022807,-1.100101 -3.201341,-10.415624 -1.975729,-4.715858 -0.02165,2.150418 4.038344,6.689728 1.127551,2.331998 -0.946305,-2.344453 -1.948076,-8.045371 -0.581469,-2.636614 0.190015,2.032736 3.869107,6.472654 1.210085,2.362753 -1.106562,-1.465084 -1.996026,-8.908146 -0.866843,-3.72295 0.290679,2.021894 3.494063,7.211731 1.09194,2.5241 -1.159119,-2.724415 -1.590094,-9.031189 -3.138092,-9.806216 -2.463832,5.444959 -1.432323,13.03849 4.17402,16.097177 0.822504,0.49185 1.8336,0.55462 2.755229,0.38161 v 0 M 29.696222,91.025375 c 0.07973,-0.620522 0.07973,0.620522 0,0 v 0 m 24.142967,11.045005 c -0.392862,-0.20845 -0.09225,0.22323 0,0 v 0 m -19.654605,-0.1384 c -1.010841,-0.43745 0.271112,0.40759 0,0 v 0 m 20.051212,0.0392 c -0.392871,-0.20846 -0.09225,0.22323 0,0 v 0 M 47.56996,99.010886 c 4.182113,-1.376719 8.235668,-4.768678 8.869721,-9.324051 -1.96423,3.7774 -5.677592,6.332599 -9.599767,7.817248 2.677031,-0.39006 5.421454,-2.681524 6.934969,-4.016821 -1.320431,2.054195 -5.747944,4.017032 -6.442122,4.52579 1.928089,-0.529373 6.599386,-3.250622 2.475199,-0.713071 -2.042934,0.996128 -4.410862,1.995932 -0.81073,0.712637 2.34214,-0.82317 -4.240327,1.963712 -1.42727,0.998268 v 0 m -6.897626,-0.08692 c -2.267496,-1.101623 -3.287015,-2.038755 -0.432686,-0.547235 2.158584,1.063759 -7.610901,-4.477172 -2.166538,-1.542317 1.48554,0.875396 5.452057,2.011411 1.740333,0.575739 -1.859451,-0.248521 -7.80716,-5.912263 -3.730417,-2.464671 1.52068,1.556287 7.530304,3.438087 2.530523,1.312473 -2.726298,-0.589178 -6.262808,-6.186738 -6.862245,-5.744186 1.367549,4.206758 5.190333,7.337569 9.324265,8.633 l -0.403239,-0.2228 4e-6,-3e-6 m 4.617157,-4.18676 c 4.405854,-3.41297 8.626758,-7.211143 11.779314,-11.845 -2.038905,-2.087252 -4.064654,-4.18729 -6.107921,-6.270294 -4.57362,0.489474 -9.205011,0.51625 -13.778797,0.01346 -1.760913,2.799303 -8.494615,5.647559 -4.211252,8.854898 3.315924,3.729199 6.992886,7.220837 11.078558,10.095118 l 0.425921,-0.249487 0.814177,-0.5987 v 5e-6 m -2.671792,-0.766471 c -2.151258,-1.044835 -2.962893,-2.816911 -2.533634,-5.063671 0.09089,-2.436688 -0.592688,-8.464171 1.16221,-2.90984 0.577035,1.627811 2.032326,6.523742 3.977934,3.814899 1.026923,-1.798529 3.245732,-9.563594 2.819876,-3.923561 -0.175159,2.033668 0.264769,4.358066 -0.228456,6.248655 -1.656751,0.84751 -3.506593,4.171582 -5.19793,1.833518 v 0 m -7.308566,-6.635961 c -2.754464,-2.193552 -4.722786,-4.957536 -0.911495,-7.139805 1.597771,-1.996614 3.221755,-3.862183 5.975385,-2.778383 3.45723,0.125175 6.928859,0.108723 10.369768,-0.282051 1.831433,2.009834 4.097176,3.772378 5.589336,5.987156 -1.073559,1.069802 -4.671314,6.82962 -4.938903,4.633394 -0.002,-2.917412 -0.0041,-5.834824 -0.0061,-8.752236 -3.40978,-0.41238 -5.848061,0.668716 -6.505932,4.353918 -1.577356,4.522022 -2.00439,-3.603625 -4.093111,-4.185982 -1.238697,0.366656 -4.076786,-0.893399 -4.077575,0.73231 -0.01578,2.949107 -0.03155,5.898215 -0.04732,8.847322 -0.451358,-0.471881 -0.902717,-0.943762 -1.354075,-1.415643 h 2.2e-5 M 1.5143535,94.271424 C 4.7058671,91.903206 7.8524727,89.452437 10.685815,86.657808 7.4483278,89.196269 4.4204054,92.028601 1.006801,94.322269 4.212933,90.80972 8.4337436,88.374334 11.578174,84.792417 10.057968,86.303627 2.5462186,91.92545 7.5930411,87.718826 9.0329408,86.617117 14.136287,81.463209 10.193439,85.003693 8.9033041,86.174448 4.4258352,89.746911 8.2732918,86.393421 10.565198,84.939513 13.68031,81.1626 8.8126582,82.263922 6.2131223,86.878011 2.8028146,90.969239 -0.04710341,95.423138 0.47951921,95.047606 0.99561231,94.65767 1.5143535,94.271424 v 0 M 9.991758,84.292726 c 1.139249,-1.157645 0.898542,-0.5168 -0.063877,0.108466 l 0.063877,-0.108466 m 78.328741,10.825719 c -2.960912,-4.341086 -6.249831,-8.511338 -9.073836,-12.911405 -3.866386,-0.903807 -2.983623,1.620935 -0.617291,2.961058 1.246342,1.053892 6.518476,5.554782 2.211731,2.125658 -1.657786,-1.30748 -6.739116,-5.621333 -2.559355,-1.730406 1.562562,1.391325 7.201694,6.219912 2.482311,2.531434 -1.389695,-1.104 -6.473634,-5.339784 -2.562083,-1.745114 2.2686,2.22852 8.491134,6.620417 8.443174,7.539675 -2.541637,-1.766559 -7.538446,-6.269506 -8.320988,-6.539327 2.885921,2.588354 7.471981,6.473283 9.996338,7.768426 l -10e-7,10e-7 M 78.593266,84.724993 c -2.385359,-1.9771 -2.027811,-2.110271 0.108406,-0.07007 l 0.507838,0.501459 -0.616244,-0.431389 m -27.529248,7.357392 c 2.38861,-1.134725 6.317161,-6.527095 6.320165,-6.25415 -1.386861,2.167066 -3.088192,3.862544 -3.568735,4.652162 -3.093631,3.522357 4.95774,-5.132156 0.961193,-0.22156 -2.098087,2.428215 -0.276817,0.834393 0.751208,-0.480107 -1.065352,1.545626 -3.147421,3.65376 -0.404388,1.158768 2.343873,-1.611567 4.19024,-7.674338 3.035234,-8.624438 -0.292144,2.226298 -3.869387,5.495205 -3.898766,6.037394 1.764021,-0.829519 5.459334,-8.215194 2.78306,-2.774855 -0.51374,1.872885 -7.18862,7.321244 -5.978971,6.506786 v 0 m 5.082498,-3.676 c 1.394879,-2.095507 1.432116,-1.408604 0,0 v 0 m -18.08911,3.917556 c -1.503574,-1.355585 -6.075937,-4.930554 -2.072308,-1.539112 0.57418,0.50082 1.612402,1.315718 2.072308,1.539112 v 0 m 15.312885,-0.615914 c -0.550176,0.162856 -0.616156,0.719702 0,0 v 0 M 33.942233,91.157914 c -1.282223,-1.142024 -2.302416,-3.026013 -0.429535,-0.666991 -1.095941,-1.486166 -4.5127,-6.066055 -1.456895,-2.207623 1.388202,2.025259 5.122123,5.050663 1.550668,1.469403 -1.296055,-1.375374 -4.593107,-6.479025 -1.700345,-2.495065 1.157075,1.918294 6.201568,6.286355 2.203632,2.21276 -2.013576,-1.230693 -5.395345,-9.702912 -4.080439,-3.6415 0.294501,2.368937 3.541891,5.592293 4.546306,5.934125 l -0.633392,-0.605109 m 0.291929,-0.06441 c -0.597132,-0.660271 -1.010317,-0.850553 0,0 v 0 m -0.0571,-2.571686 c -1.493789,-1.727933 -4.357969,-4.831201 -1.408896,-1.267442 -0.06933,-0.07914 2.075051,2.156135 1.408896,1.267442 v 0 M 6.7693528,83.62165 c -0.6224206,-1.351229 -0.4791034,0.380082 0,0 v 0 M 81.768889,83.498903 c 1.096161,-2.099864 -2.821396,-2.909529 -0.489295,-0.328467 1.308045,-0.505553 -0.622965,0.8448 0.489291,0.328467 h 4e-6 M 7.0860292,83.01883 c 2.1839639,-3.464757 -2.674521,0.03767 -0.2079876,0.256228 l 0.2079876,-0.256251 v 2.3e-5 m 0.7093013,1.05e-4 c 0.8262735,-1.777352 -0.8652958,1.213845 0,0 v 0 m 22.6992335,0.09915 c -1.329527,-2.556546 -0.412594,-0.115051 0,0 v 0 m 49.95797,-0.342871 c -0.716368,-0.914861 0.614336,1.25502 0,0 v 0 m 1.70574,-0.330674 c -0.31769,-0.390443 0.108487,0.491594 0,0 v 0 M 58.146467,81.809712 c 0.998543,-1.833874 -1.66265,2.050383 0,0 v 0 M 5.8491947,81.125078 c -0.1086792,-3.923288 -1.0501418,4.177201 0,0 v 0 m -0.4679548,0.58596 c 0.1737613,-0.521491 0.1541269,0.364358 0,0 v 0 m 77.4664271,0.526455 c 0.534517,-0.856071 -1.643272,-4.361271 -0.490453,-0.768101 -0.133792,-0.156336 0.144489,1.118109 0.490453,0.768101 v 0 M 31.16048,82.121619 c -0.523097,-1.053307 -0.337246,0.384546 0,0 v 0 M 13.56119,81.90788 C 13.020698,81.387508 8.2460456,80.925315 12.165826,81.87972 l 0.549529,0.09579 0.84584,-0.06763 h -5e-6 m 63.313857,-0.300792 c 3.111015,-1.111873 -5.305007,0.737864 -0.960642,0.291935 l 0.960642,-0.291935 m -61.323886,0.02923 c 1.559282,-2.197166 0.9555,-3.174279 1.827347,-2.297673 0.0745,-0.652224 0.592504,0.223211 0.529632,-0.707157 0.678774,0.937128 0.147524,-0.475266 0.85357,0.483851 -0.67166,-2.151328 0.842191,1.217511 0.244831,-1.085371 1.11426,2.710096 -0.07151,-1.817445 0.974014,0.864306 0.730854,0.0663 -0.62281,-2.954881 0.642447,-0.485913 -1.729806,-4.500608 1.729222,2.07789 2.210822,0.904581 -2.083956,-0.611952 -2.898106,-5.685872 -1.257268,-1.637383 2.496091,3.990743 -2.240238,-5.223379 0.434872,-0.523893 0.495501,0.610638 -1.650935,-4.353494 0.339596,-0.662585 1.567484,2.167333 -1.869356,-4.083477 0.139928,-1.135889 -1.178694,-2.965005 2.612503,4.482475 0.506015,-0.01114 -1.596512,-4.166678 2.273076,3.613238 0.246282,-0.8127 -0.716933,-2.030778 2.45516,3.993796 0.462926,-0.214011 -0.22897,-0.768172 2.777931,3.956652 1.061439,0.81592 -2.238206,-4.612117 2.223572,3.18864 0.465548,-0.357848 -1.703881,-3.34569 2.968047,4.441286 0.520161,-0.25667 -2.026953,-4.260821 3.193741,4.680501 0.705509,-0.166386 -1.91451,-3.984233 3.902028,5.737896 1.22993,0.649196 -1.278187,-2.404703 -1.300143,-2.941051 0.124336,-0.433252 2.225139,2.673285 4.632688,8.984756 7.420627,3.352358 1.125639,-2.177335 3.167626,-1.748357 5.214665,-1.488313 3.55742,0.17007 7.125601,0.0682 10.667219,-0.305115 1.48716,1.491334 2.974319,2.982669 4.461477,4.474005 1.933971,-2.090421 5.229953,-6.892719 5.804202,-7.527701 -1.005759,2.039386 -2.540287,5.035687 -0.02961,1.395429 2.613477,-4.510289 -2.533084,5.350391 0.936945,-0.06383 2.534245,-4.752605 -2.205452,4.757937 0.726679,0.361285 2.508475,-3.92951 -1.875699,3.721425 0.710775,0.396607 2.196253,-4.239856 -1.60043,3.527963 0.972011,-0.667233 1.189725,-1.973399 -1.618377,3.755233 0.412795,0.211228 1.569593,-2.481001 -2.218647,4.934119 0.333913,0.671966 1.746615,-2.867825 -2.118194,4.306368 0.400275,0.255168 1.495323,-2.882481 -1.369856,3.49113 0.960846,-0.173678 -1.241585,2.572096 -1.54088,4.004738 0.04894,0.713136 0.476448,1.23776 -3.965257,5.428043 -0.278195,1.828714 1.325921,-2.518115 0.683972,-1.342752 0.403176,0.396244 0.538843,-1.834908 0.264839,1.9343 0.639496,-0.503168 0.19889,1.275556 0.298073,-0.259808 0.521565,0.832284 0.450757,-1.180235 0.577793,1.411666 1.345492,-0.391841 -0.228161,1.191106 0.28739,0.255162 0.320524,0.650123 0.294194,-0.81103 0.0955,0.978037 0.492855,-0.143773 0.197044,0.804994 0.357692,-0.874517 0.525591,0.504097 -0.08194,-1.76007 1.643915,3.489944 0.201621,0.964806 1.710638,3.295842 -0.0016,-2.588941 1.112901,0.781267 2.562273,2.268769 -2.097608,-2.866037 1.045147,-3.832914 2.857417,-2.356825 -4.529029,-2.945166 -6.080049,-4.306077 -2.408661,-1.618346 -5.275012,-5.770167 -8.472109,-3.641531 -4.302528,2.266113 -8.71732,4.463025 -13.430676,5.687777 4.689398,-0.62263 -7.481224,-1.011544 -2.589754,0.05488 -5.398435,-1.591486 -10.169547,-4.701821 -15.392568,-6.689298 -3.744441,1.660155 -6.367798,5.353502 -10.534653,6.365017 -2.73722,0.928393 -3.170046,1.739186 -1.023669,3.754454 2.61928,1.539121 -2.701222,4.051351 -0.110395,3.153646 l 4e-6,-2e-6 m 16.374463,-2.43471 c -1.572289,-0.957033 -5.11156,-8.211895 -2.430366,-3.74954 0.206225,0.709068 4.88423,6.088929 2.430366,3.74954 v 0 m 23.839373,0.115002 c 1.303713,-1.308593 5.551719,-8.188544 2.910263,-3.415871 -0.286932,0.736344 -3.922457,5.041908 -2.910263,3.415871 v 0 M 31.851211,77.827678 c -1.45424,-1.454828 -3.478676,-5.635493 -1.147926,-1.833455 0.401202,0.67292 2.986305,3.842191 1.147937,1.833455 h -1.1e-5 m 24.058479,0.308058 c 1.297143,-1.865658 3.94791,-5.484037 1.216391,-1.437689 -0.40954,0.472353 -0.717714,1.045481 -1.216391,1.437689 v 0 m 11.548521,-0.545331 c 0.307315,-1.272174 0.05105,0.631946 0,0 v 0 M 15.028596,77.016736 c -1.508792,-1.282677 0.663643,0.21532 0,0 v 0 m 58.348238,-0.50195 c -0.546034,-0.30653 1.671379,-0.392825 0,0 v 0 m -0.680269,-0.100634 c 0.983042,-0.856066 0.356279,-0.02635 0,0 v 0 M 14.007371,76.249621 c 0.904698,-0.532772 1.466022,0.402648 0,0 v 0 m 1.27037,-0.36292 c 0.434658,-0.141988 0.04293,0.190761 0,0 v 0 m 27.35946,0.0022 c 0.546009,-0.160928 0.09909,0.173535 0,0 v 0 m 2.530236,-0.003 c 0.653543,-0.146718 0.126822,0.16448 0,0 v 0 m 0.543442,-0.09611 c 0.546009,-0.160928 0.09909,0.173535 0,0 v 0 m -2.770027,-0.69612 c 0.434634,-0.142031 0.04296,0.190803 0,0 v 0 m 6.94882,-0.238798 c 1.611994,-0.608799 -1.367118,0.67125 0,0 v 0 M 38.965807,74.471949 c -1.98113,-0.524546 -6.812722,-3.599134 -2.293262,-1.214621 0.548011,0.263148 5.503782,2.280277 2.293262,1.214621 v 0 m 8.554578,0.359762 c 2.059461,-0.774708 9.214673,-3.943461 3.818176,-1.262165 -1.224384,0.539741 -2.493661,1.044935 -3.818176,1.262165 v 0 m 3.186187,-0.31157 c 1.664664,-0.860139 0.40942,0.05542 0,0 v 0 M 19.931638,73.509372 c 0.546009,-0.160928 0.09909,0.173535 0,0 v 0 m 47.790748,0 c 0.546009,-0.160928 0.09909,0.173535 0,0 v 0 M 18.320435,81.39426 c 2.303377,-0.450924 3.127815,-1.853057 1.40948,-0.92061 -0.222059,-0.231305 -0.949017,-0.345648 -1.514798,0.295456 -0.307369,-0.716071 -1.132239,0.556271 -1.243096,-0.07553 -2.69139,2.003266 -0.393232,0.821686 1.348414,0.700681 v 3e-6 m 13.434951,0.328511 c -1.056916,-1.615325 -1.221523,-0.4081 0,0 v 0 M 57.467739,80.88719 c 2.270188,-3.032478 -0.556119,-0.367436 -0.725313,0.917148 l 0.249548,-0.269412 0.475765,-0.647736 m 14.601142,0.761034 c -2.572849,-1.936395 -1.548254,-0.455803 -3.310662,-1.529453 0.347066,0.889359 -1.14985,-0.924621 -0.529213,0.468719 -4.885624,-2.050055 4.963449,2.649604 3.839875,1.060734 v 0 M 14.916383,80.73286 c 1.433719,-2.760011 -2.150724,-0.935768 -0.756798,0.575722 -0.280974,-1.026085 -1.007072,-0.817445 -0.02688,0.07994 l 0.339978,-0.151025 0.443705,-0.504634 -5e-6,-3e-6 m 1.572432,0.253484 c 0.643663,-2.364964 -0.861571,1.541912 0,0 v 0 m 57.823214,0.247874 c 1.220888,-1.313403 -2.712395,0.442525 3e-5,-2e-6 l -3e-5,2e-6 M 31.592312,80.241301 c -2.131359,-2.41584 -1.913031,-1.551989 -0.09013,0.475261 0.6342,1.275858 1.35783,-0.232143 0.09013,-0.475261 v 0 m 25.144167,0.181417 c 2.888686,-3.863819 -2.625638,2.163402 0,0 v 0 m 17.158052,0.553605 c 1.745992,-2.076266 -2.564641,-2.343231 -0.744728,-0.163497 -0.673107,-1.464054 0.6636,0.767652 0.744728,0.163497 v 0 M 7.0783623,80.823409 C 8.3279044,78.550622 7.342806,77.166053 6.5395247,80.256216 7.380985,79.876327 5.9667749,81.420569 7.0783623,80.823409 v 0 M 81.45479,80.655816 c 0.225611,0.154915 -0.351935,-2.939778 -0.968281,-2.0491 -0.418605,0.797352 1.472648,3.261297 0.968281,2.0491 v 0 M 8.9017534,80.458843 c 0.7753745,-1.312819 3.2520306,-6.111824 0.3263958,-3.28582 1.9419778,-0.690575 -3.3776465,3.256602 -0.277476,2.877171 -0.3555917,0.143651 -0.85467,0.858862 -0.04892,0.408649 h 2e-7 m 70.9089386,-0.0151 c 0.122768,-0.475112 -0.20823,-2.705381 -1.256111,-3.448215 0.510588,-0.797918 -3.071435,-1.298999 -0.472349,0.777701 0.650892,0.696568 0.374352,2.894616 1.72846,2.670514 v 0 M 11.303419,79.949394 c 0.501378,-2.803829 1.036396,-0.891986 1.419287,-1.207325 0.185379,-0.161459 0.08012,0.291421 1.242841,-0.170884 2.406055,-1.128621 -3.805267,-3.273321 -2.761534,-1.314794 -2.2366908,2.172449 0.174563,2.312698 -0.470172,3.025331 l 0.569591,-0.332336 -1.3e-5,8e-6 m 9.030461,0.01803 c -0.280591,0.191649 -0.117792,0.4313 0,0 v 0 m 57.166776,0.107683 c -0.189789,-0.586364 1.082659,-1.338856 -0.372148,-2.88317 -1.924974,-2.78406 -4.698681,1.949834 -2.287821,1.588276 0.34421,0.208329 0.805035,-0.05232 1.178937,-0.254407 -0.125308,-1.2635 1.794119,2.778187 1.481032,1.549301 v 0 m -2.210182,-1.31155 c -0.289006,-0.642401 0.156875,-0.310154 0,0 v 0 m -60.408279,0.138351 c 1.465116,-0.378003 -2.188115,-0.07332 0,0 v 0 m 58.657083,-0.09087 c 1.036604,-1.399082 -1.909571,0.720768 0,0 v 0 M 8.3709192,78.334054 c 0.2563493,-0.956717 -0.7136585,1.022192 0,0 v 0 m 19.0218278,0.198303 c -2.331867,-0.573203 -2.930078,0.0396 0,0 v 0 M 62.4766,78.394399 c 0.302715,-0.505553 -3.994655,0.605229 -0.472628,0.131344 l 0.472624,-0.131344 h 4e-6 m 17.37929,-0.08678 c -0.304718,-0.241609 0.295421,0.532326 0,0 v 0 M 8.388917,77.546748 c -0.6175664,0.342524 -0.00674,0.869143 0,0 v 0 M 80.14104,77.85813 c -0.414623,-0.771225 -0.740148,0.01538 0,0 v 0 M 45.884396,73.173912 c 5.904271,-0.568251 10.878978,-4.314312 16.280436,-6.256972 -1.493438,-0.277499 -2.999562,0.307293 -0.71374,-0.580149 -4.674988,0.523128 -8.077011,4.747718 -12.712323,5.703707 -5.368142,1.69515 -11.480695,0.59231 -15.548881,-3.417065 -1.303281,-1.169688 -4.892857,-3.865229 -1.397165,-1.569143 1.214655,0.895174 7.260634,5.383104 3.388574,1.959578 3.881105,3.370363 9.43735,4.547926 14.176081,2.254179 3.411127,-1.139325 6.172351,-3.512696 9.178448,-5.287978 -2.172395,1.859729 3.940158,-0.983833 -0.137596,-1.067142 -3.487508,1.662786 -6.181433,5.142686 -10.046867,6.415871 -5.2131,2.428496 -10.551985,-0.534822 -14.473141,-3.906587 -0.803194,-2.10375 -7.677174,-2.899065 -3.674432,-0.976349 1.711865,1.302114 5.354968,4.663942 1.113944,1.954333 -1.420134,-0.93594 -4.198527,-1.815214 -3.37013,-1.907642 -4.542757,0.277509 4.310942,1.945153 5.555624,3.483595 -4.742319,-1.757273 3.138749,1.691798 4.641483,2.215789 2.485208,0.777202 5.13228,1.235996 7.739685,0.981975 v 0 m 8.128839,-3.265198 c 1.776955,-1.23282 6.000004,-2.302952 1.875132,-0.46521 -0.474632,0.09875 -1.564013,0.716887 -1.875132,0.46521 v 0 m -7.509147,1.478934 c 2.068421,-0.903556 1.244353,-1.283987 2.503556,-1.932064 -2.888352,0.747606 2.606581,-1.279284 -0.64448,-0.543079 3.544607,-1.190822 -1.798245,0.162101 1.091281,-0.980657 1.001921,-0.639572 -0.827235,-0.290513 1.42823,-1.447173 -2.314607,0.788277 -1.140781,0.383417 0.01161,-0.655801 -1.570688,0.550615 2.792343,-2.230775 -0.607471,-0.371796 -1.254906,0.348698 2.309038,-1.367014 -0.607826,-0.210934 1.181935,-0.895481 1.809272,-1.67304 -0.07644,-0.436393 1.981714,-1.377531 2.552394,-1.76912 0.04957,-0.71066 3.048728,-1.697725 -2.24236,0.737041 1.026097,-1.333497 -3.348661,1.821692 -1.247799,0.674007 0.503645,-0.928732 -2.753032,1.65819 -1.475431,0.707277 -0.864911,0.02784 -1.003953,0.437041 -3.286346,2.047502 -1.33803,0.182577 -1.467634,0.794 -1.287745,0.738644 -1.755989,0.720093 0.01454,-0.46716 -0.830403,0.352427 -1.105413,0.501566 0.53803,-1.619196 -1.100612,1.822758 -0.383923,-0.632172 -0.66196,1.536828 -0.559208,-0.612014 -1.173586,1.469122 -0.103331,-1.500833 -0.624925,0.354354 -1.104835,-0.682363 -0.173186,0.60246 -0.519746,-0.08425 -0.956387,-0.235731 -0.54053,-0.719493 0.273777,1.444206 -0.887622,-0.616738 1.072865,2.63749 -1.358112,-1.665342 -0.251621,0.856292 -0.972169,-1.326981 -1.401144,-1.646717 -0.423923,-0.03216 -1.969713,-2.237237 0.0053,0.555793 -1.927966,-1.25458 2.234489,2.409125 -3.138297,-1.891416 -0.438897,0.626728 -2.211096,-1.360077 -1.092327,-0.455341 -0.598131,0.09973 -0.498153,0.09819 2.601277,1.706517 -0.514088,0.175743 3.26902,2.331107 -3.063438,-1.21431 0.445845,1.19668 -1.876514,-0.768238 2.598997,2.031662 -0.693715,0.560946 3.400112,2.074633 -3.245934,-1.69177 0.570116,0.962897 1.759746,1.063743 -2.329824,-0.826582 0.266507,0.651931 2.665574,1.41077 -2.972333,-0.886879 0.392789,0.808812 1.505168,0.763049 -2.035737,-0.227008 0.803188,0.79787 -2.301872,-0.256182 2.962584,1.030402 -0.712111,0.431597 2.658466,1.085615 -1.229922,-0.189277 1.307013,1.149806 -0.653093,-0.05797 -0.743794,0.03571 1.020027,0.897782 -2.108258,-0.515613 0.689956,0.668589 0.979771,0.893153 1.531435,0.280492 3.130199,0.167864 4.668114,-0.0066 l 6e-6,-3.5e-5 m -2.528134,-0.341186 c 0.09447,-0.647354 0.06137,0.770551 0,0 v 0 m 0.0019,-1.536839 c 0.07593,-0.795695 0.07593,0.795688 0,0 v 0 m 5.004904,-1.850383 c 0.546009,-0.160928 0.09909,0.173535 0,0 v 0 m -5.008906,-0.826692 c 0.07973,-0.620522 0.07973,0.620522 0,0 v 0 m 0,-1.388114 c 0.07973,-0.620522 0.07973,0.620522 0,0 v 0 m -21.563353,4.826305 c 2.024637,-1.165496 4.339569,-3.276764 0.774582,-1.004939 -0.169955,-0.02451 -1.914658,1.987432 -0.774582,1.004939 v 0 M 51.7839,69.071038 c 1.935895,-1.322011 3.976521,-4.125618 3.880194,-3.144309 2.752398,-1.747083 -0.681466,-3.771108 -0.89438,-0.433572 -0.134311,1.037688 -6.553723,6.201258 -2.985814,3.577881 v 0 m 13.349798,0.453193 c -4.251426,-2.826637 -0.846477,0.300413 0,0 v 0 m -2.740647,-2.003237 c -0.451773,-0.180322 -1.898558,0.358673 0,0 v 0 M 29.177464,66.981273 c -1.106708,-0.555731 0.622978,0.529879 0,0 v 0 m 24.829588,-0.986419 c 1.55882,-2.382909 -0.646875,-4.021293 -0.398685,-0.59547 1.280128,-1.873657 -1.302935,3.197217 0.398685,0.59547 v 0 m -19.807156,-0.02507 c -1.380234,-3.243011 0.726621,0.583657 0.212338,-0.993 -0.640348,-4.756428 -1.722802,1.295484 -0.212338,0.993 v 0 m -2.243434,-0.964241 c 0.962376,-1.701041 -0.702795,-2.168332 -0.28828,-0.04178 l 0.330724,0.33563 -0.04245,-0.29385 h 6e-6 m 5.400953,-2.238195 c -0.355791,-0.377479 -0.12311,0.390886 0,0 v 0 m 6.53571,-2.493435 c -0.09823,-1.256435 0.511671,0.971772 0.55169,-0.233215 0.09578,2.318577 0.608923,-2.002964 0.334244,0.514135 1.12185,-1.861478 -0.100872,1.331493 1.211674,-1.05946 -0.499295,1.78405 0.563037,-0.150499 0.762989,0.137824 0.819168,-1.537427 -0.642983,2.583427 0.680063,-0.331371 0.227037,-0.305885 -0.118067,1.520756 0.719158,-0.355632 -0.396086,1.815626 1.666638,-2.198879 0.160658,0.995954 1.972866,-2.658144 -0.733554,2.024295 1.443211,-0.881356 -1.658591,2.583034 2.017228,-1.689991 0.237881,1.079038 1.245323,-1.410081 2.353256,-2.972048 0.726291,-0.187061 1.919462,-2.598178 0.503143,0.172087 1.460429,-0.743459 1.895833,-3.690897 -1.027495,3.190321 1.183995,-0.77736 -1.240887,3.052426 0.03024,0.310838 0.559799,0.643766 0.780884,-2.735762 0.87084,-2.24932 0.828873,-0.418898 0.415208,-2.339317 0.764672,-1.688258 0.340295,0.324196 0.829531,-1.862302 0.632296,-3.230435 0.772728,-0.339274 0.344476,-2.519883 0.460521,-3.562572 0.51761,-0.341272 0.311587,-0.387561 0.166372,-4.901876 0.560465,-0.738556 0.230908,1.363549 0.04022,-4.086977 0.609576,-0.453102 -0.42832,-3.306876 0.202214,0.087 0.313512,-0.785549 -0.840862,-2.437995 1.209842,0.965743 -0.178194,-1.668583 1.857692,2.999093 -0.837737,-2.478838 1.20205,0.640826 -2.082771,-3.361067 0.334753,-0.09268 -0.874612,-2.095142 1.79911,1.383838 -1.097264,-1.560468 1.001335,0.37951 -1.370354,-1.370436 -0.242493,-0.619292 -0.70153,-1.471258 1.948034,2.142355 -1.037908,-1.403805 0.380366,-0.313383 -0.496078,-0.808231 -0.564538,-1.009964 -0.713246,-1.377034 1.335136,0.282243 -0.421691,-0.886315 0.591233,-0.630777 -2.618174,-1.532942 -1.852408,0.04503 -2.602723,0.217566 -0.957722,0.133897 -0.313145,0.785561 0.123939,0.904585 -2.242429,-0.623883 0.892078,0.794591 -1.834287,-0.186694 3.242293,1.550975 -3.84102,-0.677366 -0.547667,0.708963 -1.210102,-0.29485 -3.020048,-1.103775 -1.855451,-0.03871 -3.46338,-0.98518 -4.050543,-5.465208 -7.459085,-6.753564 -3.284627,-0.01133 -4.757733,4.458435 -6.325271,5.758518 -1.783689,1.16902 -1.97901,0.855488 -1.452386,0.273126 -1.724639,0.500886 -2.845034,0.638731 -2.182743,0.233746 -4.357948,0.896269 0.182422,-0.306304 -1.395707,-0.193801 -1.018217,0.115911 -0.273163,-0.470252 -0.800288,-0.493425 -0.278595,-0.426436 -0.44605,-0.433516 -0.628494,-0.787659 0.117822,-1.048077 -3.465025,0.708057 -1.309382,0.566338 -1.694054,0.989724 1.320063,-0.143011 -0.871205,1.105279 0.814524,-0.1495 -0.0072,0.525041 0.126223,0.705032 -1.505388,1.612211 1.494343,-1.042428 -0.560885,1.190893 2.178914,-2.268646 0.679464,0.234499 0.363066,-0.04614 -0.620286,1.544916 1.99114,-1.791499 0.01393,0.891215 2.170292,-2.117722 -1.000438,2.107957 0.774937,0.124906 -1.494642,2.095202 -0.552227,1.18998 0.43311,-0.07419 -0.901282,1.216852 -1.34599,3.142392 -0.0514,0.57981 -0.549953,1.155466 -0.220516,4.003873 0.107964,1.105758 0.279116,3.037947 0.232307,1.350187 0.673367,-0.09915 -0.345038,1.312411 0.0965,3.694959 0.137332,0.796648 0.330965,2.504025 0.259316,1.435866 0.653966,-0.212823 0.0046,4.466471 0.340381,-0.376923 0.54612,1.727651 0.495081,3.018789 -0.0142,-3.286894 0.602723,0.693336 0.458319,1.466703 -0.190874,-3.967076 0.358295,-0.528086 1.041833,2.943976 -0.28423,-2.108177 0.792523,1.072564 0.719628,1.294173 -0.514741,-2.71772 0.608916,0.483092 0.403323,0.372964 -0.676232,-3.598742 0.283033,-0.480301 0.733326,1.119814 -0.286389,-1.899774 0.761481,0.210098 0.295903,-0.423863 1.681963,1.899499 0.22052,-0.985891 0.635342,0.903839 1.956139,2.854206 0.647999,0.296932 2.041773,2.635455 0.719257,0.392975 0.644692,0.0559 0.945854,1.381572 1.751677,2.013948 0.708922,0.242077 1.922348,2.264085 -0.696015,-1.82092 1.929286,1.224191 -0.976122,-2.589742 1.366997,1.872928 0.342101,-0.780813 1.464286,2.759404 -0.244621,-1.772429 1.283083,1.132158 0.247309,0.06196 -0.442632,-1.580069 0.724917,0.110021 -1.035611,-2.674583 1.593584,2.394394 0.413088,-0.883132 0.686754,1.567445 0.368757,-0.07731 0.951358,1.32931 l -0.0326,-0.70872 1.4e-4,-1.21e-4 M 39.526233,59.12355 c -1.002002,-1.502868 0.874237,1.053567 0,0 v 0 m 14.361426,-0.520531 c 0.271218,-2.136025 0.0861,0.722383 0,0 v 0 M 43.039923,58.156842 c -0.285745,-0.149284 -0.928676,-0.40428 -1.276515,-0.107731 -0.572663,-0.766359 -0.696666,-0.928698 -1.571144,-1.574646 -0.836239,-0.798071 1.615804,-0.342472 1.874982,-0.242305 0.564202,0.264042 1.232863,0.255355 1.850866,0.332672 0.69103,-0.180785 1.517035,0.313397 1.708076,-0.377942 0.458107,0.07861 1.370015,-0.236388 2.002782,-0.218178 1.238037,0.453262 -0.964987,0.895704 -0.661958,1.296931 -0.47748,-0.32072 -0.498101,0.667729 -0.826586,0.370746 -0.717622,0.542571 -0.856496,0.250356 -1.155662,0.470963 -0.242386,0.327143 -0.752473,-0.466154 -1.033345,0.440602 -0.298408,-0.60027 -0.499316,-0.273852 -0.692574,-0.341438 -0.008,0.597896 -0.101965,0.382573 -0.218922,-0.04967 v -4e-6 m 10.448847,-0.09915 c 0.108087,-0.470879 0.05808,0.597259 0,0 v 0 M 38.965335,55.242607 c -1.399615,-0.916989 -3.010973,-1.156758 -3.373443,-1.369725 -1.704782,0.604237 -0.457875,-1.072694 0.292671,-0.970087 1.001359,-0.458791 1.676646,0.330056 1.93956,0.502332 -0.370698,0.3281 1.720357,0.353153 0.67353,0.537858 1.424465,1.648035 7.464302,-1.244855 3.109537,0.168068 3.070857,-1.361755 0.736224,-0.538955 0.283082,-0.564494 2.371948,-0.900468 1.473372,-0.791477 -0.291007,-0.335654 2.990279,-0.871548 -0.278656,-0.234002 1.022271,-0.723215 -2.865897,-0.193601 0.422265,-0.08347 -1.471717,-0.685209 0.283772,-0.144581 -1.171486,-1.749225 0.600939,-0.0092 0.662242,1.336593 -3.021403,-4.478763 0.941878,-4.551877 4.357877,-2.173212 5.390596,4.626087 3.668534,4.969435 -0.372759,-0.618951 1.755569,-1.708481 -0.872725,-0.0062 2.871018,0.758405 -1.7272,-0.299283 1.056236,0.725644 -3.56747,-1.001876 0.506707,0.428764 -0.725581,0.167291 -2.669814,-0.739238 2.685068,1.163072 -0.932129,0.09447 3.059536,1.228823 -2.978302,-1.174184 0.629858,0.918603 2.578503,1.219096 4.158029,-0.654179 6.028106,-1.103337 -0.65763,-0.804075 2.265672,-0.225782 1.825724,0.935754 -0.287316,0.117504 -1.194479,0.109848 -2.004755,0.266186 -0.05116,0.319784 -1.894597,1.113498 -3.062026,1.077143 -3.259432,-0.643761 -6.080562,-0.173677 -9.338543,-0.04378 v -6e-6 m 3.831874,-4.393392 c -0.639207,-0.698483 -2.346224,0.199593 0,0 v 0 m 3.426608,-0.03836 c 0.889268,-0.801263 -2.819595,0.597489 0,0 v 0 M 41.917363,48.355 c 1.938214,0.212357 7.279645,0.751355 2.969891,-0.770431 -1.127775,-1.364998 -4.990898,2.307333 -2.969891,0.770431 v 0 m 15.359969,6.058893 c -0.679092,-0.722127 0.839575,0.696347 0,0 v 0 m -20.663547,-0.01416 c 0.387095,-0.323296 0.397397,0.176015 0,0 v 0 M 47.37166,54.166979 c 1.199078,-0.624732 0.179711,0.321153 0,0 v 0 m -7.188445,-0.138637 c 0.655878,-0.291964 0.654535,0.167757 0,0 v 0 m 5.750756,-0.08316 c -3.974366,-1.23069 3.477691,0.534091 0,0 v 0 m 3.024103,-0.101406 c 0.119908,-0.362509 0.244517,0.353206 0,0 v 0 m 4.597869,-0.669269 c -0.344087,-0.422584 0.647927,0.511293 0,0 v 0 m -12.201505,-0.29082 c 0.434646,-0.141993 0.04293,0.190764 0,0 v 0 M 30.069822,51.464151 c 0.726623,-0.415708 -0.245851,0.390492 0,0 v 0 m 0.206563,-2.018643 c 0.388831,-0.223265 0.928059,-0.05896 0,0 v 0 m -3.280244,6.2447 c -0.335076,-0.402248 -0.468818,-0.27382 0,0 v 0 M 58.972316,52.25736 c -0.91274,-0.729234 0.534162,0.681576 0,0 v 0 m -4.839759,-2.832482 c 3.858509,0.05509 3.281639,-7.60712 2.005525,-7.241502 1.580712,2.761449 -0.162489,6.615216 -2.005525,7.241502 v 0 m 4.344007,-0.104467 c -2.242478,-1.438714 0.330576,0.687903 0,0 v 0 M 30.828318,48.8599 c -0.81244,-0.130979 -0.219852,-1.011203 -0.659341,-1.481577 -0.101152,-0.157464 0.185446,-0.929874 -0.759011,-1.81797 -1.904349,-0.366985 -2.524671,0.51406 -2.731016,1.173038 -1.542018,0.552935 3.234894,0.0042 -0.525589,0.660286 1.730308,-0.778983 2.893695,0.879342 3.16701,1.641287 -0.179919,0.413005 0.883224,0.264896 1.507975,-0.175308 l -2.8e-5,2.44e-4 m 3.750533,0.388054 c -3.845243,-0.724211 -3.319923,-5.547316 -2.338668,-7.662874 -3.147749,2.627921 0.04463,8.642735 2.883645,7.812509 -0.181659,-0.04988 -0.363318,-0.09976 -0.544977,-0.149635 v 0 m 24.208885,-0.113847 c -0.077,-2.273189 4.617094,-1.538831 1.440803,-2.116995 2.283101,-0.04913 0.18143,-0.918741 0.875337,-1.239148 -1.547705,-1.119977 -3.433573,0.690548 -3.048754,1.393155 0.123432,0.471173 -0.593659,0.693407 0.0675,1.147208 -1.666865,-0.358056 0.845534,1.253162 0.665116,0.81578 h -2e-6 M 52.94685,48.573138 c 3.737719,-0.129309 0.955368,-8.331445 1.877275,-3.106653 -1.497924,6.557512 -10.534572,-0.786842 -4.291933,-3.412985 1.593023,-0.285022 4.455661,0.331058 0.974202,-0.516512 -6.532247,0.396672 -2.020533,10.290654 2.496466,5.917704 1.978935,-2.269749 -1.94122,2.974856 -3.793602,0.924028 -3.352085,-1.952679 1.450054,1.662037 2.737592,0.194418 v 0 M 38.101049,48.273122 c 1.510785,-0.520782 -4.879681,1.187763 -4.809501,-2.105782 -0.537024,-1.905768 0.490439,-5.767152 -0.685423,-1.495025 -0.04946,2.656679 3.023501,4.797047 5.494924,3.600807 v 0 m -0.07255,-0.305303 c 5.960296,-2.268195 -2.043548,-8.665321 -2.461411,-6.174924 6.628796,-1.495225 3.911729,9.448709 -1.243017,5.289331 -1.727813,-1.04715 0.03459,-6.323616 -1.181204,-2.245733 0.154714,2.328439 2.61432,4.295115 4.885632,3.131326 v 0 m 17.532473,-0.189737 c 0.05104,-0.593857 -0.56436,0.948101 0,0 v 0 m -15.73632,-0.676854 c 1.336469,-1.710634 -1.545098,1.457603 0,0 v 0 m 15.748147,-1.419852 c 0.26308,-2.354004 -1.43331,-3.995893 -0.285183,-0.582504 0.06909,1.301592 -0.324283,2.688035 0.285183,0.582504 v 0 m -7.774796,0.602142 c -1.350217,-3.652191 3.687867,-5.92566 5.812926,-4.778338 -3.730122,-2.355999 -7.164385,2.462105 -5.812926,4.778338 v 0 M 30.040645,45.093707 c -0.151865,0.193486 0.149123,0.989172 0,0 v 0 m 0.433102,0.362992 c 0.268868,-2.387399 -0.612758,-0.814261 2.3e-5,0 h -2.3e-5 m 3.75e-4,-0.792647 c 0.143097,-0.264058 0.04426,0.427516 0,0 v 0 m 25.83615,-0.09859 c -0.559815,-3.210069 0.169894,2.640364 0,0 v 0 m 1.718462,0.317809 c -0.304449,-1.289431 -0.42629,-0.174544 1.13e-4,-1.4e-5 l -1.13e-4,1.4e-5 m -14.57367,-0.863912 c 3.02154,0.584057 2.637571,-0.09301 -0.159556,-0.208465 -1.960837,0.606997 -1.104323,0.640691 0.159559,0.208345 l -3e-6,1.2e-4 m -3.27961,-0.575295 c 0.308818,-3.685919 -8.849976,-2.159903 -3.516354,-2.43729 1.58836,-1.436747 4.739004,5.312373 3.516354,2.43729 v 0 m 7.027669,0.360687 c 0.644756,-2.93538 -9.533199,-1.643744 -5.615965,0.303003 -0.533412,-3.417097 0.164556,1.61623 2.480323,-0.51247 0.72535,-0.616479 2.590887,-1.735301 2.638596,0.815658 l 0.176654,-0.02681 0.320415,-0.57936 -2.3e-5,-2.1e-5 m -1.467586,0.02481 c -1.754171,-0.742089 0.980084,0.675623 0,0 v 0 m 10.807451,0.09915 c -0.244536,-0.353202 -0.119902,0.362508 0,0 v 0 M 46.177776,43.222229 c -0.120308,-0.852886 -0.351463,0.351452 0,0 v 0 m -3.223133,-1.970601 c 0.55361,0.490452 1.209198,-0.130182 1.517171,0.376389 0.724122,-0.525463 0.804949,-0.207889 1.301249,-0.15472 1.039041,-0.777478 0.588678,-0.139514 1.41374,-0.77356 0.173563,0.24407 1.186361,-1.128923 1.079074,-0.483506 0.08574,0.02472 1.042413,-0.429661 1.064026,-0.335617 -0.169944,0.484224 1.398901,-0.341041 1.407606,0.07556 1.54253,-0.198271 -0.222605,0.0012 1.864721,0.318727 0.105154,-0.660898 2.041193,1.627366 1.982505,-0.107357 -1.889871,-1.316973 -2.145461,-1.48337 -3.76756,-1.920605 -0.559472,-0.422422 -2.333518,0.0651 -2.468716,-0.263087 -0.757824,-0.470673 -0.419737,-0.134955 -1.502875,-0.194294 -0.773703,-0.364299 -1.453336,0.505568 -1.675285,-0.255759 -0.392049,1.641385 -1.425477,-0.894916 -1.331718,0.556249 0.03713,0.112119 -0.875249,-0.269913 -1.128165,-0.310228 -0.213794,0.284882 -1.831748,-0.289822 -1.932283,-0.0058 -0.477783,0.224816 -1.524109,0.221889 -2.301594,0.231409 -0.07207,-0.0048 -2.966014,0.320739 -2.507226,0.760769 -2.824468,0.532407 0.642561,0.08478 -2.559544,1.328069 1.215581,0.736885 5.06596,-0.443011 4.496804,-0.341456 1.263957,0.801652 0.08326,-1.174941 2.238532,0.845445 -0.732935,-1.170679 0.873087,0.241209 0.682901,-0.09864 0.433515,0.195141 1.012551,1.229419 2.126637,0.752022 v -1e-5 m 0.669138,-1.226997 c -0.656303,-0.641218 1.532149,-0.537278 0.331887,0.08976 l -0.120323,0.03358 -0.211569,-0.123321 5e-6,-1.9e-5 M 42.350563,39.78915 c -1.043841,-1.331239 0.734743,0.689822 0,0 v 0 m 0.509596,-0.123935 c -0.315797,-0.873205 0.528062,0.644906 0,0 v 0 m 1.791383,0.09915 c 0.161603,-0.740084 0.466853,-0.253484 0,0 v 0 m 1.183145,0.0034 c 0.647331,-0.741924 2.099343,-0.865292 -8e-6,-10e-7 l 8e-6,10e-7 m -0.793205,-0.06706 c 0.213802,-0.562341 0.391071,-0.370743 0,0 v 0 m -3.321556,-0.173353 c -1.840521,-1.130158 1.168532,0.363432 0,0 v 0 m 3.809806,-0.0964 c 0.85563,-0.954866 -0.470236,0.805577 0,0 v 0 m -6.200573,0.67736 c -0.623947,-0.762801 0.298318,0.858785 0,0 v 0 M 38.993276,39.96268 c -0.244562,-0.353187 -0.11987,0.362498 0,0 v 0 m 8.880136,-3.74508 c -0.582119,0.246092 -0.330532,0.430168 0,0 v 0"
       transform="matrix(2580.1195,0,0,2580.1195,19036.288,-72153.941)"
       stroke_scale="True"
       mktablength="5160.23622047244"
       mktabpositions=""
       type="elem path"
       id="path1"
       lock="False"
       label_display="False"
       hidden="False"
       stroke-linecap="butt"
       stroke-linejoin="miter"
       fill-rule="evenodd"
       stroke="none"
       stroke-width="0.374744"
       fill="#000000" />
  </g>
  <g
     type="op image"
     label="Image ({percent}, {speed}mm/s)"
     lock="False"
     speed="250"
     color="#00000000"
     frequency="30.0"
     dangerous="False"
     coolant="0"
     stopop="True"
     allowed_attributes="[]"
     id="I1"
     power="1000"
     hex_color="#00000000"
     output="True"
     dwell_time="50.0"
     transform="translate(-9618.6602,14494.678)" />
  <g
     type="op raster"
     lock="False"
     speed="150.0"
     dpi="500"
     color="#000000"
     frequency="30.0"
     dangerous="False"
     coolant="0"
     stopop="False"
     allowed_attributes="[]"
     id="meerk40t:3"
     output="True"
     power="1000"
     dwell_time="50.0"
     hex_color="#000000ff"
     references="path20 path19 path12 path1 path25 path26"
     transform="translate(-9618.6602,14494.678)" />
  <g
     type="op engrave"
     label="Engrave ({percent}, {speed}mm/s)"
     lock="False"
     speed="20"
     color="#0000ff00"
     frequency="30.0"
     dangerous="False"
     coolant="0"
     allowed_attributes="['stroke']"
     id="E1"
     power="1000"
     hex_color="#0000ff00"
     output="True"
     dwell_time="50.0"
     transform="translate(-9618.6602,14494.678)" />
  <g
     type="op engrave"
     lock="False"
     speed="35.0"
     color="#b3b3b3ff"
     frequency="30.0"
     dangerous="False"
     coolant="0"
     allowed_attributes="['stroke']"
     id="meerk40t:8"
     output="True"
     power="1000"
     dwell_time="50.0"
     hex_color="#b3b3b3ff"
     references="path24"
     transform="translate(-9618.6602,14494.678)" />
  <g
     type="op cut"
     label="Cut ({percent}, {speed}mm/s)"
     lock="False"
     speed="1"
     color="#ff000000"
     frequency="30.0"
     dangerous="False"
     kerf="0.0"
     coolant="0"
     allowed_attributes="['stroke']"
     id="C1"
     power="1000"
     hex_color="#ff000000"
     dwell_time="50.0"
     transform="translate(-9618.6602,14494.678)" />
</svg>
